%TF.GenerationSoftware,KiCad,Pcbnew,8.0.4*%
%TF.CreationDate,2024-08-26T11:17:34-06:00*%
%TF.ProjectId,modular-power-board,6d6f6475-6c61-4722-9d70-6f7765722d62,Mk One*%
%TF.SameCoordinates,Original*%
%TF.FileFunction,Drillmap*%
%TF.FilePolarity,Positive*%
%FSLAX45Y45*%
G04 Gerber Fmt 4.5, Leading zero omitted, Abs format (unit mm)*
G04 Created by KiCad (PCBNEW 8.0.4) date 2024-08-26 11:17:34*
%MOMM*%
%LPD*%
G01*
G04 APERTURE LIST*
%ADD10C,0.100000*%
%ADD11C,0.200000*%
%ADD12C,0.170000*%
%ADD13C,0.400000*%
G04 APERTURE END LIST*
D10*
X7098000Y-9052000D02*
X21080000Y-9052000D01*
X21080000Y-11340000D01*
X7098000Y-11340000D01*
X7098000Y-9052000D01*
D11*
D10*
X10056000Y-9694000D02*
X10156000Y-9794000D01*
X10156000Y-9694000D02*
X10056000Y-9794000D01*
X10056000Y-9948000D02*
X10156000Y-10048000D01*
X10156000Y-9948000D02*
X10056000Y-10048000D01*
X10056000Y-10202000D02*
X10156000Y-10302000D01*
X10156000Y-10202000D02*
X10056000Y-10302000D01*
X10056000Y-10456000D02*
X10156000Y-10556000D01*
X10156000Y-10456000D02*
X10056000Y-10556000D01*
X10056000Y-10710000D02*
X10156000Y-10810000D01*
X10156000Y-10710000D02*
X10056000Y-10810000D01*
X10310000Y-9694000D02*
X10410000Y-9794000D01*
X10410000Y-9694000D02*
X10310000Y-9794000D01*
X10310000Y-9948000D02*
X10410000Y-10048000D01*
X10410000Y-9948000D02*
X10310000Y-10048000D01*
X10310000Y-10202000D02*
X10410000Y-10302000D01*
X10410000Y-10202000D02*
X10310000Y-10302000D01*
X10310000Y-10456000D02*
X10410000Y-10556000D01*
X10410000Y-10456000D02*
X10310000Y-10556000D01*
X10310000Y-10710000D02*
X10410000Y-10810000D01*
X10410000Y-10710000D02*
X10310000Y-10810000D01*
X11356000Y-9690000D02*
X11456000Y-9790000D01*
X11456000Y-9690000D02*
X11356000Y-9790000D01*
X11356000Y-9944000D02*
X11456000Y-10044000D01*
X11456000Y-9944000D02*
X11356000Y-10044000D01*
X11356000Y-10198000D02*
X11456000Y-10298000D01*
X11456000Y-10198000D02*
X11356000Y-10298000D01*
X11356000Y-10452000D02*
X11456000Y-10552000D01*
X11456000Y-10452000D02*
X11356000Y-10552000D01*
X11356000Y-10706000D02*
X11456000Y-10806000D01*
X11456000Y-10706000D02*
X11356000Y-10806000D01*
X11610000Y-9690000D02*
X11710000Y-9790000D01*
X11710000Y-9690000D02*
X11610000Y-9790000D01*
X11610000Y-9944000D02*
X11710000Y-10044000D01*
X11710000Y-9944000D02*
X11610000Y-10044000D01*
X11610000Y-10198000D02*
X11710000Y-10298000D01*
X11710000Y-10198000D02*
X11610000Y-10298000D01*
X11610000Y-10452000D02*
X11710000Y-10552000D01*
X11710000Y-10452000D02*
X11610000Y-10552000D01*
X11610000Y-10706000D02*
X11710000Y-10806000D01*
X11710000Y-10706000D02*
X11610000Y-10806000D01*
X13236000Y-9690000D02*
X13336000Y-9790000D01*
X13336000Y-9690000D02*
X13236000Y-9790000D01*
X13236000Y-9944000D02*
X13336000Y-10044000D01*
X13336000Y-9944000D02*
X13236000Y-10044000D01*
X13236000Y-10198000D02*
X13336000Y-10298000D01*
X13336000Y-10198000D02*
X13236000Y-10298000D01*
X13236000Y-10452000D02*
X13336000Y-10552000D01*
X13336000Y-10452000D02*
X13236000Y-10552000D01*
X13236000Y-10706000D02*
X13336000Y-10806000D01*
X13336000Y-10706000D02*
X13236000Y-10806000D01*
X13490000Y-9690000D02*
X13590000Y-9790000D01*
X13590000Y-9690000D02*
X13490000Y-9790000D01*
X13490000Y-9944000D02*
X13590000Y-10044000D01*
X13590000Y-9944000D02*
X13490000Y-10044000D01*
X13490000Y-10198000D02*
X13590000Y-10298000D01*
X13590000Y-10198000D02*
X13490000Y-10298000D01*
X13490000Y-10452000D02*
X13590000Y-10552000D01*
X13590000Y-10452000D02*
X13490000Y-10552000D01*
X13490000Y-10706000D02*
X13590000Y-10806000D01*
X13590000Y-10706000D02*
X13490000Y-10806000D01*
X14536000Y-9690000D02*
X14636000Y-9790000D01*
X14636000Y-9690000D02*
X14536000Y-9790000D01*
X14536000Y-9944000D02*
X14636000Y-10044000D01*
X14636000Y-9944000D02*
X14536000Y-10044000D01*
X14536000Y-10198000D02*
X14636000Y-10298000D01*
X14636000Y-10198000D02*
X14536000Y-10298000D01*
X14536000Y-10452000D02*
X14636000Y-10552000D01*
X14636000Y-10452000D02*
X14536000Y-10552000D01*
X14536000Y-10706000D02*
X14636000Y-10806000D01*
X14636000Y-10706000D02*
X14536000Y-10806000D01*
X14790000Y-9690000D02*
X14890000Y-9790000D01*
X14890000Y-9690000D02*
X14790000Y-9790000D01*
X14790000Y-9944000D02*
X14890000Y-10044000D01*
X14890000Y-9944000D02*
X14790000Y-10044000D01*
X14790000Y-10198000D02*
X14890000Y-10298000D01*
X14890000Y-10198000D02*
X14790000Y-10298000D01*
X14790000Y-10452000D02*
X14890000Y-10552000D01*
X14890000Y-10452000D02*
X14790000Y-10552000D01*
X14790000Y-10706000D02*
X14890000Y-10806000D01*
X14890000Y-10706000D02*
X14790000Y-10806000D01*
X16356000Y-9690000D02*
X16456000Y-9790000D01*
X16456000Y-9690000D02*
X16356000Y-9790000D01*
X16356000Y-9944000D02*
X16456000Y-10044000D01*
X16456000Y-9944000D02*
X16356000Y-10044000D01*
X16356000Y-10198000D02*
X16456000Y-10298000D01*
X16456000Y-10198000D02*
X16356000Y-10298000D01*
X16356000Y-10452000D02*
X16456000Y-10552000D01*
X16456000Y-10452000D02*
X16356000Y-10552000D01*
X16356000Y-10706000D02*
X16456000Y-10806000D01*
X16456000Y-10706000D02*
X16356000Y-10806000D01*
X16610000Y-9690000D02*
X16710000Y-9790000D01*
X16710000Y-9690000D02*
X16610000Y-9790000D01*
X16610000Y-9944000D02*
X16710000Y-10044000D01*
X16710000Y-9944000D02*
X16610000Y-10044000D01*
X16610000Y-10198000D02*
X16710000Y-10298000D01*
X16710000Y-10198000D02*
X16610000Y-10298000D01*
X16610000Y-10452000D02*
X16710000Y-10552000D01*
X16710000Y-10452000D02*
X16610000Y-10552000D01*
X16610000Y-10706000D02*
X16710000Y-10806000D01*
X16710000Y-10706000D02*
X16610000Y-10806000D01*
X17656000Y-9690000D02*
X17756000Y-9790000D01*
X17756000Y-9690000D02*
X17656000Y-9790000D01*
X17656000Y-9944000D02*
X17756000Y-10044000D01*
X17756000Y-9944000D02*
X17656000Y-10044000D01*
X17656000Y-10198000D02*
X17756000Y-10298000D01*
X17756000Y-10198000D02*
X17656000Y-10298000D01*
X17656000Y-10452000D02*
X17756000Y-10552000D01*
X17756000Y-10452000D02*
X17656000Y-10552000D01*
X17656000Y-10706000D02*
X17756000Y-10806000D01*
X17756000Y-10706000D02*
X17656000Y-10806000D01*
X17910000Y-9690000D02*
X18010000Y-9790000D01*
X18010000Y-9690000D02*
X17910000Y-9790000D01*
X17910000Y-9944000D02*
X18010000Y-10044000D01*
X18010000Y-9944000D02*
X17910000Y-10044000D01*
X17910000Y-10198000D02*
X18010000Y-10298000D01*
X18010000Y-10198000D02*
X17910000Y-10298000D01*
X17910000Y-10452000D02*
X18010000Y-10552000D01*
X18010000Y-10452000D02*
X17910000Y-10552000D01*
X17910000Y-10706000D02*
X18010000Y-10806000D01*
X18010000Y-10706000D02*
X17910000Y-10806000D01*
X19556000Y-9690000D02*
X19656000Y-9790000D01*
X19656000Y-9690000D02*
X19556000Y-9790000D01*
X19556000Y-9944000D02*
X19656000Y-10044000D01*
X19656000Y-9944000D02*
X19556000Y-10044000D01*
X19556000Y-10198000D02*
X19656000Y-10298000D01*
X19656000Y-10198000D02*
X19556000Y-10298000D01*
X19556000Y-10452000D02*
X19656000Y-10552000D01*
X19656000Y-10452000D02*
X19556000Y-10552000D01*
X19556000Y-10706000D02*
X19656000Y-10806000D01*
X19656000Y-10706000D02*
X19556000Y-10806000D01*
X19810000Y-9690000D02*
X19910000Y-9790000D01*
X19910000Y-9690000D02*
X19810000Y-9790000D01*
X19810000Y-9944000D02*
X19910000Y-10044000D01*
X19910000Y-9944000D02*
X19810000Y-10044000D01*
X19810000Y-10198000D02*
X19910000Y-10298000D01*
X19910000Y-10198000D02*
X19810000Y-10298000D01*
X19810000Y-10452000D02*
X19910000Y-10552000D01*
X19910000Y-10452000D02*
X19810000Y-10552000D01*
X19810000Y-10706000D02*
X19910000Y-10806000D01*
X19910000Y-10706000D02*
X19810000Y-10806000D01*
D12*
X8425000Y-9652000D02*
G75*
G02*
X8255000Y-9652000I-85000J0D01*
G01*
X8255000Y-9652000D02*
G75*
G02*
X8425000Y-9652000I85000J0D01*
G01*
X8425000Y-10048000D02*
G75*
G02*
X8255000Y-10048000I-85000J0D01*
G01*
X8255000Y-10048000D02*
G75*
G02*
X8425000Y-10048000I85000J0D01*
G01*
X8425000Y-10444000D02*
G75*
G02*
X8255000Y-10444000I-85000J0D01*
G01*
X8255000Y-10444000D02*
G75*
G02*
X8425000Y-10444000I85000J0D01*
G01*
X8425000Y-10840000D02*
G75*
G02*
X8255000Y-10840000I-85000J0D01*
G01*
X8255000Y-10840000D02*
G75*
G02*
X8425000Y-10840000I85000J0D01*
G01*
D13*
X7498000Y-10052000D02*
X7498000Y-10452000D01*
X7298000Y-10252000D02*
X7698000Y-10252000D01*
X20698000Y-10052000D02*
X20698000Y-10452000D01*
X20498000Y-10252000D02*
X20898000Y-10252000D01*
D11*
X7353777Y-11656484D02*
X7353777Y-11456484D01*
X7353777Y-11456484D02*
X7401396Y-11456484D01*
X7401396Y-11456484D02*
X7429967Y-11466008D01*
X7429967Y-11466008D02*
X7449015Y-11485055D01*
X7449015Y-11485055D02*
X7458539Y-11504103D01*
X7458539Y-11504103D02*
X7468062Y-11542198D01*
X7468062Y-11542198D02*
X7468062Y-11570769D01*
X7468062Y-11570769D02*
X7458539Y-11608865D01*
X7458539Y-11608865D02*
X7449015Y-11627912D01*
X7449015Y-11627912D02*
X7429967Y-11646960D01*
X7429967Y-11646960D02*
X7401396Y-11656484D01*
X7401396Y-11656484D02*
X7353777Y-11656484D01*
X7553777Y-11656484D02*
X7553777Y-11523150D01*
X7553777Y-11561246D02*
X7563301Y-11542198D01*
X7563301Y-11542198D02*
X7572824Y-11532674D01*
X7572824Y-11532674D02*
X7591872Y-11523150D01*
X7591872Y-11523150D02*
X7610920Y-11523150D01*
X7677586Y-11656484D02*
X7677586Y-11523150D01*
X7677586Y-11456484D02*
X7668062Y-11466008D01*
X7668062Y-11466008D02*
X7677586Y-11475531D01*
X7677586Y-11475531D02*
X7687110Y-11466008D01*
X7687110Y-11466008D02*
X7677586Y-11456484D01*
X7677586Y-11456484D02*
X7677586Y-11475531D01*
X7801396Y-11656484D02*
X7782348Y-11646960D01*
X7782348Y-11646960D02*
X7772824Y-11627912D01*
X7772824Y-11627912D02*
X7772824Y-11456484D01*
X7906158Y-11656484D02*
X7887110Y-11646960D01*
X7887110Y-11646960D02*
X7877586Y-11627912D01*
X7877586Y-11627912D02*
X7877586Y-11456484D01*
X8134729Y-11656484D02*
X8134729Y-11456484D01*
X8134729Y-11456484D02*
X8201396Y-11599341D01*
X8201396Y-11599341D02*
X8268062Y-11456484D01*
X8268062Y-11456484D02*
X8268062Y-11656484D01*
X8449015Y-11656484D02*
X8449015Y-11551722D01*
X8449015Y-11551722D02*
X8439491Y-11532674D01*
X8439491Y-11532674D02*
X8420444Y-11523150D01*
X8420444Y-11523150D02*
X8382348Y-11523150D01*
X8382348Y-11523150D02*
X8363301Y-11532674D01*
X8449015Y-11646960D02*
X8429967Y-11656484D01*
X8429967Y-11656484D02*
X8382348Y-11656484D01*
X8382348Y-11656484D02*
X8363301Y-11646960D01*
X8363301Y-11646960D02*
X8353777Y-11627912D01*
X8353777Y-11627912D02*
X8353777Y-11608865D01*
X8353777Y-11608865D02*
X8363301Y-11589817D01*
X8363301Y-11589817D02*
X8382348Y-11580293D01*
X8382348Y-11580293D02*
X8429967Y-11580293D01*
X8429967Y-11580293D02*
X8449015Y-11570769D01*
X8544253Y-11523150D02*
X8544253Y-11723150D01*
X8544253Y-11532674D02*
X8563301Y-11523150D01*
X8563301Y-11523150D02*
X8601396Y-11523150D01*
X8601396Y-11523150D02*
X8620444Y-11532674D01*
X8620444Y-11532674D02*
X8629967Y-11542198D01*
X8629967Y-11542198D02*
X8639491Y-11561246D01*
X8639491Y-11561246D02*
X8639491Y-11618388D01*
X8639491Y-11618388D02*
X8629967Y-11637436D01*
X8629967Y-11637436D02*
X8620444Y-11646960D01*
X8620444Y-11646960D02*
X8601396Y-11656484D01*
X8601396Y-11656484D02*
X8563301Y-11656484D01*
X8563301Y-11656484D02*
X8544253Y-11646960D01*
X8725205Y-11637436D02*
X8734729Y-11646960D01*
X8734729Y-11646960D02*
X8725205Y-11656484D01*
X8725205Y-11656484D02*
X8715682Y-11646960D01*
X8715682Y-11646960D02*
X8725205Y-11637436D01*
X8725205Y-11637436D02*
X8725205Y-11656484D01*
X8725205Y-11532674D02*
X8734729Y-11542198D01*
X8734729Y-11542198D02*
X8725205Y-11551722D01*
X8725205Y-11551722D02*
X8715682Y-11542198D01*
X8715682Y-11542198D02*
X8725205Y-11532674D01*
X8725205Y-11532674D02*
X8725205Y-11551722D01*
D10*
X6993000Y-11935000D02*
X7093000Y-12035000D01*
X7093000Y-11935000D02*
X6993000Y-12035000D01*
D11*
X7458539Y-12076484D02*
X7344253Y-12076484D01*
X7401396Y-12076484D02*
X7401396Y-11876484D01*
X7401396Y-11876484D02*
X7382348Y-11905055D01*
X7382348Y-11905055D02*
X7363301Y-11924103D01*
X7363301Y-11924103D02*
X7344253Y-11933627D01*
X7544253Y-12057436D02*
X7553777Y-12066960D01*
X7553777Y-12066960D02*
X7544253Y-12076484D01*
X7544253Y-12076484D02*
X7534729Y-12066960D01*
X7534729Y-12066960D02*
X7544253Y-12057436D01*
X7544253Y-12057436D02*
X7544253Y-12076484D01*
X7677586Y-11876484D02*
X7696634Y-11876484D01*
X7696634Y-11876484D02*
X7715682Y-11886008D01*
X7715682Y-11886008D02*
X7725205Y-11895531D01*
X7725205Y-11895531D02*
X7734729Y-11914579D01*
X7734729Y-11914579D02*
X7744253Y-11952674D01*
X7744253Y-11952674D02*
X7744253Y-12000293D01*
X7744253Y-12000293D02*
X7734729Y-12038388D01*
X7734729Y-12038388D02*
X7725205Y-12057436D01*
X7725205Y-12057436D02*
X7715682Y-12066960D01*
X7715682Y-12066960D02*
X7696634Y-12076484D01*
X7696634Y-12076484D02*
X7677586Y-12076484D01*
X7677586Y-12076484D02*
X7658539Y-12066960D01*
X7658539Y-12066960D02*
X7649015Y-12057436D01*
X7649015Y-12057436D02*
X7639491Y-12038388D01*
X7639491Y-12038388D02*
X7629967Y-12000293D01*
X7629967Y-12000293D02*
X7629967Y-11952674D01*
X7629967Y-11952674D02*
X7639491Y-11914579D01*
X7639491Y-11914579D02*
X7649015Y-11895531D01*
X7649015Y-11895531D02*
X7658539Y-11886008D01*
X7658539Y-11886008D02*
X7677586Y-11876484D01*
X7868062Y-11876484D02*
X7887110Y-11876484D01*
X7887110Y-11876484D02*
X7906158Y-11886008D01*
X7906158Y-11886008D02*
X7915682Y-11895531D01*
X7915682Y-11895531D02*
X7925205Y-11914579D01*
X7925205Y-11914579D02*
X7934729Y-11952674D01*
X7934729Y-11952674D02*
X7934729Y-12000293D01*
X7934729Y-12000293D02*
X7925205Y-12038388D01*
X7925205Y-12038388D02*
X7915682Y-12057436D01*
X7915682Y-12057436D02*
X7906158Y-12066960D01*
X7906158Y-12066960D02*
X7887110Y-12076484D01*
X7887110Y-12076484D02*
X7868062Y-12076484D01*
X7868062Y-12076484D02*
X7849015Y-12066960D01*
X7849015Y-12066960D02*
X7839491Y-12057436D01*
X7839491Y-12057436D02*
X7829967Y-12038388D01*
X7829967Y-12038388D02*
X7820443Y-12000293D01*
X7820443Y-12000293D02*
X7820443Y-11952674D01*
X7820443Y-11952674D02*
X7829967Y-11914579D01*
X7829967Y-11914579D02*
X7839491Y-11895531D01*
X7839491Y-11895531D02*
X7849015Y-11886008D01*
X7849015Y-11886008D02*
X7868062Y-11876484D01*
X8058539Y-11876484D02*
X8077586Y-11876484D01*
X8077586Y-11876484D02*
X8096634Y-11886008D01*
X8096634Y-11886008D02*
X8106158Y-11895531D01*
X8106158Y-11895531D02*
X8115682Y-11914579D01*
X8115682Y-11914579D02*
X8125205Y-11952674D01*
X8125205Y-11952674D02*
X8125205Y-12000293D01*
X8125205Y-12000293D02*
X8115682Y-12038388D01*
X8115682Y-12038388D02*
X8106158Y-12057436D01*
X8106158Y-12057436D02*
X8096634Y-12066960D01*
X8096634Y-12066960D02*
X8077586Y-12076484D01*
X8077586Y-12076484D02*
X8058539Y-12076484D01*
X8058539Y-12076484D02*
X8039491Y-12066960D01*
X8039491Y-12066960D02*
X8029967Y-12057436D01*
X8029967Y-12057436D02*
X8020443Y-12038388D01*
X8020443Y-12038388D02*
X8010920Y-12000293D01*
X8010920Y-12000293D02*
X8010920Y-11952674D01*
X8010920Y-11952674D02*
X8020443Y-11914579D01*
X8020443Y-11914579D02*
X8029967Y-11895531D01*
X8029967Y-11895531D02*
X8039491Y-11886008D01*
X8039491Y-11886008D02*
X8058539Y-11876484D01*
X8210920Y-12076484D02*
X8210920Y-11943150D01*
X8210920Y-11962198D02*
X8220443Y-11952674D01*
X8220443Y-11952674D02*
X8239491Y-11943150D01*
X8239491Y-11943150D02*
X8268063Y-11943150D01*
X8268063Y-11943150D02*
X8287110Y-11952674D01*
X8287110Y-11952674D02*
X8296634Y-11971722D01*
X8296634Y-11971722D02*
X8296634Y-12076484D01*
X8296634Y-11971722D02*
X8306158Y-11952674D01*
X8306158Y-11952674D02*
X8325205Y-11943150D01*
X8325205Y-11943150D02*
X8353777Y-11943150D01*
X8353777Y-11943150D02*
X8372824Y-11952674D01*
X8372824Y-11952674D02*
X8382348Y-11971722D01*
X8382348Y-11971722D02*
X8382348Y-12076484D01*
X8477586Y-12076484D02*
X8477586Y-11943150D01*
X8477586Y-11962198D02*
X8487110Y-11952674D01*
X8487110Y-11952674D02*
X8506158Y-11943150D01*
X8506158Y-11943150D02*
X8534729Y-11943150D01*
X8534729Y-11943150D02*
X8553777Y-11952674D01*
X8553777Y-11952674D02*
X8563301Y-11971722D01*
X8563301Y-11971722D02*
X8563301Y-12076484D01*
X8563301Y-11971722D02*
X8572825Y-11952674D01*
X8572825Y-11952674D02*
X8591872Y-11943150D01*
X8591872Y-11943150D02*
X8620444Y-11943150D01*
X8620444Y-11943150D02*
X8639491Y-11952674D01*
X8639491Y-11952674D02*
X8649015Y-11971722D01*
X8649015Y-11971722D02*
X8649015Y-12076484D01*
X9039491Y-11866960D02*
X8868063Y-12124103D01*
X9296634Y-11876484D02*
X9315682Y-11876484D01*
X9315682Y-11876484D02*
X9334729Y-11886008D01*
X9334729Y-11886008D02*
X9344253Y-11895531D01*
X9344253Y-11895531D02*
X9353777Y-11914579D01*
X9353777Y-11914579D02*
X9363301Y-11952674D01*
X9363301Y-11952674D02*
X9363301Y-12000293D01*
X9363301Y-12000293D02*
X9353777Y-12038388D01*
X9353777Y-12038388D02*
X9344253Y-12057436D01*
X9344253Y-12057436D02*
X9334729Y-12066960D01*
X9334729Y-12066960D02*
X9315682Y-12076484D01*
X9315682Y-12076484D02*
X9296634Y-12076484D01*
X9296634Y-12076484D02*
X9277587Y-12066960D01*
X9277587Y-12066960D02*
X9268063Y-12057436D01*
X9268063Y-12057436D02*
X9258539Y-12038388D01*
X9258539Y-12038388D02*
X9249015Y-12000293D01*
X9249015Y-12000293D02*
X9249015Y-11952674D01*
X9249015Y-11952674D02*
X9258539Y-11914579D01*
X9258539Y-11914579D02*
X9268063Y-11895531D01*
X9268063Y-11895531D02*
X9277587Y-11886008D01*
X9277587Y-11886008D02*
X9296634Y-11876484D01*
X9449015Y-12057436D02*
X9458539Y-12066960D01*
X9458539Y-12066960D02*
X9449015Y-12076484D01*
X9449015Y-12076484D02*
X9439491Y-12066960D01*
X9439491Y-12066960D02*
X9449015Y-12057436D01*
X9449015Y-12057436D02*
X9449015Y-12076484D01*
X9582348Y-11876484D02*
X9601396Y-11876484D01*
X9601396Y-11876484D02*
X9620444Y-11886008D01*
X9620444Y-11886008D02*
X9629968Y-11895531D01*
X9629968Y-11895531D02*
X9639491Y-11914579D01*
X9639491Y-11914579D02*
X9649015Y-11952674D01*
X9649015Y-11952674D02*
X9649015Y-12000293D01*
X9649015Y-12000293D02*
X9639491Y-12038388D01*
X9639491Y-12038388D02*
X9629968Y-12057436D01*
X9629968Y-12057436D02*
X9620444Y-12066960D01*
X9620444Y-12066960D02*
X9601396Y-12076484D01*
X9601396Y-12076484D02*
X9582348Y-12076484D01*
X9582348Y-12076484D02*
X9563301Y-12066960D01*
X9563301Y-12066960D02*
X9553777Y-12057436D01*
X9553777Y-12057436D02*
X9544253Y-12038388D01*
X9544253Y-12038388D02*
X9534729Y-12000293D01*
X9534729Y-12000293D02*
X9534729Y-11952674D01*
X9534729Y-11952674D02*
X9544253Y-11914579D01*
X9544253Y-11914579D02*
X9553777Y-11895531D01*
X9553777Y-11895531D02*
X9563301Y-11886008D01*
X9563301Y-11886008D02*
X9582348Y-11876484D01*
X9715682Y-11876484D02*
X9839491Y-11876484D01*
X9839491Y-11876484D02*
X9772825Y-11952674D01*
X9772825Y-11952674D02*
X9801396Y-11952674D01*
X9801396Y-11952674D02*
X9820444Y-11962198D01*
X9820444Y-11962198D02*
X9829968Y-11971722D01*
X9829968Y-11971722D02*
X9839491Y-11990769D01*
X9839491Y-11990769D02*
X9839491Y-12038388D01*
X9839491Y-12038388D02*
X9829968Y-12057436D01*
X9829968Y-12057436D02*
X9820444Y-12066960D01*
X9820444Y-12066960D02*
X9801396Y-12076484D01*
X9801396Y-12076484D02*
X9744253Y-12076484D01*
X9744253Y-12076484D02*
X9725206Y-12066960D01*
X9725206Y-12066960D02*
X9715682Y-12057436D01*
X9934729Y-12076484D02*
X9972825Y-12076484D01*
X9972825Y-12076484D02*
X9991872Y-12066960D01*
X9991872Y-12066960D02*
X10001396Y-12057436D01*
X10001396Y-12057436D02*
X10020444Y-12028865D01*
X10020444Y-12028865D02*
X10029968Y-11990769D01*
X10029968Y-11990769D02*
X10029968Y-11914579D01*
X10029968Y-11914579D02*
X10020444Y-11895531D01*
X10020444Y-11895531D02*
X10010920Y-11886008D01*
X10010920Y-11886008D02*
X9991872Y-11876484D01*
X9991872Y-11876484D02*
X9953777Y-11876484D01*
X9953777Y-11876484D02*
X9934729Y-11886008D01*
X9934729Y-11886008D02*
X9925206Y-11895531D01*
X9925206Y-11895531D02*
X9915682Y-11914579D01*
X9915682Y-11914579D02*
X9915682Y-11962198D01*
X9915682Y-11962198D02*
X9925206Y-11981246D01*
X9925206Y-11981246D02*
X9934729Y-11990769D01*
X9934729Y-11990769D02*
X9953777Y-12000293D01*
X9953777Y-12000293D02*
X9991872Y-12000293D01*
X9991872Y-12000293D02*
X10010920Y-11990769D01*
X10010920Y-11990769D02*
X10020444Y-11981246D01*
X10020444Y-11981246D02*
X10029968Y-11962198D01*
X10201396Y-11943150D02*
X10201396Y-12076484D01*
X10153777Y-11866960D02*
X10106158Y-12009817D01*
X10106158Y-12009817D02*
X10229968Y-12009817D01*
X10296634Y-11876484D02*
X10296634Y-11914579D01*
X10372825Y-11876484D02*
X10372825Y-11914579D01*
X10668063Y-12152674D02*
X10658539Y-12143150D01*
X10658539Y-12143150D02*
X10639491Y-12114579D01*
X10639491Y-12114579D02*
X10629968Y-12095531D01*
X10629968Y-12095531D02*
X10620444Y-12066960D01*
X10620444Y-12066960D02*
X10610920Y-12019341D01*
X10610920Y-12019341D02*
X10610920Y-11981246D01*
X10610920Y-11981246D02*
X10620444Y-11933627D01*
X10620444Y-11933627D02*
X10629968Y-11905055D01*
X10629968Y-11905055D02*
X10639491Y-11886008D01*
X10639491Y-11886008D02*
X10658539Y-11857436D01*
X10658539Y-11857436D02*
X10668063Y-11847912D01*
X10725206Y-11876484D02*
X10858539Y-11876484D01*
X10858539Y-11876484D02*
X10772825Y-12076484D01*
X10972825Y-11876484D02*
X10991872Y-11876484D01*
X10991872Y-11876484D02*
X11010920Y-11886008D01*
X11010920Y-11886008D02*
X11020444Y-11895531D01*
X11020444Y-11895531D02*
X11029968Y-11914579D01*
X11029968Y-11914579D02*
X11039491Y-11952674D01*
X11039491Y-11952674D02*
X11039491Y-12000293D01*
X11039491Y-12000293D02*
X11029968Y-12038388D01*
X11029968Y-12038388D02*
X11020444Y-12057436D01*
X11020444Y-12057436D02*
X11010920Y-12066960D01*
X11010920Y-12066960D02*
X10991872Y-12076484D01*
X10991872Y-12076484D02*
X10972825Y-12076484D01*
X10972825Y-12076484D02*
X10953777Y-12066960D01*
X10953777Y-12066960D02*
X10944253Y-12057436D01*
X10944253Y-12057436D02*
X10934730Y-12038388D01*
X10934730Y-12038388D02*
X10925206Y-12000293D01*
X10925206Y-12000293D02*
X10925206Y-11952674D01*
X10925206Y-11952674D02*
X10934730Y-11914579D01*
X10934730Y-11914579D02*
X10944253Y-11895531D01*
X10944253Y-11895531D02*
X10953777Y-11886008D01*
X10953777Y-11886008D02*
X10972825Y-11876484D01*
X11277587Y-12076484D02*
X11277587Y-11876484D01*
X11363301Y-12076484D02*
X11363301Y-11971722D01*
X11363301Y-11971722D02*
X11353777Y-11952674D01*
X11353777Y-11952674D02*
X11334730Y-11943150D01*
X11334730Y-11943150D02*
X11306158Y-11943150D01*
X11306158Y-11943150D02*
X11287110Y-11952674D01*
X11287110Y-11952674D02*
X11277587Y-11962198D01*
X11487110Y-12076484D02*
X11468063Y-12066960D01*
X11468063Y-12066960D02*
X11458539Y-12057436D01*
X11458539Y-12057436D02*
X11449015Y-12038388D01*
X11449015Y-12038388D02*
X11449015Y-11981246D01*
X11449015Y-11981246D02*
X11458539Y-11962198D01*
X11458539Y-11962198D02*
X11468063Y-11952674D01*
X11468063Y-11952674D02*
X11487110Y-11943150D01*
X11487110Y-11943150D02*
X11515682Y-11943150D01*
X11515682Y-11943150D02*
X11534730Y-11952674D01*
X11534730Y-11952674D02*
X11544253Y-11962198D01*
X11544253Y-11962198D02*
X11553777Y-11981246D01*
X11553777Y-11981246D02*
X11553777Y-12038388D01*
X11553777Y-12038388D02*
X11544253Y-12057436D01*
X11544253Y-12057436D02*
X11534730Y-12066960D01*
X11534730Y-12066960D02*
X11515682Y-12076484D01*
X11515682Y-12076484D02*
X11487110Y-12076484D01*
X11668063Y-12076484D02*
X11649015Y-12066960D01*
X11649015Y-12066960D02*
X11639491Y-12047912D01*
X11639491Y-12047912D02*
X11639491Y-11876484D01*
X11820444Y-12066960D02*
X11801396Y-12076484D01*
X11801396Y-12076484D02*
X11763301Y-12076484D01*
X11763301Y-12076484D02*
X11744253Y-12066960D01*
X11744253Y-12066960D02*
X11734730Y-12047912D01*
X11734730Y-12047912D02*
X11734730Y-11971722D01*
X11734730Y-11971722D02*
X11744253Y-11952674D01*
X11744253Y-11952674D02*
X11763301Y-11943150D01*
X11763301Y-11943150D02*
X11801396Y-11943150D01*
X11801396Y-11943150D02*
X11820444Y-11952674D01*
X11820444Y-11952674D02*
X11829968Y-11971722D01*
X11829968Y-11971722D02*
X11829968Y-11990769D01*
X11829968Y-11990769D02*
X11734730Y-12009817D01*
X11906158Y-12066960D02*
X11925206Y-12076484D01*
X11925206Y-12076484D02*
X11963301Y-12076484D01*
X11963301Y-12076484D02*
X11982349Y-12066960D01*
X11982349Y-12066960D02*
X11991872Y-12047912D01*
X11991872Y-12047912D02*
X11991872Y-12038388D01*
X11991872Y-12038388D02*
X11982349Y-12019341D01*
X11982349Y-12019341D02*
X11963301Y-12009817D01*
X11963301Y-12009817D02*
X11934730Y-12009817D01*
X11934730Y-12009817D02*
X11915682Y-12000293D01*
X11915682Y-12000293D02*
X11906158Y-11981246D01*
X11906158Y-11981246D02*
X11906158Y-11971722D01*
X11906158Y-11971722D02*
X11915682Y-11952674D01*
X11915682Y-11952674D02*
X11934730Y-11943150D01*
X11934730Y-11943150D02*
X11963301Y-11943150D01*
X11963301Y-11943150D02*
X11982349Y-11952674D01*
X12058539Y-12152674D02*
X12068063Y-12143150D01*
X12068063Y-12143150D02*
X12087111Y-12114579D01*
X12087111Y-12114579D02*
X12096634Y-12095531D01*
X12096634Y-12095531D02*
X12106158Y-12066960D01*
X12106158Y-12066960D02*
X12115682Y-12019341D01*
X12115682Y-12019341D02*
X12115682Y-11981246D01*
X12115682Y-11981246D02*
X12106158Y-11933627D01*
X12106158Y-11933627D02*
X12096634Y-11905055D01*
X12096634Y-11905055D02*
X12087111Y-11886008D01*
X12087111Y-11886008D02*
X12068063Y-11857436D01*
X12068063Y-11857436D02*
X12058539Y-11847912D01*
D12*
X7093000Y-12249000D02*
G75*
G02*
X6923000Y-12249000I-85000J0D01*
G01*
X6923000Y-12249000D02*
G75*
G02*
X7093000Y-12249000I85000J0D01*
G01*
D11*
X7458539Y-12340484D02*
X7344253Y-12340484D01*
X7401396Y-12340484D02*
X7401396Y-12140484D01*
X7401396Y-12140484D02*
X7382348Y-12169055D01*
X7382348Y-12169055D02*
X7363301Y-12188103D01*
X7363301Y-12188103D02*
X7344253Y-12197627D01*
X7544253Y-12321436D02*
X7553777Y-12330960D01*
X7553777Y-12330960D02*
X7544253Y-12340484D01*
X7544253Y-12340484D02*
X7534729Y-12330960D01*
X7534729Y-12330960D02*
X7544253Y-12321436D01*
X7544253Y-12321436D02*
X7544253Y-12340484D01*
X7620443Y-12140484D02*
X7753777Y-12140484D01*
X7753777Y-12140484D02*
X7668062Y-12340484D01*
X7868062Y-12140484D02*
X7887110Y-12140484D01*
X7887110Y-12140484D02*
X7906158Y-12150008D01*
X7906158Y-12150008D02*
X7915682Y-12159531D01*
X7915682Y-12159531D02*
X7925205Y-12178579D01*
X7925205Y-12178579D02*
X7934729Y-12216674D01*
X7934729Y-12216674D02*
X7934729Y-12264293D01*
X7934729Y-12264293D02*
X7925205Y-12302388D01*
X7925205Y-12302388D02*
X7915682Y-12321436D01*
X7915682Y-12321436D02*
X7906158Y-12330960D01*
X7906158Y-12330960D02*
X7887110Y-12340484D01*
X7887110Y-12340484D02*
X7868062Y-12340484D01*
X7868062Y-12340484D02*
X7849015Y-12330960D01*
X7849015Y-12330960D02*
X7839491Y-12321436D01*
X7839491Y-12321436D02*
X7829967Y-12302388D01*
X7829967Y-12302388D02*
X7820443Y-12264293D01*
X7820443Y-12264293D02*
X7820443Y-12216674D01*
X7820443Y-12216674D02*
X7829967Y-12178579D01*
X7829967Y-12178579D02*
X7839491Y-12159531D01*
X7839491Y-12159531D02*
X7849015Y-12150008D01*
X7849015Y-12150008D02*
X7868062Y-12140484D01*
X8058539Y-12140484D02*
X8077586Y-12140484D01*
X8077586Y-12140484D02*
X8096634Y-12150008D01*
X8096634Y-12150008D02*
X8106158Y-12159531D01*
X8106158Y-12159531D02*
X8115682Y-12178579D01*
X8115682Y-12178579D02*
X8125205Y-12216674D01*
X8125205Y-12216674D02*
X8125205Y-12264293D01*
X8125205Y-12264293D02*
X8115682Y-12302388D01*
X8115682Y-12302388D02*
X8106158Y-12321436D01*
X8106158Y-12321436D02*
X8096634Y-12330960D01*
X8096634Y-12330960D02*
X8077586Y-12340484D01*
X8077586Y-12340484D02*
X8058539Y-12340484D01*
X8058539Y-12340484D02*
X8039491Y-12330960D01*
X8039491Y-12330960D02*
X8029967Y-12321436D01*
X8029967Y-12321436D02*
X8020443Y-12302388D01*
X8020443Y-12302388D02*
X8010920Y-12264293D01*
X8010920Y-12264293D02*
X8010920Y-12216674D01*
X8010920Y-12216674D02*
X8020443Y-12178579D01*
X8020443Y-12178579D02*
X8029967Y-12159531D01*
X8029967Y-12159531D02*
X8039491Y-12150008D01*
X8039491Y-12150008D02*
X8058539Y-12140484D01*
X8210920Y-12340484D02*
X8210920Y-12207150D01*
X8210920Y-12226198D02*
X8220443Y-12216674D01*
X8220443Y-12216674D02*
X8239491Y-12207150D01*
X8239491Y-12207150D02*
X8268063Y-12207150D01*
X8268063Y-12207150D02*
X8287110Y-12216674D01*
X8287110Y-12216674D02*
X8296634Y-12235722D01*
X8296634Y-12235722D02*
X8296634Y-12340484D01*
X8296634Y-12235722D02*
X8306158Y-12216674D01*
X8306158Y-12216674D02*
X8325205Y-12207150D01*
X8325205Y-12207150D02*
X8353777Y-12207150D01*
X8353777Y-12207150D02*
X8372824Y-12216674D01*
X8372824Y-12216674D02*
X8382348Y-12235722D01*
X8382348Y-12235722D02*
X8382348Y-12340484D01*
X8477586Y-12340484D02*
X8477586Y-12207150D01*
X8477586Y-12226198D02*
X8487110Y-12216674D01*
X8487110Y-12216674D02*
X8506158Y-12207150D01*
X8506158Y-12207150D02*
X8534729Y-12207150D01*
X8534729Y-12207150D02*
X8553777Y-12216674D01*
X8553777Y-12216674D02*
X8563301Y-12235722D01*
X8563301Y-12235722D02*
X8563301Y-12340484D01*
X8563301Y-12235722D02*
X8572825Y-12216674D01*
X8572825Y-12216674D02*
X8591872Y-12207150D01*
X8591872Y-12207150D02*
X8620444Y-12207150D01*
X8620444Y-12207150D02*
X8639491Y-12216674D01*
X8639491Y-12216674D02*
X8649015Y-12235722D01*
X8649015Y-12235722D02*
X8649015Y-12340484D01*
X9039491Y-12130960D02*
X8868063Y-12388103D01*
X9296634Y-12140484D02*
X9315682Y-12140484D01*
X9315682Y-12140484D02*
X9334729Y-12150008D01*
X9334729Y-12150008D02*
X9344253Y-12159531D01*
X9344253Y-12159531D02*
X9353777Y-12178579D01*
X9353777Y-12178579D02*
X9363301Y-12216674D01*
X9363301Y-12216674D02*
X9363301Y-12264293D01*
X9363301Y-12264293D02*
X9353777Y-12302388D01*
X9353777Y-12302388D02*
X9344253Y-12321436D01*
X9344253Y-12321436D02*
X9334729Y-12330960D01*
X9334729Y-12330960D02*
X9315682Y-12340484D01*
X9315682Y-12340484D02*
X9296634Y-12340484D01*
X9296634Y-12340484D02*
X9277587Y-12330960D01*
X9277587Y-12330960D02*
X9268063Y-12321436D01*
X9268063Y-12321436D02*
X9258539Y-12302388D01*
X9258539Y-12302388D02*
X9249015Y-12264293D01*
X9249015Y-12264293D02*
X9249015Y-12216674D01*
X9249015Y-12216674D02*
X9258539Y-12178579D01*
X9258539Y-12178579D02*
X9268063Y-12159531D01*
X9268063Y-12159531D02*
X9277587Y-12150008D01*
X9277587Y-12150008D02*
X9296634Y-12140484D01*
X9449015Y-12321436D02*
X9458539Y-12330960D01*
X9458539Y-12330960D02*
X9449015Y-12340484D01*
X9449015Y-12340484D02*
X9439491Y-12330960D01*
X9439491Y-12330960D02*
X9449015Y-12321436D01*
X9449015Y-12321436D02*
X9449015Y-12340484D01*
X9582348Y-12140484D02*
X9601396Y-12140484D01*
X9601396Y-12140484D02*
X9620444Y-12150008D01*
X9620444Y-12150008D02*
X9629968Y-12159531D01*
X9629968Y-12159531D02*
X9639491Y-12178579D01*
X9639491Y-12178579D02*
X9649015Y-12216674D01*
X9649015Y-12216674D02*
X9649015Y-12264293D01*
X9649015Y-12264293D02*
X9639491Y-12302388D01*
X9639491Y-12302388D02*
X9629968Y-12321436D01*
X9629968Y-12321436D02*
X9620444Y-12330960D01*
X9620444Y-12330960D02*
X9601396Y-12340484D01*
X9601396Y-12340484D02*
X9582348Y-12340484D01*
X9582348Y-12340484D02*
X9563301Y-12330960D01*
X9563301Y-12330960D02*
X9553777Y-12321436D01*
X9553777Y-12321436D02*
X9544253Y-12302388D01*
X9544253Y-12302388D02*
X9534729Y-12264293D01*
X9534729Y-12264293D02*
X9534729Y-12216674D01*
X9534729Y-12216674D02*
X9544253Y-12178579D01*
X9544253Y-12178579D02*
X9553777Y-12159531D01*
X9553777Y-12159531D02*
X9563301Y-12150008D01*
X9563301Y-12150008D02*
X9582348Y-12140484D01*
X9820444Y-12140484D02*
X9782348Y-12140484D01*
X9782348Y-12140484D02*
X9763301Y-12150008D01*
X9763301Y-12150008D02*
X9753777Y-12159531D01*
X9753777Y-12159531D02*
X9734729Y-12188103D01*
X9734729Y-12188103D02*
X9725206Y-12226198D01*
X9725206Y-12226198D02*
X9725206Y-12302388D01*
X9725206Y-12302388D02*
X9734729Y-12321436D01*
X9734729Y-12321436D02*
X9744253Y-12330960D01*
X9744253Y-12330960D02*
X9763301Y-12340484D01*
X9763301Y-12340484D02*
X9801396Y-12340484D01*
X9801396Y-12340484D02*
X9820444Y-12330960D01*
X9820444Y-12330960D02*
X9829968Y-12321436D01*
X9829968Y-12321436D02*
X9839491Y-12302388D01*
X9839491Y-12302388D02*
X9839491Y-12254769D01*
X9839491Y-12254769D02*
X9829968Y-12235722D01*
X9829968Y-12235722D02*
X9820444Y-12226198D01*
X9820444Y-12226198D02*
X9801396Y-12216674D01*
X9801396Y-12216674D02*
X9763301Y-12216674D01*
X9763301Y-12216674D02*
X9744253Y-12226198D01*
X9744253Y-12226198D02*
X9734729Y-12235722D01*
X9734729Y-12235722D02*
X9725206Y-12254769D01*
X10010920Y-12140484D02*
X9972825Y-12140484D01*
X9972825Y-12140484D02*
X9953777Y-12150008D01*
X9953777Y-12150008D02*
X9944253Y-12159531D01*
X9944253Y-12159531D02*
X9925206Y-12188103D01*
X9925206Y-12188103D02*
X9915682Y-12226198D01*
X9915682Y-12226198D02*
X9915682Y-12302388D01*
X9915682Y-12302388D02*
X9925206Y-12321436D01*
X9925206Y-12321436D02*
X9934729Y-12330960D01*
X9934729Y-12330960D02*
X9953777Y-12340484D01*
X9953777Y-12340484D02*
X9991872Y-12340484D01*
X9991872Y-12340484D02*
X10010920Y-12330960D01*
X10010920Y-12330960D02*
X10020444Y-12321436D01*
X10020444Y-12321436D02*
X10029968Y-12302388D01*
X10029968Y-12302388D02*
X10029968Y-12254769D01*
X10029968Y-12254769D02*
X10020444Y-12235722D01*
X10020444Y-12235722D02*
X10010920Y-12226198D01*
X10010920Y-12226198D02*
X9991872Y-12216674D01*
X9991872Y-12216674D02*
X9953777Y-12216674D01*
X9953777Y-12216674D02*
X9934729Y-12226198D01*
X9934729Y-12226198D02*
X9925206Y-12235722D01*
X9925206Y-12235722D02*
X9915682Y-12254769D01*
X10125206Y-12340484D02*
X10163301Y-12340484D01*
X10163301Y-12340484D02*
X10182349Y-12330960D01*
X10182349Y-12330960D02*
X10191872Y-12321436D01*
X10191872Y-12321436D02*
X10210920Y-12292865D01*
X10210920Y-12292865D02*
X10220444Y-12254769D01*
X10220444Y-12254769D02*
X10220444Y-12178579D01*
X10220444Y-12178579D02*
X10210920Y-12159531D01*
X10210920Y-12159531D02*
X10201396Y-12150008D01*
X10201396Y-12150008D02*
X10182349Y-12140484D01*
X10182349Y-12140484D02*
X10144253Y-12140484D01*
X10144253Y-12140484D02*
X10125206Y-12150008D01*
X10125206Y-12150008D02*
X10115682Y-12159531D01*
X10115682Y-12159531D02*
X10106158Y-12178579D01*
X10106158Y-12178579D02*
X10106158Y-12226198D01*
X10106158Y-12226198D02*
X10115682Y-12245246D01*
X10115682Y-12245246D02*
X10125206Y-12254769D01*
X10125206Y-12254769D02*
X10144253Y-12264293D01*
X10144253Y-12264293D02*
X10182349Y-12264293D01*
X10182349Y-12264293D02*
X10201396Y-12254769D01*
X10201396Y-12254769D02*
X10210920Y-12245246D01*
X10210920Y-12245246D02*
X10220444Y-12226198D01*
X10296634Y-12140484D02*
X10296634Y-12178579D01*
X10372825Y-12140484D02*
X10372825Y-12178579D01*
X10668063Y-12416674D02*
X10658539Y-12407150D01*
X10658539Y-12407150D02*
X10639491Y-12378579D01*
X10639491Y-12378579D02*
X10629968Y-12359531D01*
X10629968Y-12359531D02*
X10620444Y-12330960D01*
X10620444Y-12330960D02*
X10610920Y-12283341D01*
X10610920Y-12283341D02*
X10610920Y-12245246D01*
X10610920Y-12245246D02*
X10620444Y-12197627D01*
X10620444Y-12197627D02*
X10629968Y-12169055D01*
X10629968Y-12169055D02*
X10639491Y-12150008D01*
X10639491Y-12150008D02*
X10658539Y-12121436D01*
X10658539Y-12121436D02*
X10668063Y-12111912D01*
X10829968Y-12207150D02*
X10829968Y-12340484D01*
X10782349Y-12130960D02*
X10734730Y-12273817D01*
X10734730Y-12273817D02*
X10858539Y-12273817D01*
X11087111Y-12340484D02*
X11087111Y-12140484D01*
X11172825Y-12340484D02*
X11172825Y-12235722D01*
X11172825Y-12235722D02*
X11163301Y-12216674D01*
X11163301Y-12216674D02*
X11144253Y-12207150D01*
X11144253Y-12207150D02*
X11115682Y-12207150D01*
X11115682Y-12207150D02*
X11096634Y-12216674D01*
X11096634Y-12216674D02*
X11087111Y-12226198D01*
X11296634Y-12340484D02*
X11277587Y-12330960D01*
X11277587Y-12330960D02*
X11268063Y-12321436D01*
X11268063Y-12321436D02*
X11258539Y-12302388D01*
X11258539Y-12302388D02*
X11258539Y-12245246D01*
X11258539Y-12245246D02*
X11268063Y-12226198D01*
X11268063Y-12226198D02*
X11277587Y-12216674D01*
X11277587Y-12216674D02*
X11296634Y-12207150D01*
X11296634Y-12207150D02*
X11325206Y-12207150D01*
X11325206Y-12207150D02*
X11344253Y-12216674D01*
X11344253Y-12216674D02*
X11353777Y-12226198D01*
X11353777Y-12226198D02*
X11363301Y-12245246D01*
X11363301Y-12245246D02*
X11363301Y-12302388D01*
X11363301Y-12302388D02*
X11353777Y-12321436D01*
X11353777Y-12321436D02*
X11344253Y-12330960D01*
X11344253Y-12330960D02*
X11325206Y-12340484D01*
X11325206Y-12340484D02*
X11296634Y-12340484D01*
X11477587Y-12340484D02*
X11458539Y-12330960D01*
X11458539Y-12330960D02*
X11449015Y-12311912D01*
X11449015Y-12311912D02*
X11449015Y-12140484D01*
X11629968Y-12330960D02*
X11610920Y-12340484D01*
X11610920Y-12340484D02*
X11572825Y-12340484D01*
X11572825Y-12340484D02*
X11553777Y-12330960D01*
X11553777Y-12330960D02*
X11544253Y-12311912D01*
X11544253Y-12311912D02*
X11544253Y-12235722D01*
X11544253Y-12235722D02*
X11553777Y-12216674D01*
X11553777Y-12216674D02*
X11572825Y-12207150D01*
X11572825Y-12207150D02*
X11610920Y-12207150D01*
X11610920Y-12207150D02*
X11629968Y-12216674D01*
X11629968Y-12216674D02*
X11639491Y-12235722D01*
X11639491Y-12235722D02*
X11639491Y-12254769D01*
X11639491Y-12254769D02*
X11544253Y-12273817D01*
X11715682Y-12330960D02*
X11734730Y-12340484D01*
X11734730Y-12340484D02*
X11772825Y-12340484D01*
X11772825Y-12340484D02*
X11791872Y-12330960D01*
X11791872Y-12330960D02*
X11801396Y-12311912D01*
X11801396Y-12311912D02*
X11801396Y-12302388D01*
X11801396Y-12302388D02*
X11791872Y-12283341D01*
X11791872Y-12283341D02*
X11772825Y-12273817D01*
X11772825Y-12273817D02*
X11744253Y-12273817D01*
X11744253Y-12273817D02*
X11725206Y-12264293D01*
X11725206Y-12264293D02*
X11715682Y-12245246D01*
X11715682Y-12245246D02*
X11715682Y-12235722D01*
X11715682Y-12235722D02*
X11725206Y-12216674D01*
X11725206Y-12216674D02*
X11744253Y-12207150D01*
X11744253Y-12207150D02*
X11772825Y-12207150D01*
X11772825Y-12207150D02*
X11791872Y-12216674D01*
X11868063Y-12416674D02*
X11877587Y-12407150D01*
X11877587Y-12407150D02*
X11896634Y-12378579D01*
X11896634Y-12378579D02*
X11906158Y-12359531D01*
X11906158Y-12359531D02*
X11915682Y-12330960D01*
X11915682Y-12330960D02*
X11925206Y-12283341D01*
X11925206Y-12283341D02*
X11925206Y-12245246D01*
X11925206Y-12245246D02*
X11915682Y-12197627D01*
X11915682Y-12197627D02*
X11906158Y-12169055D01*
X11906158Y-12169055D02*
X11896634Y-12150008D01*
X11896634Y-12150008D02*
X11877587Y-12121436D01*
X11877587Y-12121436D02*
X11868063Y-12111912D01*
X6993000Y-12439000D02*
X6993000Y-12639000D01*
X6893000Y-12539000D02*
X7093000Y-12539000D01*
X7439491Y-12497150D02*
X7439491Y-12630484D01*
X7391872Y-12420960D02*
X7344253Y-12563817D01*
X7344253Y-12563817D02*
X7468062Y-12563817D01*
X7544253Y-12611436D02*
X7553777Y-12620960D01*
X7553777Y-12620960D02*
X7544253Y-12630484D01*
X7544253Y-12630484D02*
X7534729Y-12620960D01*
X7534729Y-12620960D02*
X7544253Y-12611436D01*
X7544253Y-12611436D02*
X7544253Y-12630484D01*
X7677586Y-12430484D02*
X7696634Y-12430484D01*
X7696634Y-12430484D02*
X7715682Y-12440008D01*
X7715682Y-12440008D02*
X7725205Y-12449531D01*
X7725205Y-12449531D02*
X7734729Y-12468579D01*
X7734729Y-12468579D02*
X7744253Y-12506674D01*
X7744253Y-12506674D02*
X7744253Y-12554293D01*
X7744253Y-12554293D02*
X7734729Y-12592388D01*
X7734729Y-12592388D02*
X7725205Y-12611436D01*
X7725205Y-12611436D02*
X7715682Y-12620960D01*
X7715682Y-12620960D02*
X7696634Y-12630484D01*
X7696634Y-12630484D02*
X7677586Y-12630484D01*
X7677586Y-12630484D02*
X7658539Y-12620960D01*
X7658539Y-12620960D02*
X7649015Y-12611436D01*
X7649015Y-12611436D02*
X7639491Y-12592388D01*
X7639491Y-12592388D02*
X7629967Y-12554293D01*
X7629967Y-12554293D02*
X7629967Y-12506674D01*
X7629967Y-12506674D02*
X7639491Y-12468579D01*
X7639491Y-12468579D02*
X7649015Y-12449531D01*
X7649015Y-12449531D02*
X7658539Y-12440008D01*
X7658539Y-12440008D02*
X7677586Y-12430484D01*
X7868062Y-12430484D02*
X7887110Y-12430484D01*
X7887110Y-12430484D02*
X7906158Y-12440008D01*
X7906158Y-12440008D02*
X7915682Y-12449531D01*
X7915682Y-12449531D02*
X7925205Y-12468579D01*
X7925205Y-12468579D02*
X7934729Y-12506674D01*
X7934729Y-12506674D02*
X7934729Y-12554293D01*
X7934729Y-12554293D02*
X7925205Y-12592388D01*
X7925205Y-12592388D02*
X7915682Y-12611436D01*
X7915682Y-12611436D02*
X7906158Y-12620960D01*
X7906158Y-12620960D02*
X7887110Y-12630484D01*
X7887110Y-12630484D02*
X7868062Y-12630484D01*
X7868062Y-12630484D02*
X7849015Y-12620960D01*
X7849015Y-12620960D02*
X7839491Y-12611436D01*
X7839491Y-12611436D02*
X7829967Y-12592388D01*
X7829967Y-12592388D02*
X7820443Y-12554293D01*
X7820443Y-12554293D02*
X7820443Y-12506674D01*
X7820443Y-12506674D02*
X7829967Y-12468579D01*
X7829967Y-12468579D02*
X7839491Y-12449531D01*
X7839491Y-12449531D02*
X7849015Y-12440008D01*
X7849015Y-12440008D02*
X7868062Y-12430484D01*
X8058539Y-12430484D02*
X8077586Y-12430484D01*
X8077586Y-12430484D02*
X8096634Y-12440008D01*
X8096634Y-12440008D02*
X8106158Y-12449531D01*
X8106158Y-12449531D02*
X8115682Y-12468579D01*
X8115682Y-12468579D02*
X8125205Y-12506674D01*
X8125205Y-12506674D02*
X8125205Y-12554293D01*
X8125205Y-12554293D02*
X8115682Y-12592388D01*
X8115682Y-12592388D02*
X8106158Y-12611436D01*
X8106158Y-12611436D02*
X8096634Y-12620960D01*
X8096634Y-12620960D02*
X8077586Y-12630484D01*
X8077586Y-12630484D02*
X8058539Y-12630484D01*
X8058539Y-12630484D02*
X8039491Y-12620960D01*
X8039491Y-12620960D02*
X8029967Y-12611436D01*
X8029967Y-12611436D02*
X8020443Y-12592388D01*
X8020443Y-12592388D02*
X8010920Y-12554293D01*
X8010920Y-12554293D02*
X8010920Y-12506674D01*
X8010920Y-12506674D02*
X8020443Y-12468579D01*
X8020443Y-12468579D02*
X8029967Y-12449531D01*
X8029967Y-12449531D02*
X8039491Y-12440008D01*
X8039491Y-12440008D02*
X8058539Y-12430484D01*
X8210920Y-12630484D02*
X8210920Y-12497150D01*
X8210920Y-12516198D02*
X8220443Y-12506674D01*
X8220443Y-12506674D02*
X8239491Y-12497150D01*
X8239491Y-12497150D02*
X8268063Y-12497150D01*
X8268063Y-12497150D02*
X8287110Y-12506674D01*
X8287110Y-12506674D02*
X8296634Y-12525722D01*
X8296634Y-12525722D02*
X8296634Y-12630484D01*
X8296634Y-12525722D02*
X8306158Y-12506674D01*
X8306158Y-12506674D02*
X8325205Y-12497150D01*
X8325205Y-12497150D02*
X8353777Y-12497150D01*
X8353777Y-12497150D02*
X8372824Y-12506674D01*
X8372824Y-12506674D02*
X8382348Y-12525722D01*
X8382348Y-12525722D02*
X8382348Y-12630484D01*
X8477586Y-12630484D02*
X8477586Y-12497150D01*
X8477586Y-12516198D02*
X8487110Y-12506674D01*
X8487110Y-12506674D02*
X8506158Y-12497150D01*
X8506158Y-12497150D02*
X8534729Y-12497150D01*
X8534729Y-12497150D02*
X8553777Y-12506674D01*
X8553777Y-12506674D02*
X8563301Y-12525722D01*
X8563301Y-12525722D02*
X8563301Y-12630484D01*
X8563301Y-12525722D02*
X8572825Y-12506674D01*
X8572825Y-12506674D02*
X8591872Y-12497150D01*
X8591872Y-12497150D02*
X8620444Y-12497150D01*
X8620444Y-12497150D02*
X8639491Y-12506674D01*
X8639491Y-12506674D02*
X8649015Y-12525722D01*
X8649015Y-12525722D02*
X8649015Y-12630484D01*
X9039491Y-12420960D02*
X8868063Y-12678103D01*
X9296634Y-12430484D02*
X9315682Y-12430484D01*
X9315682Y-12430484D02*
X9334729Y-12440008D01*
X9334729Y-12440008D02*
X9344253Y-12449531D01*
X9344253Y-12449531D02*
X9353777Y-12468579D01*
X9353777Y-12468579D02*
X9363301Y-12506674D01*
X9363301Y-12506674D02*
X9363301Y-12554293D01*
X9363301Y-12554293D02*
X9353777Y-12592388D01*
X9353777Y-12592388D02*
X9344253Y-12611436D01*
X9344253Y-12611436D02*
X9334729Y-12620960D01*
X9334729Y-12620960D02*
X9315682Y-12630484D01*
X9315682Y-12630484D02*
X9296634Y-12630484D01*
X9296634Y-12630484D02*
X9277587Y-12620960D01*
X9277587Y-12620960D02*
X9268063Y-12611436D01*
X9268063Y-12611436D02*
X9258539Y-12592388D01*
X9258539Y-12592388D02*
X9249015Y-12554293D01*
X9249015Y-12554293D02*
X9249015Y-12506674D01*
X9249015Y-12506674D02*
X9258539Y-12468579D01*
X9258539Y-12468579D02*
X9268063Y-12449531D01*
X9268063Y-12449531D02*
X9277587Y-12440008D01*
X9277587Y-12440008D02*
X9296634Y-12430484D01*
X9449015Y-12611436D02*
X9458539Y-12620960D01*
X9458539Y-12620960D02*
X9449015Y-12630484D01*
X9449015Y-12630484D02*
X9439491Y-12620960D01*
X9439491Y-12620960D02*
X9449015Y-12611436D01*
X9449015Y-12611436D02*
X9449015Y-12630484D01*
X9649015Y-12630484D02*
X9534729Y-12630484D01*
X9591872Y-12630484D02*
X9591872Y-12430484D01*
X9591872Y-12430484D02*
X9572825Y-12459055D01*
X9572825Y-12459055D02*
X9553777Y-12478103D01*
X9553777Y-12478103D02*
X9534729Y-12487627D01*
X9829968Y-12430484D02*
X9734729Y-12430484D01*
X9734729Y-12430484D02*
X9725206Y-12525722D01*
X9725206Y-12525722D02*
X9734729Y-12516198D01*
X9734729Y-12516198D02*
X9753777Y-12506674D01*
X9753777Y-12506674D02*
X9801396Y-12506674D01*
X9801396Y-12506674D02*
X9820444Y-12516198D01*
X9820444Y-12516198D02*
X9829968Y-12525722D01*
X9829968Y-12525722D02*
X9839491Y-12544769D01*
X9839491Y-12544769D02*
X9839491Y-12592388D01*
X9839491Y-12592388D02*
X9829968Y-12611436D01*
X9829968Y-12611436D02*
X9820444Y-12620960D01*
X9820444Y-12620960D02*
X9801396Y-12630484D01*
X9801396Y-12630484D02*
X9753777Y-12630484D01*
X9753777Y-12630484D02*
X9734729Y-12620960D01*
X9734729Y-12620960D02*
X9725206Y-12611436D01*
X9906158Y-12430484D02*
X10039491Y-12430484D01*
X10039491Y-12430484D02*
X9953777Y-12630484D01*
X10210920Y-12430484D02*
X10115682Y-12430484D01*
X10115682Y-12430484D02*
X10106158Y-12525722D01*
X10106158Y-12525722D02*
X10115682Y-12516198D01*
X10115682Y-12516198D02*
X10134729Y-12506674D01*
X10134729Y-12506674D02*
X10182349Y-12506674D01*
X10182349Y-12506674D02*
X10201396Y-12516198D01*
X10201396Y-12516198D02*
X10210920Y-12525722D01*
X10210920Y-12525722D02*
X10220444Y-12544769D01*
X10220444Y-12544769D02*
X10220444Y-12592388D01*
X10220444Y-12592388D02*
X10210920Y-12611436D01*
X10210920Y-12611436D02*
X10201396Y-12620960D01*
X10201396Y-12620960D02*
X10182349Y-12630484D01*
X10182349Y-12630484D02*
X10134729Y-12630484D01*
X10134729Y-12630484D02*
X10115682Y-12620960D01*
X10115682Y-12620960D02*
X10106158Y-12611436D01*
X10296634Y-12430484D02*
X10296634Y-12468579D01*
X10372825Y-12430484D02*
X10372825Y-12468579D01*
X10668063Y-12706674D02*
X10658539Y-12697150D01*
X10658539Y-12697150D02*
X10639491Y-12668579D01*
X10639491Y-12668579D02*
X10629968Y-12649531D01*
X10629968Y-12649531D02*
X10620444Y-12620960D01*
X10620444Y-12620960D02*
X10610920Y-12573341D01*
X10610920Y-12573341D02*
X10610920Y-12535246D01*
X10610920Y-12535246D02*
X10620444Y-12487627D01*
X10620444Y-12487627D02*
X10629968Y-12459055D01*
X10629968Y-12459055D02*
X10639491Y-12440008D01*
X10639491Y-12440008D02*
X10658539Y-12411436D01*
X10658539Y-12411436D02*
X10668063Y-12401912D01*
X10734730Y-12449531D02*
X10744253Y-12440008D01*
X10744253Y-12440008D02*
X10763301Y-12430484D01*
X10763301Y-12430484D02*
X10810920Y-12430484D01*
X10810920Y-12430484D02*
X10829968Y-12440008D01*
X10829968Y-12440008D02*
X10839491Y-12449531D01*
X10839491Y-12449531D02*
X10849015Y-12468579D01*
X10849015Y-12468579D02*
X10849015Y-12487627D01*
X10849015Y-12487627D02*
X10839491Y-12516198D01*
X10839491Y-12516198D02*
X10725206Y-12630484D01*
X10725206Y-12630484D02*
X10849015Y-12630484D01*
X11087111Y-12630484D02*
X11087111Y-12430484D01*
X11172825Y-12630484D02*
X11172825Y-12525722D01*
X11172825Y-12525722D02*
X11163301Y-12506674D01*
X11163301Y-12506674D02*
X11144253Y-12497150D01*
X11144253Y-12497150D02*
X11115682Y-12497150D01*
X11115682Y-12497150D02*
X11096634Y-12506674D01*
X11096634Y-12506674D02*
X11087111Y-12516198D01*
X11296634Y-12630484D02*
X11277587Y-12620960D01*
X11277587Y-12620960D02*
X11268063Y-12611436D01*
X11268063Y-12611436D02*
X11258539Y-12592388D01*
X11258539Y-12592388D02*
X11258539Y-12535246D01*
X11258539Y-12535246D02*
X11268063Y-12516198D01*
X11268063Y-12516198D02*
X11277587Y-12506674D01*
X11277587Y-12506674D02*
X11296634Y-12497150D01*
X11296634Y-12497150D02*
X11325206Y-12497150D01*
X11325206Y-12497150D02*
X11344253Y-12506674D01*
X11344253Y-12506674D02*
X11353777Y-12516198D01*
X11353777Y-12516198D02*
X11363301Y-12535246D01*
X11363301Y-12535246D02*
X11363301Y-12592388D01*
X11363301Y-12592388D02*
X11353777Y-12611436D01*
X11353777Y-12611436D02*
X11344253Y-12620960D01*
X11344253Y-12620960D02*
X11325206Y-12630484D01*
X11325206Y-12630484D02*
X11296634Y-12630484D01*
X11477587Y-12630484D02*
X11458539Y-12620960D01*
X11458539Y-12620960D02*
X11449015Y-12601912D01*
X11449015Y-12601912D02*
X11449015Y-12430484D01*
X11629968Y-12620960D02*
X11610920Y-12630484D01*
X11610920Y-12630484D02*
X11572825Y-12630484D01*
X11572825Y-12630484D02*
X11553777Y-12620960D01*
X11553777Y-12620960D02*
X11544253Y-12601912D01*
X11544253Y-12601912D02*
X11544253Y-12525722D01*
X11544253Y-12525722D02*
X11553777Y-12506674D01*
X11553777Y-12506674D02*
X11572825Y-12497150D01*
X11572825Y-12497150D02*
X11610920Y-12497150D01*
X11610920Y-12497150D02*
X11629968Y-12506674D01*
X11629968Y-12506674D02*
X11639491Y-12525722D01*
X11639491Y-12525722D02*
X11639491Y-12544769D01*
X11639491Y-12544769D02*
X11544253Y-12563817D01*
X11715682Y-12620960D02*
X11734730Y-12630484D01*
X11734730Y-12630484D02*
X11772825Y-12630484D01*
X11772825Y-12630484D02*
X11791872Y-12620960D01*
X11791872Y-12620960D02*
X11801396Y-12601912D01*
X11801396Y-12601912D02*
X11801396Y-12592388D01*
X11801396Y-12592388D02*
X11791872Y-12573341D01*
X11791872Y-12573341D02*
X11772825Y-12563817D01*
X11772825Y-12563817D02*
X11744253Y-12563817D01*
X11744253Y-12563817D02*
X11725206Y-12554293D01*
X11725206Y-12554293D02*
X11715682Y-12535246D01*
X11715682Y-12535246D02*
X11715682Y-12525722D01*
X11715682Y-12525722D02*
X11725206Y-12506674D01*
X11725206Y-12506674D02*
X11744253Y-12497150D01*
X11744253Y-12497150D02*
X11772825Y-12497150D01*
X11772825Y-12497150D02*
X11791872Y-12506674D01*
X11868063Y-12706674D02*
X11877587Y-12697150D01*
X11877587Y-12697150D02*
X11896634Y-12668579D01*
X11896634Y-12668579D02*
X11906158Y-12649531D01*
X11906158Y-12649531D02*
X11915682Y-12620960D01*
X11915682Y-12620960D02*
X11925206Y-12573341D01*
X11925206Y-12573341D02*
X11925206Y-12535246D01*
X11925206Y-12535246D02*
X11915682Y-12487627D01*
X11915682Y-12487627D02*
X11906158Y-12459055D01*
X11906158Y-12459055D02*
X11896634Y-12440008D01*
X11896634Y-12440008D02*
X11877587Y-12411436D01*
X11877587Y-12411436D02*
X11868063Y-12401912D01*
M02*
