%TF.GenerationSoftware,KiCad,Pcbnew,8.0.4*%
%TF.CreationDate,2024-08-26T11:17:34-06:00*%
%TF.ProjectId,modular-power-board,6d6f6475-6c61-4722-9d70-6f7765722d62,Mk One*%
%TF.SameCoordinates,Original*%
%TF.FileFunction,Drillmap*%
%TF.FilePolarity,Positive*%
%FSLAX45Y45*%
G04 Gerber Fmt 4.5, Leading zero omitted, Abs format (unit mm)*
G04 Created by KiCad (PCBNEW 8.0.4) date 2024-08-26 11:17:34*
%MOMM*%
%LPD*%
G01*
G04 APERTURE LIST*
%ADD10C,0.100000*%
%ADD11C,0.200000*%
G04 APERTURE END LIST*
D10*
X7098000Y-9052000D02*
X21080000Y-9052000D01*
X21080000Y-11340000D01*
X7098000Y-11340000D01*
X7098000Y-9052000D01*
D11*
X7353777Y-11656484D02*
X7353777Y-11456484D01*
X7353777Y-11456484D02*
X7401396Y-11456484D01*
X7401396Y-11456484D02*
X7429967Y-11466008D01*
X7429967Y-11466008D02*
X7449015Y-11485055D01*
X7449015Y-11485055D02*
X7458539Y-11504103D01*
X7458539Y-11504103D02*
X7468062Y-11542198D01*
X7468062Y-11542198D02*
X7468062Y-11570769D01*
X7468062Y-11570769D02*
X7458539Y-11608865D01*
X7458539Y-11608865D02*
X7449015Y-11627912D01*
X7449015Y-11627912D02*
X7429967Y-11646960D01*
X7429967Y-11646960D02*
X7401396Y-11656484D01*
X7401396Y-11656484D02*
X7353777Y-11656484D01*
X7553777Y-11656484D02*
X7553777Y-11523150D01*
X7553777Y-11561246D02*
X7563301Y-11542198D01*
X7563301Y-11542198D02*
X7572824Y-11532674D01*
X7572824Y-11532674D02*
X7591872Y-11523150D01*
X7591872Y-11523150D02*
X7610920Y-11523150D01*
X7677586Y-11656484D02*
X7677586Y-11523150D01*
X7677586Y-11456484D02*
X7668062Y-11466008D01*
X7668062Y-11466008D02*
X7677586Y-11475531D01*
X7677586Y-11475531D02*
X7687110Y-11466008D01*
X7687110Y-11466008D02*
X7677586Y-11456484D01*
X7677586Y-11456484D02*
X7677586Y-11475531D01*
X7801396Y-11656484D02*
X7782348Y-11646960D01*
X7782348Y-11646960D02*
X7772824Y-11627912D01*
X7772824Y-11627912D02*
X7772824Y-11456484D01*
X7906158Y-11656484D02*
X7887110Y-11646960D01*
X7887110Y-11646960D02*
X7877586Y-11627912D01*
X7877586Y-11627912D02*
X7877586Y-11456484D01*
X8134729Y-11656484D02*
X8134729Y-11456484D01*
X8134729Y-11456484D02*
X8201396Y-11599341D01*
X8201396Y-11599341D02*
X8268062Y-11456484D01*
X8268062Y-11456484D02*
X8268062Y-11656484D01*
X8449015Y-11656484D02*
X8449015Y-11551722D01*
X8449015Y-11551722D02*
X8439491Y-11532674D01*
X8439491Y-11532674D02*
X8420444Y-11523150D01*
X8420444Y-11523150D02*
X8382348Y-11523150D01*
X8382348Y-11523150D02*
X8363301Y-11532674D01*
X8449015Y-11646960D02*
X8429967Y-11656484D01*
X8429967Y-11656484D02*
X8382348Y-11656484D01*
X8382348Y-11656484D02*
X8363301Y-11646960D01*
X8363301Y-11646960D02*
X8353777Y-11627912D01*
X8353777Y-11627912D02*
X8353777Y-11608865D01*
X8353777Y-11608865D02*
X8363301Y-11589817D01*
X8363301Y-11589817D02*
X8382348Y-11580293D01*
X8382348Y-11580293D02*
X8429967Y-11580293D01*
X8429967Y-11580293D02*
X8449015Y-11570769D01*
X8544253Y-11523150D02*
X8544253Y-11723150D01*
X8544253Y-11532674D02*
X8563301Y-11523150D01*
X8563301Y-11523150D02*
X8601396Y-11523150D01*
X8601396Y-11523150D02*
X8620444Y-11532674D01*
X8620444Y-11532674D02*
X8629967Y-11542198D01*
X8629967Y-11542198D02*
X8639491Y-11561246D01*
X8639491Y-11561246D02*
X8639491Y-11618388D01*
X8639491Y-11618388D02*
X8629967Y-11637436D01*
X8629967Y-11637436D02*
X8620444Y-11646960D01*
X8620444Y-11646960D02*
X8601396Y-11656484D01*
X8601396Y-11656484D02*
X8563301Y-11656484D01*
X8563301Y-11656484D02*
X8544253Y-11646960D01*
X8725205Y-11637436D02*
X8734729Y-11646960D01*
X8734729Y-11646960D02*
X8725205Y-11656484D01*
X8725205Y-11656484D02*
X8715682Y-11646960D01*
X8715682Y-11646960D02*
X8725205Y-11637436D01*
X8725205Y-11637436D02*
X8725205Y-11656484D01*
X8725205Y-11532674D02*
X8734729Y-11542198D01*
X8734729Y-11542198D02*
X8725205Y-11551722D01*
X8725205Y-11551722D02*
X8715682Y-11542198D01*
X8715682Y-11542198D02*
X8725205Y-11532674D01*
X8725205Y-11532674D02*
X8725205Y-11551722D01*
M02*
