%TF.GenerationSoftware,KiCad,Pcbnew,8.0.4*%
%TF.CreationDate,2024-08-26T11:17:31-06:00*%
%TF.ProjectId,modular-power-board,6d6f6475-6c61-4722-9d70-6f7765722d62,Mk One*%
%TF.SameCoordinates,Original*%
%TF.FileFunction,Copper,L2,Bot*%
%TF.FilePolarity,Positive*%
%FSLAX46Y46*%
G04 Gerber Fmt 4.6, Leading zero omitted, Abs format (unit mm)*
G04 Created by KiCad (PCBNEW 8.0.4) date 2024-08-26 11:17:31*
%MOMM*%
%LPD*%
G01*
G04 APERTURE LIST*
G04 Aperture macros list*
%AMRoundRect*
0 Rectangle with rounded corners*
0 $1 Rounding radius*
0 $2 $3 $4 $5 $6 $7 $8 $9 X,Y pos of 4 corners*
0 Add a 4 corners polygon primitive as box body*
4,1,4,$2,$3,$4,$5,$6,$7,$8,$9,$2,$3,0*
0 Add four circle primitives for the rounded corners*
1,1,$1+$1,$2,$3*
1,1,$1+$1,$4,$5*
1,1,$1+$1,$6,$7*
1,1,$1+$1,$8,$9*
0 Add four rect primitives between the rounded corners*
20,1,$1+$1,$2,$3,$4,$5,0*
20,1,$1+$1,$4,$5,$6,$7,0*
20,1,$1+$1,$6,$7,$8,$9,0*
20,1,$1+$1,$8,$9,$2,$3,0*%
G04 Aperture macros list end*
%ADD10C,0.150000*%
%TA.AperFunction,NonConductor*%
%ADD11C,0.150000*%
%TD*%
%TA.AperFunction,ComponentPad*%
%ADD12RoundRect,0.250000X0.600000X0.600000X-0.600000X0.600000X-0.600000X-0.600000X0.600000X-0.600000X0*%
%TD*%
%TA.AperFunction,ComponentPad*%
%ADD13C,1.700000*%
%TD*%
%TA.AperFunction,ComponentPad*%
%ADD14RoundRect,0.250000X-1.800000X1.330000X-1.800000X-1.330000X1.800000X-1.330000X1.800000X1.330000X0*%
%TD*%
%TA.AperFunction,ComponentPad*%
%ADD15O,4.100000X3.160000*%
%TD*%
%TA.AperFunction,ViaPad*%
%ADD16C,5.000000*%
%TD*%
G04 APERTURE END LIST*
D10*
D11*
X180646668Y-93187438D02*
X180646668Y-91187438D01*
X180646668Y-91187438D02*
X179980001Y-92616009D01*
X179980001Y-92616009D02*
X179313335Y-91187438D01*
X179313335Y-91187438D02*
X179313335Y-93187438D01*
X177503811Y-91854104D02*
X177503811Y-93187438D01*
X178360954Y-91854104D02*
X178360954Y-92901723D01*
X178360954Y-92901723D02*
X178265716Y-93092200D01*
X178265716Y-93092200D02*
X178075240Y-93187438D01*
X178075240Y-93187438D02*
X177789525Y-93187438D01*
X177789525Y-93187438D02*
X177599049Y-93092200D01*
X177599049Y-93092200D02*
X177503811Y-92996961D01*
X176265716Y-93187438D02*
X176456192Y-93092200D01*
X176456192Y-93092200D02*
X176551430Y-92901723D01*
X176551430Y-92901723D02*
X176551430Y-91187438D01*
X175789525Y-91854104D02*
X175027621Y-91854104D01*
X175503811Y-91187438D02*
X175503811Y-92901723D01*
X175503811Y-92901723D02*
X175408573Y-93092200D01*
X175408573Y-93092200D02*
X175218097Y-93187438D01*
X175218097Y-93187438D02*
X175027621Y-93187438D01*
X174360954Y-93187438D02*
X174360954Y-91854104D01*
X174360954Y-91187438D02*
X174456192Y-91282676D01*
X174456192Y-91282676D02*
X174360954Y-91377914D01*
X174360954Y-91377914D02*
X174265716Y-91282676D01*
X174265716Y-91282676D02*
X174360954Y-91187438D01*
X174360954Y-91187438D02*
X174360954Y-91377914D01*
X173408573Y-92425533D02*
X171884764Y-92425533D01*
X170932383Y-93187438D02*
X170932383Y-91187438D01*
X170932383Y-91187438D02*
X170170478Y-91187438D01*
X170170478Y-91187438D02*
X169980002Y-91282676D01*
X169980002Y-91282676D02*
X169884764Y-91377914D01*
X169884764Y-91377914D02*
X169789526Y-91568390D01*
X169789526Y-91568390D02*
X169789526Y-91854104D01*
X169789526Y-91854104D02*
X169884764Y-92044580D01*
X169884764Y-92044580D02*
X169980002Y-92139819D01*
X169980002Y-92139819D02*
X170170478Y-92235057D01*
X170170478Y-92235057D02*
X170932383Y-92235057D01*
X168932383Y-93187438D02*
X168932383Y-91187438D01*
X168075240Y-93187438D02*
X168075240Y-92139819D01*
X168075240Y-92139819D02*
X168170478Y-91949342D01*
X168170478Y-91949342D02*
X168360954Y-91854104D01*
X168360954Y-91854104D02*
X168646669Y-91854104D01*
X168646669Y-91854104D02*
X168837145Y-91949342D01*
X168837145Y-91949342D02*
X168932383Y-92044580D01*
X166265716Y-93187438D02*
X166265716Y-92139819D01*
X166265716Y-92139819D02*
X166360954Y-91949342D01*
X166360954Y-91949342D02*
X166551430Y-91854104D01*
X166551430Y-91854104D02*
X166932383Y-91854104D01*
X166932383Y-91854104D02*
X167122859Y-91949342D01*
X166265716Y-93092200D02*
X166456192Y-93187438D01*
X166456192Y-93187438D02*
X166932383Y-93187438D01*
X166932383Y-93187438D02*
X167122859Y-93092200D01*
X167122859Y-93092200D02*
X167218097Y-92901723D01*
X167218097Y-92901723D02*
X167218097Y-92711247D01*
X167218097Y-92711247D02*
X167122859Y-92520771D01*
X167122859Y-92520771D02*
X166932383Y-92425533D01*
X166932383Y-92425533D02*
X166456192Y-92425533D01*
X166456192Y-92425533D02*
X166265716Y-92330295D01*
X165408573Y-93092200D02*
X165218097Y-93187438D01*
X165218097Y-93187438D02*
X164837145Y-93187438D01*
X164837145Y-93187438D02*
X164646668Y-93092200D01*
X164646668Y-93092200D02*
X164551430Y-92901723D01*
X164551430Y-92901723D02*
X164551430Y-92806485D01*
X164551430Y-92806485D02*
X164646668Y-92616009D01*
X164646668Y-92616009D02*
X164837145Y-92520771D01*
X164837145Y-92520771D02*
X165122859Y-92520771D01*
X165122859Y-92520771D02*
X165313335Y-92425533D01*
X165313335Y-92425533D02*
X165408573Y-92235057D01*
X165408573Y-92235057D02*
X165408573Y-92139819D01*
X165408573Y-92139819D02*
X165313335Y-91949342D01*
X165313335Y-91949342D02*
X165122859Y-91854104D01*
X165122859Y-91854104D02*
X164837145Y-91854104D01*
X164837145Y-91854104D02*
X164646668Y-91949342D01*
X162932382Y-93092200D02*
X163122858Y-93187438D01*
X163122858Y-93187438D02*
X163503811Y-93187438D01*
X163503811Y-93187438D02*
X163694287Y-93092200D01*
X163694287Y-93092200D02*
X163789525Y-92901723D01*
X163789525Y-92901723D02*
X163789525Y-92139819D01*
X163789525Y-92139819D02*
X163694287Y-91949342D01*
X163694287Y-91949342D02*
X163503811Y-91854104D01*
X163503811Y-91854104D02*
X163122858Y-91854104D01*
X163122858Y-91854104D02*
X162932382Y-91949342D01*
X162932382Y-91949342D02*
X162837144Y-92139819D01*
X162837144Y-92139819D02*
X162837144Y-92330295D01*
X162837144Y-92330295D02*
X163789525Y-92520771D01*
X159789524Y-92139819D02*
X159503810Y-92235057D01*
X159503810Y-92235057D02*
X159408572Y-92330295D01*
X159408572Y-92330295D02*
X159313334Y-92520771D01*
X159313334Y-92520771D02*
X159313334Y-92806485D01*
X159313334Y-92806485D02*
X159408572Y-92996961D01*
X159408572Y-92996961D02*
X159503810Y-93092200D01*
X159503810Y-93092200D02*
X159694286Y-93187438D01*
X159694286Y-93187438D02*
X160456191Y-93187438D01*
X160456191Y-93187438D02*
X160456191Y-91187438D01*
X160456191Y-91187438D02*
X159789524Y-91187438D01*
X159789524Y-91187438D02*
X159599048Y-91282676D01*
X159599048Y-91282676D02*
X159503810Y-91377914D01*
X159503810Y-91377914D02*
X159408572Y-91568390D01*
X159408572Y-91568390D02*
X159408572Y-91758866D01*
X159408572Y-91758866D02*
X159503810Y-91949342D01*
X159503810Y-91949342D02*
X159599048Y-92044580D01*
X159599048Y-92044580D02*
X159789524Y-92139819D01*
X159789524Y-92139819D02*
X160456191Y-92139819D01*
X158456191Y-93187438D02*
X158456191Y-91854104D01*
X158456191Y-92235057D02*
X158360953Y-92044580D01*
X158360953Y-92044580D02*
X158265715Y-91949342D01*
X158265715Y-91949342D02*
X158075239Y-91854104D01*
X158075239Y-91854104D02*
X157884762Y-91854104D01*
X156932382Y-93187438D02*
X157122858Y-93092200D01*
X157122858Y-93092200D02*
X157218096Y-92996961D01*
X157218096Y-92996961D02*
X157313334Y-92806485D01*
X157313334Y-92806485D02*
X157313334Y-92235057D01*
X157313334Y-92235057D02*
X157218096Y-92044580D01*
X157218096Y-92044580D02*
X157122858Y-91949342D01*
X157122858Y-91949342D02*
X156932382Y-91854104D01*
X156932382Y-91854104D02*
X156646667Y-91854104D01*
X156646667Y-91854104D02*
X156456191Y-91949342D01*
X156456191Y-91949342D02*
X156360953Y-92044580D01*
X156360953Y-92044580D02*
X156265715Y-92235057D01*
X156265715Y-92235057D02*
X156265715Y-92806485D01*
X156265715Y-92806485D02*
X156360953Y-92996961D01*
X156360953Y-92996961D02*
X156456191Y-93092200D01*
X156456191Y-93092200D02*
X156646667Y-93187438D01*
X156646667Y-93187438D02*
X156932382Y-93187438D01*
X155694286Y-91854104D02*
X154932382Y-91854104D01*
X155408572Y-91187438D02*
X155408572Y-92901723D01*
X155408572Y-92901723D02*
X155313334Y-93092200D01*
X155313334Y-93092200D02*
X155122858Y-93187438D01*
X155122858Y-93187438D02*
X154932382Y-93187438D01*
X154265715Y-93187438D02*
X154265715Y-91187438D01*
X153408572Y-93187438D02*
X153408572Y-92139819D01*
X153408572Y-92139819D02*
X153503810Y-91949342D01*
X153503810Y-91949342D02*
X153694286Y-91854104D01*
X153694286Y-91854104D02*
X153980001Y-91854104D01*
X153980001Y-91854104D02*
X154170477Y-91949342D01*
X154170477Y-91949342D02*
X154265715Y-92044580D01*
X151694286Y-93092200D02*
X151884762Y-93187438D01*
X151884762Y-93187438D02*
X152265715Y-93187438D01*
X152265715Y-93187438D02*
X152456191Y-93092200D01*
X152456191Y-93092200D02*
X152551429Y-92901723D01*
X152551429Y-92901723D02*
X152551429Y-92139819D01*
X152551429Y-92139819D02*
X152456191Y-91949342D01*
X152456191Y-91949342D02*
X152265715Y-91854104D01*
X152265715Y-91854104D02*
X151884762Y-91854104D01*
X151884762Y-91854104D02*
X151694286Y-91949342D01*
X151694286Y-91949342D02*
X151599048Y-92139819D01*
X151599048Y-92139819D02*
X151599048Y-92330295D01*
X151599048Y-92330295D02*
X152551429Y-92520771D01*
X150456191Y-93187438D02*
X150646667Y-93092200D01*
X150646667Y-93092200D02*
X150741905Y-92901723D01*
X150741905Y-92901723D02*
X150741905Y-91187438D01*
X148170476Y-92425533D02*
X146646667Y-92425533D01*
X144170476Y-92139819D02*
X143503809Y-92139819D01*
X143218095Y-93187438D02*
X144170476Y-93187438D01*
X144170476Y-93187438D02*
X144170476Y-91187438D01*
X144170476Y-91187438D02*
X143218095Y-91187438D01*
X141503809Y-91854104D02*
X141503809Y-93187438D01*
X142360952Y-91854104D02*
X142360952Y-92901723D01*
X142360952Y-92901723D02*
X142265714Y-93092200D01*
X142265714Y-93092200D02*
X142075238Y-93187438D01*
X142075238Y-93187438D02*
X141789523Y-93187438D01*
X141789523Y-93187438D02*
X141599047Y-93092200D01*
X141599047Y-93092200D02*
X141503809Y-92996961D01*
X140551428Y-93187438D02*
X140551428Y-91854104D01*
X140551428Y-92235057D02*
X140456190Y-92044580D01*
X140456190Y-92044580D02*
X140360952Y-91949342D01*
X140360952Y-91949342D02*
X140170476Y-91854104D01*
X140170476Y-91854104D02*
X139979999Y-91854104D01*
X139027619Y-93187438D02*
X139218095Y-93092200D01*
X139218095Y-93092200D02*
X139313333Y-92996961D01*
X139313333Y-92996961D02*
X139408571Y-92806485D01*
X139408571Y-92806485D02*
X139408571Y-92235057D01*
X139408571Y-92235057D02*
X139313333Y-92044580D01*
X139313333Y-92044580D02*
X139218095Y-91949342D01*
X139218095Y-91949342D02*
X139027619Y-91854104D01*
X139027619Y-91854104D02*
X138741904Y-91854104D01*
X138741904Y-91854104D02*
X138551428Y-91949342D01*
X138551428Y-91949342D02*
X138456190Y-92044580D01*
X138456190Y-92044580D02*
X138360952Y-92235057D01*
X138360952Y-92235057D02*
X138360952Y-92806485D01*
X138360952Y-92806485D02*
X138456190Y-92996961D01*
X138456190Y-92996961D02*
X138551428Y-93092200D01*
X138551428Y-93092200D02*
X138741904Y-93187438D01*
X138741904Y-93187438D02*
X139027619Y-93187438D01*
X135979999Y-93187438D02*
X135979999Y-91187438D01*
X135979999Y-91187438D02*
X135218094Y-91187438D01*
X135218094Y-91187438D02*
X135027618Y-91282676D01*
X135027618Y-91282676D02*
X134932380Y-91377914D01*
X134932380Y-91377914D02*
X134837142Y-91568390D01*
X134837142Y-91568390D02*
X134837142Y-91854104D01*
X134837142Y-91854104D02*
X134932380Y-92044580D01*
X134932380Y-92044580D02*
X135027618Y-92139819D01*
X135027618Y-92139819D02*
X135218094Y-92235057D01*
X135218094Y-92235057D02*
X135979999Y-92235057D01*
X133694285Y-93187438D02*
X133884761Y-93092200D01*
X133884761Y-93092200D02*
X133979999Y-92996961D01*
X133979999Y-92996961D02*
X134075237Y-92806485D01*
X134075237Y-92806485D02*
X134075237Y-92235057D01*
X134075237Y-92235057D02*
X133979999Y-92044580D01*
X133979999Y-92044580D02*
X133884761Y-91949342D01*
X133884761Y-91949342D02*
X133694285Y-91854104D01*
X133694285Y-91854104D02*
X133408570Y-91854104D01*
X133408570Y-91854104D02*
X133218094Y-91949342D01*
X133218094Y-91949342D02*
X133122856Y-92044580D01*
X133122856Y-92044580D02*
X133027618Y-92235057D01*
X133027618Y-92235057D02*
X133027618Y-92806485D01*
X133027618Y-92806485D02*
X133122856Y-92996961D01*
X133122856Y-92996961D02*
X133218094Y-93092200D01*
X133218094Y-93092200D02*
X133408570Y-93187438D01*
X133408570Y-93187438D02*
X133694285Y-93187438D01*
X132360951Y-91854104D02*
X131979999Y-93187438D01*
X131979999Y-93187438D02*
X131599046Y-92235057D01*
X131599046Y-92235057D02*
X131218094Y-93187438D01*
X131218094Y-93187438D02*
X130837142Y-91854104D01*
X129313332Y-93092200D02*
X129503808Y-93187438D01*
X129503808Y-93187438D02*
X129884761Y-93187438D01*
X129884761Y-93187438D02*
X130075237Y-93092200D01*
X130075237Y-93092200D02*
X130170475Y-92901723D01*
X130170475Y-92901723D02*
X130170475Y-92139819D01*
X130170475Y-92139819D02*
X130075237Y-91949342D01*
X130075237Y-91949342D02*
X129884761Y-91854104D01*
X129884761Y-91854104D02*
X129503808Y-91854104D01*
X129503808Y-91854104D02*
X129313332Y-91949342D01*
X129313332Y-91949342D02*
X129218094Y-92139819D01*
X129218094Y-92139819D02*
X129218094Y-92330295D01*
X129218094Y-92330295D02*
X130170475Y-92520771D01*
X128360951Y-93187438D02*
X128360951Y-91854104D01*
X128360951Y-92235057D02*
X128265713Y-92044580D01*
X128265713Y-92044580D02*
X128170475Y-91949342D01*
X128170475Y-91949342D02*
X127979999Y-91854104D01*
X127979999Y-91854104D02*
X127789522Y-91854104D01*
X124932379Y-92139819D02*
X124646665Y-92235057D01*
X124646665Y-92235057D02*
X124551427Y-92330295D01*
X124551427Y-92330295D02*
X124456189Y-92520771D01*
X124456189Y-92520771D02*
X124456189Y-92806485D01*
X124456189Y-92806485D02*
X124551427Y-92996961D01*
X124551427Y-92996961D02*
X124646665Y-93092200D01*
X124646665Y-93092200D02*
X124837141Y-93187438D01*
X124837141Y-93187438D02*
X125599046Y-93187438D01*
X125599046Y-93187438D02*
X125599046Y-91187438D01*
X125599046Y-91187438D02*
X124932379Y-91187438D01*
X124932379Y-91187438D02*
X124741903Y-91282676D01*
X124741903Y-91282676D02*
X124646665Y-91377914D01*
X124646665Y-91377914D02*
X124551427Y-91568390D01*
X124551427Y-91568390D02*
X124551427Y-91758866D01*
X124551427Y-91758866D02*
X124646665Y-91949342D01*
X124646665Y-91949342D02*
X124741903Y-92044580D01*
X124741903Y-92044580D02*
X124932379Y-92139819D01*
X124932379Y-92139819D02*
X125599046Y-92139819D01*
X123313332Y-93187438D02*
X123503808Y-93092200D01*
X123503808Y-93092200D02*
X123599046Y-92996961D01*
X123599046Y-92996961D02*
X123694284Y-92806485D01*
X123694284Y-92806485D02*
X123694284Y-92235057D01*
X123694284Y-92235057D02*
X123599046Y-92044580D01*
X123599046Y-92044580D02*
X123503808Y-91949342D01*
X123503808Y-91949342D02*
X123313332Y-91854104D01*
X123313332Y-91854104D02*
X123027617Y-91854104D01*
X123027617Y-91854104D02*
X122837141Y-91949342D01*
X122837141Y-91949342D02*
X122741903Y-92044580D01*
X122741903Y-92044580D02*
X122646665Y-92235057D01*
X122646665Y-92235057D02*
X122646665Y-92806485D01*
X122646665Y-92806485D02*
X122741903Y-92996961D01*
X122741903Y-92996961D02*
X122837141Y-93092200D01*
X122837141Y-93092200D02*
X123027617Y-93187438D01*
X123027617Y-93187438D02*
X123313332Y-93187438D01*
X120932379Y-93187438D02*
X120932379Y-92139819D01*
X120932379Y-92139819D02*
X121027617Y-91949342D01*
X121027617Y-91949342D02*
X121218093Y-91854104D01*
X121218093Y-91854104D02*
X121599046Y-91854104D01*
X121599046Y-91854104D02*
X121789522Y-91949342D01*
X120932379Y-93092200D02*
X121122855Y-93187438D01*
X121122855Y-93187438D02*
X121599046Y-93187438D01*
X121599046Y-93187438D02*
X121789522Y-93092200D01*
X121789522Y-93092200D02*
X121884760Y-92901723D01*
X121884760Y-92901723D02*
X121884760Y-92711247D01*
X121884760Y-92711247D02*
X121789522Y-92520771D01*
X121789522Y-92520771D02*
X121599046Y-92425533D01*
X121599046Y-92425533D02*
X121122855Y-92425533D01*
X121122855Y-92425533D02*
X120932379Y-92330295D01*
X119979998Y-93187438D02*
X119979998Y-91854104D01*
X119979998Y-92235057D02*
X119884760Y-92044580D01*
X119884760Y-92044580D02*
X119789522Y-91949342D01*
X119789522Y-91949342D02*
X119599046Y-91854104D01*
X119599046Y-91854104D02*
X119408569Y-91854104D01*
X117884760Y-93187438D02*
X117884760Y-91187438D01*
X117884760Y-93092200D02*
X118075236Y-93187438D01*
X118075236Y-93187438D02*
X118456189Y-93187438D01*
X118456189Y-93187438D02*
X118646665Y-93092200D01*
X118646665Y-93092200D02*
X118741903Y-92996961D01*
X118741903Y-92996961D02*
X118837141Y-92806485D01*
X118837141Y-92806485D02*
X118837141Y-92235057D01*
X118837141Y-92235057D02*
X118741903Y-92044580D01*
X118741903Y-92044580D02*
X118646665Y-91949342D01*
X118646665Y-91949342D02*
X118456189Y-91854104D01*
X118456189Y-91854104D02*
X118075236Y-91854104D01*
X118075236Y-91854104D02*
X117884760Y-91949342D01*
X115408569Y-92425533D02*
X113884760Y-92425533D01*
X111408569Y-93187438D02*
X111408569Y-91187438D01*
X111408569Y-91187438D02*
X110741902Y-92616009D01*
X110741902Y-92616009D02*
X110075236Y-91187438D01*
X110075236Y-91187438D02*
X110075236Y-93187438D01*
X109122855Y-93187438D02*
X109122855Y-91187438D01*
X108932379Y-92425533D02*
X108360950Y-93187438D01*
X108360950Y-91854104D02*
X109122855Y-92616009D01*
X105599045Y-91187438D02*
X105218092Y-91187438D01*
X105218092Y-91187438D02*
X105027616Y-91282676D01*
X105027616Y-91282676D02*
X104837140Y-91473152D01*
X104837140Y-91473152D02*
X104741902Y-91854104D01*
X104741902Y-91854104D02*
X104741902Y-92520771D01*
X104741902Y-92520771D02*
X104837140Y-92901723D01*
X104837140Y-92901723D02*
X105027616Y-93092200D01*
X105027616Y-93092200D02*
X105218092Y-93187438D01*
X105218092Y-93187438D02*
X105599045Y-93187438D01*
X105599045Y-93187438D02*
X105789521Y-93092200D01*
X105789521Y-93092200D02*
X105979997Y-92901723D01*
X105979997Y-92901723D02*
X106075235Y-92520771D01*
X106075235Y-92520771D02*
X106075235Y-91854104D01*
X106075235Y-91854104D02*
X105979997Y-91473152D01*
X105979997Y-91473152D02*
X105789521Y-91282676D01*
X105789521Y-91282676D02*
X105599045Y-91187438D01*
X103884759Y-91854104D02*
X103884759Y-93187438D01*
X103884759Y-92044580D02*
X103789521Y-91949342D01*
X103789521Y-91949342D02*
X103599045Y-91854104D01*
X103599045Y-91854104D02*
X103313330Y-91854104D01*
X103313330Y-91854104D02*
X103122854Y-91949342D01*
X103122854Y-91949342D02*
X103027616Y-92139819D01*
X103027616Y-92139819D02*
X103027616Y-93187438D01*
X101313330Y-93092200D02*
X101503806Y-93187438D01*
X101503806Y-93187438D02*
X101884759Y-93187438D01*
X101884759Y-93187438D02*
X102075235Y-93092200D01*
X102075235Y-93092200D02*
X102170473Y-92901723D01*
X102170473Y-92901723D02*
X102170473Y-92139819D01*
X102170473Y-92139819D02*
X102075235Y-91949342D01*
X102075235Y-91949342D02*
X101884759Y-91854104D01*
X101884759Y-91854104D02*
X101503806Y-91854104D01*
X101503806Y-91854104D02*
X101313330Y-91949342D01*
X101313330Y-91949342D02*
X101218092Y-92139819D01*
X101218092Y-92139819D02*
X101218092Y-92330295D01*
X101218092Y-92330295D02*
X102170473Y-92520771D01*
D10*
D11*
X209479999Y-92494160D02*
X208718095Y-92494160D01*
X209194285Y-93827494D02*
X209194285Y-92113208D01*
X209194285Y-92113208D02*
X209099047Y-91922732D01*
X209099047Y-91922732D02*
X208908571Y-91827494D01*
X208908571Y-91827494D02*
X208718095Y-91827494D01*
X208051428Y-93827494D02*
X208051428Y-91827494D01*
X208051428Y-92589398D02*
X207860952Y-92494160D01*
X207860952Y-92494160D02*
X207479999Y-92494160D01*
X207479999Y-92494160D02*
X207289523Y-92589398D01*
X207289523Y-92589398D02*
X207194285Y-92684636D01*
X207194285Y-92684636D02*
X207099047Y-92875113D01*
X207099047Y-92875113D02*
X207099047Y-93446541D01*
X207099047Y-93446541D02*
X207194285Y-93637017D01*
X207194285Y-93637017D02*
X207289523Y-93732256D01*
X207289523Y-93732256D02*
X207479999Y-93827494D01*
X207479999Y-93827494D02*
X207860952Y-93827494D01*
X207860952Y-93827494D02*
X208051428Y-93732256D01*
X205384761Y-92494160D02*
X205384761Y-93827494D01*
X206241904Y-92494160D02*
X206241904Y-93541779D01*
X206241904Y-93541779D02*
X206146666Y-93732256D01*
X206146666Y-93732256D02*
X205956190Y-93827494D01*
X205956190Y-93827494D02*
X205670475Y-93827494D01*
X205670475Y-93827494D02*
X205479999Y-93732256D01*
X205479999Y-93732256D02*
X205384761Y-93637017D01*
X204527618Y-93732256D02*
X204337142Y-93827494D01*
X204337142Y-93827494D02*
X203956190Y-93827494D01*
X203956190Y-93827494D02*
X203765713Y-93732256D01*
X203765713Y-93732256D02*
X203670475Y-93541779D01*
X203670475Y-93541779D02*
X203670475Y-93446541D01*
X203670475Y-93446541D02*
X203765713Y-93256065D01*
X203765713Y-93256065D02*
X203956190Y-93160827D01*
X203956190Y-93160827D02*
X204241904Y-93160827D01*
X204241904Y-93160827D02*
X204432380Y-93065589D01*
X204432380Y-93065589D02*
X204527618Y-92875113D01*
X204527618Y-92875113D02*
X204527618Y-92779875D01*
X204527618Y-92779875D02*
X204432380Y-92589398D01*
X204432380Y-92589398D02*
X204241904Y-92494160D01*
X204241904Y-92494160D02*
X203956190Y-92494160D01*
X203956190Y-92494160D02*
X203765713Y-92589398D01*
X209908571Y-95237858D02*
X209813333Y-95142620D01*
X209813333Y-95142620D02*
X209622857Y-95047382D01*
X209622857Y-95047382D02*
X209146666Y-95047382D01*
X209146666Y-95047382D02*
X208956190Y-95142620D01*
X208956190Y-95142620D02*
X208860952Y-95237858D01*
X208860952Y-95237858D02*
X208765714Y-95428334D01*
X208765714Y-95428334D02*
X208765714Y-95618810D01*
X208765714Y-95618810D02*
X208860952Y-95904524D01*
X208860952Y-95904524D02*
X210003809Y-97047382D01*
X210003809Y-97047382D02*
X208765714Y-97047382D01*
X207527619Y-95047382D02*
X207337142Y-95047382D01*
X207337142Y-95047382D02*
X207146666Y-95142620D01*
X207146666Y-95142620D02*
X207051428Y-95237858D01*
X207051428Y-95237858D02*
X206956190Y-95428334D01*
X206956190Y-95428334D02*
X206860952Y-95809286D01*
X206860952Y-95809286D02*
X206860952Y-96285477D01*
X206860952Y-96285477D02*
X206956190Y-96666429D01*
X206956190Y-96666429D02*
X207051428Y-96856905D01*
X207051428Y-96856905D02*
X207146666Y-96952144D01*
X207146666Y-96952144D02*
X207337142Y-97047382D01*
X207337142Y-97047382D02*
X207527619Y-97047382D01*
X207527619Y-97047382D02*
X207718095Y-96952144D01*
X207718095Y-96952144D02*
X207813333Y-96856905D01*
X207813333Y-96856905D02*
X207908571Y-96666429D01*
X207908571Y-96666429D02*
X208003809Y-96285477D01*
X208003809Y-96285477D02*
X208003809Y-95809286D01*
X208003809Y-95809286D02*
X207908571Y-95428334D01*
X207908571Y-95428334D02*
X207813333Y-95237858D01*
X207813333Y-95237858D02*
X207718095Y-95142620D01*
X207718095Y-95142620D02*
X207527619Y-95047382D01*
X206099047Y-95237858D02*
X206003809Y-95142620D01*
X206003809Y-95142620D02*
X205813333Y-95047382D01*
X205813333Y-95047382D02*
X205337142Y-95047382D01*
X205337142Y-95047382D02*
X205146666Y-95142620D01*
X205146666Y-95142620D02*
X205051428Y-95237858D01*
X205051428Y-95237858D02*
X204956190Y-95428334D01*
X204956190Y-95428334D02*
X204956190Y-95618810D01*
X204956190Y-95618810D02*
X205051428Y-95904524D01*
X205051428Y-95904524D02*
X206194285Y-97047382D01*
X206194285Y-97047382D02*
X204956190Y-97047382D01*
X203241904Y-95714048D02*
X203241904Y-97047382D01*
X203718095Y-94952144D02*
X204194285Y-96380715D01*
X204194285Y-96380715D02*
X202956190Y-96380715D01*
D12*
%TO.P,REF\u002A\u002A,1*%
%TO.N,-12V*%
X198600000Y-107560000D03*
D13*
%TO.P,REF\u002A\u002A,2*%
X196060000Y-107560000D03*
%TO.P,REF\u002A\u002A,3*%
%TO.N,GND*%
X198600000Y-105020000D03*
%TO.P,REF\u002A\u002A,4*%
X196060000Y-105020000D03*
%TO.P,REF\u002A\u002A,5*%
X198600000Y-102480000D03*
%TO.P,REF\u002A\u002A,6*%
X196060000Y-102480000D03*
%TO.P,REF\u002A\u002A,7*%
X198600000Y-99940000D03*
%TO.P,REF\u002A\u002A,8*%
X196060000Y-99940000D03*
%TO.P,REF\u002A\u002A,9*%
%TO.N,+12V*%
X198600000Y-97400000D03*
%TO.P,REF\u002A\u002A,10*%
X196060000Y-97400000D03*
%TD*%
D12*
%TO.P,REF\u002A\u002A,1*%
%TO.N,-12V*%
X179600000Y-107560000D03*
D13*
%TO.P,REF\u002A\u002A,2*%
X177060000Y-107560000D03*
%TO.P,REF\u002A\u002A,3*%
%TO.N,GND*%
X179600000Y-105020000D03*
%TO.P,REF\u002A\u002A,4*%
X177060000Y-105020000D03*
%TO.P,REF\u002A\u002A,5*%
X179600000Y-102480000D03*
%TO.P,REF\u002A\u002A,6*%
X177060000Y-102480000D03*
%TO.P,REF\u002A\u002A,7*%
X179600000Y-99940000D03*
%TO.P,REF\u002A\u002A,8*%
X177060000Y-99940000D03*
%TO.P,REF\u002A\u002A,9*%
%TO.N,+12V*%
X179600000Y-97400000D03*
%TO.P,REF\u002A\u002A,10*%
X177060000Y-97400000D03*
%TD*%
D12*
%TO.P,REF\u002A\u002A,1*%
%TO.N,-12V*%
X166600000Y-107560000D03*
D13*
%TO.P,REF\u002A\u002A,2*%
X164060000Y-107560000D03*
%TO.P,REF\u002A\u002A,3*%
%TO.N,GND*%
X166600000Y-105020000D03*
%TO.P,REF\u002A\u002A,4*%
X164060000Y-105020000D03*
%TO.P,REF\u002A\u002A,5*%
X166600000Y-102480000D03*
%TO.P,REF\u002A\u002A,6*%
X164060000Y-102480000D03*
%TO.P,REF\u002A\u002A,7*%
X166600000Y-99940000D03*
%TO.P,REF\u002A\u002A,8*%
X164060000Y-99940000D03*
%TO.P,REF\u002A\u002A,9*%
%TO.N,+12V*%
X166600000Y-97400000D03*
%TO.P,REF\u002A\u002A,10*%
X164060000Y-97400000D03*
%TD*%
D12*
%TO.P,REF\u002A\u002A,1*%
%TO.N,-12V*%
X148400000Y-107560000D03*
D13*
%TO.P,REF\u002A\u002A,2*%
X145860000Y-107560000D03*
%TO.P,REF\u002A\u002A,3*%
%TO.N,GND*%
X148400000Y-105020000D03*
%TO.P,REF\u002A\u002A,4*%
X145860000Y-105020000D03*
%TO.P,REF\u002A\u002A,5*%
X148400000Y-102480000D03*
%TO.P,REF\u002A\u002A,6*%
X145860000Y-102480000D03*
%TO.P,REF\u002A\u002A,7*%
X148400000Y-99940000D03*
%TO.P,REF\u002A\u002A,8*%
X145860000Y-99940000D03*
%TO.P,REF\u002A\u002A,9*%
%TO.N,+12V*%
X148400000Y-97400000D03*
%TO.P,REF\u002A\u002A,10*%
X145860000Y-97400000D03*
%TD*%
D12*
%TO.P,REF\u002A\u002A,1*%
%TO.N,-12V*%
X135400000Y-107560000D03*
D13*
%TO.P,REF\u002A\u002A,2*%
X132860000Y-107560000D03*
%TO.P,REF\u002A\u002A,3*%
%TO.N,GND*%
X135400000Y-105020000D03*
%TO.P,REF\u002A\u002A,4*%
X132860000Y-105020000D03*
%TO.P,REF\u002A\u002A,5*%
X135400000Y-102480000D03*
%TO.P,REF\u002A\u002A,6*%
X132860000Y-102480000D03*
%TO.P,REF\u002A\u002A,7*%
X135400000Y-99940000D03*
%TO.P,REF\u002A\u002A,8*%
X132860000Y-99940000D03*
%TO.P,REF\u002A\u002A,9*%
%TO.N,+12V*%
X135400000Y-97400000D03*
%TO.P,REF\u002A\u002A,10*%
X132860000Y-97400000D03*
%TD*%
%TO.P,REF\u002A\u002A,10*%
%TO.N,+12V*%
X114060000Y-97400000D03*
%TO.P,REF\u002A\u002A,9*%
X116600000Y-97400000D03*
%TO.P,REF\u002A\u002A,8*%
%TO.N,GND*%
X114060000Y-99940000D03*
%TO.P,REF\u002A\u002A,7*%
X116600000Y-99940000D03*
%TO.P,REF\u002A\u002A,6*%
X114060000Y-102480000D03*
%TO.P,REF\u002A\u002A,5*%
X116600000Y-102480000D03*
%TO.P,REF\u002A\u002A,4*%
X114060000Y-105020000D03*
%TO.P,REF\u002A\u002A,3*%
X116600000Y-105020000D03*
%TO.P,REF\u002A\u002A,2*%
%TO.N,-12V*%
X114060000Y-107560000D03*
D12*
%TO.P,REF\u002A\u002A,1*%
X116600000Y-107560000D03*
%TD*%
%TO.P,REF\u002A\u002A,1*%
%TO.N,-12V*%
X103600000Y-107600000D03*
D13*
%TO.P,REF\u002A\u002A,2*%
X101060000Y-107600000D03*
%TO.P,REF\u002A\u002A,3*%
%TO.N,GND*%
X103600000Y-105060000D03*
%TO.P,REF\u002A\u002A,4*%
X101060000Y-105060000D03*
%TO.P,REF\u002A\u002A,5*%
X103600000Y-102520000D03*
%TO.P,REF\u002A\u002A,6*%
X101060000Y-102520000D03*
%TO.P,REF\u002A\u002A,7*%
X103600000Y-99980000D03*
%TO.P,REF\u002A\u002A,8*%
X101060000Y-99980000D03*
%TO.P,REF\u002A\u002A,9*%
%TO.N,+12V*%
X103600000Y-97440000D03*
%TO.P,REF\u002A\u002A,10*%
X101060000Y-97440000D03*
%TD*%
D14*
%TO.P,REF\u002A\u002A,1*%
%TO.N,+12V*%
X83400000Y-96520000D03*
D15*
%TO.P,REF\u002A\u002A,2*%
%TO.N,GND*%
X83400000Y-100480000D03*
%TO.P,REF\u002A\u002A,3*%
X83400000Y-104440000D03*
%TO.P,REF\u002A\u002A,4*%
%TO.N,-12V*%
X83400000Y-108400000D03*
%TD*%
D16*
%TO.N,GND*%
X74980000Y-102520000D03*
X206980000Y-102520000D03*
%TD*%
%TA.AperFunction,Conductor*%
%TO.N,+12V*%
G36*
X201672121Y-94790002D02*
G01*
X201718614Y-94843658D01*
X201730000Y-94896000D01*
X201730000Y-97894000D01*
X201709998Y-97962121D01*
X201656342Y-98008614D01*
X201604000Y-98020000D01*
X78106000Y-98020000D01*
X78037879Y-97999998D01*
X77991386Y-97946342D01*
X77980000Y-97894000D01*
X77980000Y-94896000D01*
X78000002Y-94827879D01*
X78053658Y-94781386D01*
X78106000Y-94770000D01*
X201604000Y-94770000D01*
X201672121Y-94790002D01*
G37*
%TD.AperFunction*%
%TD*%
%TA.AperFunction,Conductor*%
%TO.N,GND*%
G36*
X210422121Y-99040002D02*
G01*
X210468614Y-99093658D01*
X210480000Y-99146000D01*
X210480000Y-105894000D01*
X210459998Y-105962121D01*
X210406342Y-106008614D01*
X210354000Y-106020000D01*
X71606000Y-106020000D01*
X71537879Y-105999998D01*
X71491386Y-105946342D01*
X71480000Y-105894000D01*
X71480000Y-99146000D01*
X71500002Y-99077879D01*
X71553658Y-99031386D01*
X71606000Y-99020000D01*
X210354000Y-99020000D01*
X210422121Y-99040002D01*
G37*
%TD.AperFunction*%
%TD*%
%TA.AperFunction,Conductor*%
%TO.N,-12V*%
G36*
X201672121Y-107040002D02*
G01*
X201718614Y-107093658D01*
X201730000Y-107146000D01*
X201730000Y-110144000D01*
X201709998Y-110212121D01*
X201656342Y-110258614D01*
X201604000Y-110270000D01*
X78106000Y-110270000D01*
X78037879Y-110249998D01*
X77991386Y-110196342D01*
X77980000Y-110144000D01*
X77980000Y-107146000D01*
X78000002Y-107077879D01*
X78053658Y-107031386D01*
X78106000Y-107020000D01*
X201604000Y-107020000D01*
X201672121Y-107040002D01*
G37*
%TD.AperFunction*%
%TD*%
M02*
