%TF.GenerationSoftware,KiCad,Pcbnew,8.0.4*%
%TF.CreationDate,2024-08-26T11:17:31-06:00*%
%TF.ProjectId,modular-power-board,6d6f6475-6c61-4722-9d70-6f7765722d62,Mk One*%
%TF.SameCoordinates,Original*%
%TF.FileFunction,Legend,Top*%
%TF.FilePolarity,Positive*%
%FSLAX46Y46*%
G04 Gerber Fmt 4.6, Leading zero omitted, Abs format (unit mm)*
G04 Created by KiCad (PCBNEW 8.0.4) date 2024-08-26 11:17:31*
%MOMM*%
%LPD*%
G01*
G04 APERTURE LIST*
%ADD10C,0.150000*%
%ADD11C,0.300000*%
%ADD12C,0.120000*%
G04 APERTURE END LIST*
D10*
X71774874Y-109507494D02*
X71774874Y-107507494D01*
X71774874Y-107507494D02*
X72441541Y-108936065D01*
X72441541Y-108936065D02*
X73108207Y-107507494D01*
X73108207Y-107507494D02*
X73108207Y-109507494D01*
X74917731Y-108174160D02*
X74917731Y-109507494D01*
X74060588Y-108174160D02*
X74060588Y-109221779D01*
X74060588Y-109221779D02*
X74155826Y-109412256D01*
X74155826Y-109412256D02*
X74346302Y-109507494D01*
X74346302Y-109507494D02*
X74632017Y-109507494D01*
X74632017Y-109507494D02*
X74822493Y-109412256D01*
X74822493Y-109412256D02*
X74917731Y-109317017D01*
X76155826Y-109507494D02*
X75965350Y-109412256D01*
X75965350Y-109412256D02*
X75870112Y-109221779D01*
X75870112Y-109221779D02*
X75870112Y-107507494D01*
X76632017Y-108174160D02*
X77393921Y-108174160D01*
X76917731Y-107507494D02*
X76917731Y-109221779D01*
X76917731Y-109221779D02*
X77012969Y-109412256D01*
X77012969Y-109412256D02*
X77203445Y-109507494D01*
X77203445Y-109507494D02*
X77393921Y-109507494D01*
X78060588Y-109507494D02*
X78060588Y-108174160D01*
X78060588Y-107507494D02*
X77965350Y-107602732D01*
X77965350Y-107602732D02*
X78060588Y-107697970D01*
X78060588Y-107697970D02*
X78155826Y-107602732D01*
X78155826Y-107602732D02*
X78060588Y-107507494D01*
X78060588Y-107507494D02*
X78060588Y-107697970D01*
X71774874Y-112727382D02*
X71774874Y-110727382D01*
X71774874Y-110727382D02*
X72536779Y-110727382D01*
X72536779Y-110727382D02*
X72727255Y-110822620D01*
X72727255Y-110822620D02*
X72822493Y-110917858D01*
X72822493Y-110917858D02*
X72917731Y-111108334D01*
X72917731Y-111108334D02*
X72917731Y-111394048D01*
X72917731Y-111394048D02*
X72822493Y-111584524D01*
X72822493Y-111584524D02*
X72727255Y-111679763D01*
X72727255Y-111679763D02*
X72536779Y-111775001D01*
X72536779Y-111775001D02*
X71774874Y-111775001D01*
X73774874Y-112727382D02*
X73774874Y-110727382D01*
X74632017Y-112727382D02*
X74632017Y-111679763D01*
X74632017Y-111679763D02*
X74536779Y-111489286D01*
X74536779Y-111489286D02*
X74346303Y-111394048D01*
X74346303Y-111394048D02*
X74060588Y-111394048D01*
X74060588Y-111394048D02*
X73870112Y-111489286D01*
X73870112Y-111489286D02*
X73774874Y-111584524D01*
X76441541Y-112727382D02*
X76441541Y-111679763D01*
X76441541Y-111679763D02*
X76346303Y-111489286D01*
X76346303Y-111489286D02*
X76155827Y-111394048D01*
X76155827Y-111394048D02*
X75774874Y-111394048D01*
X75774874Y-111394048D02*
X75584398Y-111489286D01*
X76441541Y-112632144D02*
X76251065Y-112727382D01*
X76251065Y-112727382D02*
X75774874Y-112727382D01*
X75774874Y-112727382D02*
X75584398Y-112632144D01*
X75584398Y-112632144D02*
X75489160Y-112441667D01*
X75489160Y-112441667D02*
X75489160Y-112251191D01*
X75489160Y-112251191D02*
X75584398Y-112060715D01*
X75584398Y-112060715D02*
X75774874Y-111965477D01*
X75774874Y-111965477D02*
X76251065Y-111965477D01*
X76251065Y-111965477D02*
X76441541Y-111870239D01*
X77298684Y-112632144D02*
X77489160Y-112727382D01*
X77489160Y-112727382D02*
X77870112Y-112727382D01*
X77870112Y-112727382D02*
X78060589Y-112632144D01*
X78060589Y-112632144D02*
X78155827Y-112441667D01*
X78155827Y-112441667D02*
X78155827Y-112346429D01*
X78155827Y-112346429D02*
X78060589Y-112155953D01*
X78060589Y-112155953D02*
X77870112Y-112060715D01*
X77870112Y-112060715D02*
X77584398Y-112060715D01*
X77584398Y-112060715D02*
X77393922Y-111965477D01*
X77393922Y-111965477D02*
X77298684Y-111775001D01*
X77298684Y-111775001D02*
X77298684Y-111679763D01*
X77298684Y-111679763D02*
X77393922Y-111489286D01*
X77393922Y-111489286D02*
X77584398Y-111394048D01*
X77584398Y-111394048D02*
X77870112Y-111394048D01*
X77870112Y-111394048D02*
X78060589Y-111489286D01*
X79774875Y-112632144D02*
X79584399Y-112727382D01*
X79584399Y-112727382D02*
X79203446Y-112727382D01*
X79203446Y-112727382D02*
X79012970Y-112632144D01*
X79012970Y-112632144D02*
X78917732Y-112441667D01*
X78917732Y-112441667D02*
X78917732Y-111679763D01*
X78917732Y-111679763D02*
X79012970Y-111489286D01*
X79012970Y-111489286D02*
X79203446Y-111394048D01*
X79203446Y-111394048D02*
X79584399Y-111394048D01*
X79584399Y-111394048D02*
X79774875Y-111489286D01*
X79774875Y-111489286D02*
X79870113Y-111679763D01*
X79870113Y-111679763D02*
X79870113Y-111870239D01*
X79870113Y-111870239D02*
X78917732Y-112060715D01*
X82917733Y-111679763D02*
X83203447Y-111775001D01*
X83203447Y-111775001D02*
X83298685Y-111870239D01*
X83298685Y-111870239D02*
X83393923Y-112060715D01*
X83393923Y-112060715D02*
X83393923Y-112346429D01*
X83393923Y-112346429D02*
X83298685Y-112536905D01*
X83298685Y-112536905D02*
X83203447Y-112632144D01*
X83203447Y-112632144D02*
X83012971Y-112727382D01*
X83012971Y-112727382D02*
X82251066Y-112727382D01*
X82251066Y-112727382D02*
X82251066Y-110727382D01*
X82251066Y-110727382D02*
X82917733Y-110727382D01*
X82917733Y-110727382D02*
X83108209Y-110822620D01*
X83108209Y-110822620D02*
X83203447Y-110917858D01*
X83203447Y-110917858D02*
X83298685Y-111108334D01*
X83298685Y-111108334D02*
X83298685Y-111298810D01*
X83298685Y-111298810D02*
X83203447Y-111489286D01*
X83203447Y-111489286D02*
X83108209Y-111584524D01*
X83108209Y-111584524D02*
X82917733Y-111679763D01*
X82917733Y-111679763D02*
X82251066Y-111679763D01*
X84251066Y-112727382D02*
X84251066Y-111394048D01*
X84251066Y-111775001D02*
X84346304Y-111584524D01*
X84346304Y-111584524D02*
X84441542Y-111489286D01*
X84441542Y-111489286D02*
X84632018Y-111394048D01*
X84632018Y-111394048D02*
X84822495Y-111394048D01*
X85774875Y-112727382D02*
X85584399Y-112632144D01*
X85584399Y-112632144D02*
X85489161Y-112536905D01*
X85489161Y-112536905D02*
X85393923Y-112346429D01*
X85393923Y-112346429D02*
X85393923Y-111775001D01*
X85393923Y-111775001D02*
X85489161Y-111584524D01*
X85489161Y-111584524D02*
X85584399Y-111489286D01*
X85584399Y-111489286D02*
X85774875Y-111394048D01*
X85774875Y-111394048D02*
X86060590Y-111394048D01*
X86060590Y-111394048D02*
X86251066Y-111489286D01*
X86251066Y-111489286D02*
X86346304Y-111584524D01*
X86346304Y-111584524D02*
X86441542Y-111775001D01*
X86441542Y-111775001D02*
X86441542Y-112346429D01*
X86441542Y-112346429D02*
X86346304Y-112536905D01*
X86346304Y-112536905D02*
X86251066Y-112632144D01*
X86251066Y-112632144D02*
X86060590Y-112727382D01*
X86060590Y-112727382D02*
X85774875Y-112727382D01*
X87012971Y-111394048D02*
X87774875Y-111394048D01*
X87298685Y-110727382D02*
X87298685Y-112441667D01*
X87298685Y-112441667D02*
X87393923Y-112632144D01*
X87393923Y-112632144D02*
X87584399Y-112727382D01*
X87584399Y-112727382D02*
X87774875Y-112727382D01*
X88441542Y-112727382D02*
X88441542Y-110727382D01*
X89298685Y-112727382D02*
X89298685Y-111679763D01*
X89298685Y-111679763D02*
X89203447Y-111489286D01*
X89203447Y-111489286D02*
X89012971Y-111394048D01*
X89012971Y-111394048D02*
X88727256Y-111394048D01*
X88727256Y-111394048D02*
X88536780Y-111489286D01*
X88536780Y-111489286D02*
X88441542Y-111584524D01*
X91012971Y-112632144D02*
X90822495Y-112727382D01*
X90822495Y-112727382D02*
X90441542Y-112727382D01*
X90441542Y-112727382D02*
X90251066Y-112632144D01*
X90251066Y-112632144D02*
X90155828Y-112441667D01*
X90155828Y-112441667D02*
X90155828Y-111679763D01*
X90155828Y-111679763D02*
X90251066Y-111489286D01*
X90251066Y-111489286D02*
X90441542Y-111394048D01*
X90441542Y-111394048D02*
X90822495Y-111394048D01*
X90822495Y-111394048D02*
X91012971Y-111489286D01*
X91012971Y-111489286D02*
X91108209Y-111679763D01*
X91108209Y-111679763D02*
X91108209Y-111870239D01*
X91108209Y-111870239D02*
X90155828Y-112060715D01*
X92251066Y-112727382D02*
X92060590Y-112632144D01*
X92060590Y-112632144D02*
X91965352Y-112441667D01*
X91965352Y-112441667D02*
X91965352Y-110727382D01*
X203600000Y-107774160D02*
X204361904Y-107774160D01*
X203885714Y-109107494D02*
X203885714Y-107393208D01*
X203885714Y-107393208D02*
X203980952Y-107202732D01*
X203980952Y-107202732D02*
X204171428Y-107107494D01*
X204171428Y-107107494D02*
X204361904Y-107107494D01*
X205028571Y-109107494D02*
X205028571Y-107107494D01*
X205028571Y-107869398D02*
X205219047Y-107774160D01*
X205219047Y-107774160D02*
X205600000Y-107774160D01*
X205600000Y-107774160D02*
X205790476Y-107869398D01*
X205790476Y-107869398D02*
X205885714Y-107964636D01*
X205885714Y-107964636D02*
X205980952Y-108155113D01*
X205980952Y-108155113D02*
X205980952Y-108726541D01*
X205980952Y-108726541D02*
X205885714Y-108917017D01*
X205885714Y-108917017D02*
X205790476Y-109012256D01*
X205790476Y-109012256D02*
X205600000Y-109107494D01*
X205600000Y-109107494D02*
X205219047Y-109107494D01*
X205219047Y-109107494D02*
X205028571Y-109012256D01*
X207695238Y-107774160D02*
X207695238Y-109107494D01*
X206838095Y-107774160D02*
X206838095Y-108821779D01*
X206838095Y-108821779D02*
X206933333Y-109012256D01*
X206933333Y-109012256D02*
X207123809Y-109107494D01*
X207123809Y-109107494D02*
X207409524Y-109107494D01*
X207409524Y-109107494D02*
X207600000Y-109012256D01*
X207600000Y-109012256D02*
X207695238Y-108917017D01*
X208552381Y-109012256D02*
X208742857Y-109107494D01*
X208742857Y-109107494D02*
X209123809Y-109107494D01*
X209123809Y-109107494D02*
X209314286Y-109012256D01*
X209314286Y-109012256D02*
X209409524Y-108821779D01*
X209409524Y-108821779D02*
X209409524Y-108726541D01*
X209409524Y-108726541D02*
X209314286Y-108536065D01*
X209314286Y-108536065D02*
X209123809Y-108440827D01*
X209123809Y-108440827D02*
X208838095Y-108440827D01*
X208838095Y-108440827D02*
X208647619Y-108345589D01*
X208647619Y-108345589D02*
X208552381Y-108155113D01*
X208552381Y-108155113D02*
X208552381Y-108059875D01*
X208552381Y-108059875D02*
X208647619Y-107869398D01*
X208647619Y-107869398D02*
X208838095Y-107774160D01*
X208838095Y-107774160D02*
X209123809Y-107774160D01*
X209123809Y-107774160D02*
X209314286Y-107869398D01*
X203171428Y-110517858D02*
X203266666Y-110422620D01*
X203266666Y-110422620D02*
X203457142Y-110327382D01*
X203457142Y-110327382D02*
X203933333Y-110327382D01*
X203933333Y-110327382D02*
X204123809Y-110422620D01*
X204123809Y-110422620D02*
X204219047Y-110517858D01*
X204219047Y-110517858D02*
X204314285Y-110708334D01*
X204314285Y-110708334D02*
X204314285Y-110898810D01*
X204314285Y-110898810D02*
X204219047Y-111184524D01*
X204219047Y-111184524D02*
X203076190Y-112327382D01*
X203076190Y-112327382D02*
X204314285Y-112327382D01*
X205552380Y-110327382D02*
X205742857Y-110327382D01*
X205742857Y-110327382D02*
X205933333Y-110422620D01*
X205933333Y-110422620D02*
X206028571Y-110517858D01*
X206028571Y-110517858D02*
X206123809Y-110708334D01*
X206123809Y-110708334D02*
X206219047Y-111089286D01*
X206219047Y-111089286D02*
X206219047Y-111565477D01*
X206219047Y-111565477D02*
X206123809Y-111946429D01*
X206123809Y-111946429D02*
X206028571Y-112136905D01*
X206028571Y-112136905D02*
X205933333Y-112232144D01*
X205933333Y-112232144D02*
X205742857Y-112327382D01*
X205742857Y-112327382D02*
X205552380Y-112327382D01*
X205552380Y-112327382D02*
X205361904Y-112232144D01*
X205361904Y-112232144D02*
X205266666Y-112136905D01*
X205266666Y-112136905D02*
X205171428Y-111946429D01*
X205171428Y-111946429D02*
X205076190Y-111565477D01*
X205076190Y-111565477D02*
X205076190Y-111089286D01*
X205076190Y-111089286D02*
X205171428Y-110708334D01*
X205171428Y-110708334D02*
X205266666Y-110517858D01*
X205266666Y-110517858D02*
X205361904Y-110422620D01*
X205361904Y-110422620D02*
X205552380Y-110327382D01*
X206980952Y-110517858D02*
X207076190Y-110422620D01*
X207076190Y-110422620D02*
X207266666Y-110327382D01*
X207266666Y-110327382D02*
X207742857Y-110327382D01*
X207742857Y-110327382D02*
X207933333Y-110422620D01*
X207933333Y-110422620D02*
X208028571Y-110517858D01*
X208028571Y-110517858D02*
X208123809Y-110708334D01*
X208123809Y-110708334D02*
X208123809Y-110898810D01*
X208123809Y-110898810D02*
X208028571Y-111184524D01*
X208028571Y-111184524D02*
X206885714Y-112327382D01*
X206885714Y-112327382D02*
X208123809Y-112327382D01*
X209838095Y-110994048D02*
X209838095Y-112327382D01*
X209361904Y-110232144D02*
X208885714Y-111660715D01*
X208885714Y-111660715D02*
X210123809Y-111660715D01*
D11*
X120876190Y-108747733D02*
X122400000Y-108747733D01*
X124399999Y-109509638D02*
X123257142Y-109509638D01*
X123828570Y-109509638D02*
X123828570Y-107509638D01*
X123828570Y-107509638D02*
X123638094Y-107795352D01*
X123638094Y-107795352D02*
X123447618Y-107985828D01*
X123447618Y-107985828D02*
X123257142Y-108081066D01*
X125161904Y-107700114D02*
X125257142Y-107604876D01*
X125257142Y-107604876D02*
X125447618Y-107509638D01*
X125447618Y-107509638D02*
X125923809Y-107509638D01*
X125923809Y-107509638D02*
X126114285Y-107604876D01*
X126114285Y-107604876D02*
X126209523Y-107700114D01*
X126209523Y-107700114D02*
X126304761Y-107890590D01*
X126304761Y-107890590D02*
X126304761Y-108081066D01*
X126304761Y-108081066D02*
X126209523Y-108366780D01*
X126209523Y-108366780D02*
X125066666Y-109509638D01*
X125066666Y-109509638D02*
X126304761Y-109509638D01*
X126876190Y-107509638D02*
X127542856Y-109509638D01*
X127542856Y-109509638D02*
X128209523Y-107509638D01*
X122876190Y-99604876D02*
X122685714Y-99509638D01*
X122685714Y-99509638D02*
X122400000Y-99509638D01*
X122400000Y-99509638D02*
X122114285Y-99604876D01*
X122114285Y-99604876D02*
X121923809Y-99795352D01*
X121923809Y-99795352D02*
X121828571Y-99985828D01*
X121828571Y-99985828D02*
X121733333Y-100366780D01*
X121733333Y-100366780D02*
X121733333Y-100652495D01*
X121733333Y-100652495D02*
X121828571Y-101033447D01*
X121828571Y-101033447D02*
X121923809Y-101223923D01*
X121923809Y-101223923D02*
X122114285Y-101414400D01*
X122114285Y-101414400D02*
X122400000Y-101509638D01*
X122400000Y-101509638D02*
X122590476Y-101509638D01*
X122590476Y-101509638D02*
X122876190Y-101414400D01*
X122876190Y-101414400D02*
X122971428Y-101319161D01*
X122971428Y-101319161D02*
X122971428Y-100652495D01*
X122971428Y-100652495D02*
X122590476Y-100652495D01*
X123828571Y-101509638D02*
X123828571Y-99509638D01*
X123828571Y-99509638D02*
X124971428Y-101509638D01*
X124971428Y-101509638D02*
X124971428Y-99509638D01*
X125923809Y-101509638D02*
X125923809Y-99509638D01*
X125923809Y-99509638D02*
X126399999Y-99509638D01*
X126399999Y-99509638D02*
X126685714Y-99604876D01*
X126685714Y-99604876D02*
X126876190Y-99795352D01*
X126876190Y-99795352D02*
X126971428Y-99985828D01*
X126971428Y-99985828D02*
X127066666Y-100366780D01*
X127066666Y-100366780D02*
X127066666Y-100652495D01*
X127066666Y-100652495D02*
X126971428Y-101033447D01*
X126971428Y-101033447D02*
X126876190Y-101223923D01*
X126876190Y-101223923D02*
X126685714Y-101414400D01*
X126685714Y-101414400D02*
X126399999Y-101509638D01*
X126399999Y-101509638D02*
X125923809Y-101509638D01*
X89476190Y-96747733D02*
X91000000Y-96747733D01*
X90238095Y-97509638D02*
X90238095Y-95985828D01*
X92999999Y-97509638D02*
X91857142Y-97509638D01*
X92428570Y-97509638D02*
X92428570Y-95509638D01*
X92428570Y-95509638D02*
X92238094Y-95795352D01*
X92238094Y-95795352D02*
X92047618Y-95985828D01*
X92047618Y-95985828D02*
X91857142Y-96081066D01*
X93761904Y-95700114D02*
X93857142Y-95604876D01*
X93857142Y-95604876D02*
X94047618Y-95509638D01*
X94047618Y-95509638D02*
X94523809Y-95509638D01*
X94523809Y-95509638D02*
X94714285Y-95604876D01*
X94714285Y-95604876D02*
X94809523Y-95700114D01*
X94809523Y-95700114D02*
X94904761Y-95890590D01*
X94904761Y-95890590D02*
X94904761Y-96081066D01*
X94904761Y-96081066D02*
X94809523Y-96366780D01*
X94809523Y-96366780D02*
X93666666Y-97509638D01*
X93666666Y-97509638D02*
X94904761Y-97509638D01*
X95476190Y-95509638D02*
X96142856Y-97509638D01*
X96142856Y-97509638D02*
X96809523Y-95509638D01*
X185876190Y-99604876D02*
X185685714Y-99509638D01*
X185685714Y-99509638D02*
X185400000Y-99509638D01*
X185400000Y-99509638D02*
X185114285Y-99604876D01*
X185114285Y-99604876D02*
X184923809Y-99795352D01*
X184923809Y-99795352D02*
X184828571Y-99985828D01*
X184828571Y-99985828D02*
X184733333Y-100366780D01*
X184733333Y-100366780D02*
X184733333Y-100652495D01*
X184733333Y-100652495D02*
X184828571Y-101033447D01*
X184828571Y-101033447D02*
X184923809Y-101223923D01*
X184923809Y-101223923D02*
X185114285Y-101414400D01*
X185114285Y-101414400D02*
X185400000Y-101509638D01*
X185400000Y-101509638D02*
X185590476Y-101509638D01*
X185590476Y-101509638D02*
X185876190Y-101414400D01*
X185876190Y-101414400D02*
X185971428Y-101319161D01*
X185971428Y-101319161D02*
X185971428Y-100652495D01*
X185971428Y-100652495D02*
X185590476Y-100652495D01*
X186828571Y-101509638D02*
X186828571Y-99509638D01*
X186828571Y-99509638D02*
X187971428Y-101509638D01*
X187971428Y-101509638D02*
X187971428Y-99509638D01*
X188923809Y-101509638D02*
X188923809Y-99509638D01*
X188923809Y-99509638D02*
X189399999Y-99509638D01*
X189399999Y-99509638D02*
X189685714Y-99604876D01*
X189685714Y-99604876D02*
X189876190Y-99795352D01*
X189876190Y-99795352D02*
X189971428Y-99985828D01*
X189971428Y-99985828D02*
X190066666Y-100366780D01*
X190066666Y-100366780D02*
X190066666Y-100652495D01*
X190066666Y-100652495D02*
X189971428Y-101033447D01*
X189971428Y-101033447D02*
X189876190Y-101223923D01*
X189876190Y-101223923D02*
X189685714Y-101414400D01*
X189685714Y-101414400D02*
X189399999Y-101509638D01*
X189399999Y-101509638D02*
X188923809Y-101509638D01*
X154476190Y-99604876D02*
X154285714Y-99509638D01*
X154285714Y-99509638D02*
X154000000Y-99509638D01*
X154000000Y-99509638D02*
X153714285Y-99604876D01*
X153714285Y-99604876D02*
X153523809Y-99795352D01*
X153523809Y-99795352D02*
X153428571Y-99985828D01*
X153428571Y-99985828D02*
X153333333Y-100366780D01*
X153333333Y-100366780D02*
X153333333Y-100652495D01*
X153333333Y-100652495D02*
X153428571Y-101033447D01*
X153428571Y-101033447D02*
X153523809Y-101223923D01*
X153523809Y-101223923D02*
X153714285Y-101414400D01*
X153714285Y-101414400D02*
X154000000Y-101509638D01*
X154000000Y-101509638D02*
X154190476Y-101509638D01*
X154190476Y-101509638D02*
X154476190Y-101414400D01*
X154476190Y-101414400D02*
X154571428Y-101319161D01*
X154571428Y-101319161D02*
X154571428Y-100652495D01*
X154571428Y-100652495D02*
X154190476Y-100652495D01*
X155428571Y-101509638D02*
X155428571Y-99509638D01*
X155428571Y-99509638D02*
X156571428Y-101509638D01*
X156571428Y-101509638D02*
X156571428Y-99509638D01*
X157523809Y-101509638D02*
X157523809Y-99509638D01*
X157523809Y-99509638D02*
X157999999Y-99509638D01*
X157999999Y-99509638D02*
X158285714Y-99604876D01*
X158285714Y-99604876D02*
X158476190Y-99795352D01*
X158476190Y-99795352D02*
X158571428Y-99985828D01*
X158571428Y-99985828D02*
X158666666Y-100366780D01*
X158666666Y-100366780D02*
X158666666Y-100652495D01*
X158666666Y-100652495D02*
X158571428Y-101033447D01*
X158571428Y-101033447D02*
X158476190Y-101223923D01*
X158476190Y-101223923D02*
X158285714Y-101414400D01*
X158285714Y-101414400D02*
X157999999Y-101509638D01*
X157999999Y-101509638D02*
X157523809Y-101509638D01*
X91476190Y-103604876D02*
X91285714Y-103509638D01*
X91285714Y-103509638D02*
X91000000Y-103509638D01*
X91000000Y-103509638D02*
X90714285Y-103604876D01*
X90714285Y-103604876D02*
X90523809Y-103795352D01*
X90523809Y-103795352D02*
X90428571Y-103985828D01*
X90428571Y-103985828D02*
X90333333Y-104366780D01*
X90333333Y-104366780D02*
X90333333Y-104652495D01*
X90333333Y-104652495D02*
X90428571Y-105033447D01*
X90428571Y-105033447D02*
X90523809Y-105223923D01*
X90523809Y-105223923D02*
X90714285Y-105414400D01*
X90714285Y-105414400D02*
X91000000Y-105509638D01*
X91000000Y-105509638D02*
X91190476Y-105509638D01*
X91190476Y-105509638D02*
X91476190Y-105414400D01*
X91476190Y-105414400D02*
X91571428Y-105319161D01*
X91571428Y-105319161D02*
X91571428Y-104652495D01*
X91571428Y-104652495D02*
X91190476Y-104652495D01*
X92428571Y-105509638D02*
X92428571Y-103509638D01*
X92428571Y-103509638D02*
X93571428Y-105509638D01*
X93571428Y-105509638D02*
X93571428Y-103509638D01*
X94523809Y-105509638D02*
X94523809Y-103509638D01*
X94523809Y-103509638D02*
X94999999Y-103509638D01*
X94999999Y-103509638D02*
X95285714Y-103604876D01*
X95285714Y-103604876D02*
X95476190Y-103795352D01*
X95476190Y-103795352D02*
X95571428Y-103985828D01*
X95571428Y-103985828D02*
X95666666Y-104366780D01*
X95666666Y-104366780D02*
X95666666Y-104652495D01*
X95666666Y-104652495D02*
X95571428Y-105033447D01*
X95571428Y-105033447D02*
X95476190Y-105223923D01*
X95476190Y-105223923D02*
X95285714Y-105414400D01*
X95285714Y-105414400D02*
X94999999Y-105509638D01*
X94999999Y-105509638D02*
X94523809Y-105509638D01*
X183876190Y-108747733D02*
X185400000Y-108747733D01*
X187399999Y-109509638D02*
X186257142Y-109509638D01*
X186828570Y-109509638D02*
X186828570Y-107509638D01*
X186828570Y-107509638D02*
X186638094Y-107795352D01*
X186638094Y-107795352D02*
X186447618Y-107985828D01*
X186447618Y-107985828D02*
X186257142Y-108081066D01*
X188161904Y-107700114D02*
X188257142Y-107604876D01*
X188257142Y-107604876D02*
X188447618Y-107509638D01*
X188447618Y-107509638D02*
X188923809Y-107509638D01*
X188923809Y-107509638D02*
X189114285Y-107604876D01*
X189114285Y-107604876D02*
X189209523Y-107700114D01*
X189209523Y-107700114D02*
X189304761Y-107890590D01*
X189304761Y-107890590D02*
X189304761Y-108081066D01*
X189304761Y-108081066D02*
X189209523Y-108366780D01*
X189209523Y-108366780D02*
X188066666Y-109509638D01*
X188066666Y-109509638D02*
X189304761Y-109509638D01*
X189876190Y-107509638D02*
X190542856Y-109509638D01*
X190542856Y-109509638D02*
X191209523Y-107509638D01*
X183876190Y-96747733D02*
X185400000Y-96747733D01*
X184638095Y-97509638D02*
X184638095Y-95985828D01*
X187399999Y-97509638D02*
X186257142Y-97509638D01*
X186828570Y-97509638D02*
X186828570Y-95509638D01*
X186828570Y-95509638D02*
X186638094Y-95795352D01*
X186638094Y-95795352D02*
X186447618Y-95985828D01*
X186447618Y-95985828D02*
X186257142Y-96081066D01*
X188161904Y-95700114D02*
X188257142Y-95604876D01*
X188257142Y-95604876D02*
X188447618Y-95509638D01*
X188447618Y-95509638D02*
X188923809Y-95509638D01*
X188923809Y-95509638D02*
X189114285Y-95604876D01*
X189114285Y-95604876D02*
X189209523Y-95700114D01*
X189209523Y-95700114D02*
X189304761Y-95890590D01*
X189304761Y-95890590D02*
X189304761Y-96081066D01*
X189304761Y-96081066D02*
X189209523Y-96366780D01*
X189209523Y-96366780D02*
X188066666Y-97509638D01*
X188066666Y-97509638D02*
X189304761Y-97509638D01*
X189876190Y-95509638D02*
X190542856Y-97509638D01*
X190542856Y-97509638D02*
X191209523Y-95509638D01*
X152476190Y-96747733D02*
X154000000Y-96747733D01*
X153238095Y-97509638D02*
X153238095Y-95985828D01*
X155999999Y-97509638D02*
X154857142Y-97509638D01*
X155428570Y-97509638D02*
X155428570Y-95509638D01*
X155428570Y-95509638D02*
X155238094Y-95795352D01*
X155238094Y-95795352D02*
X155047618Y-95985828D01*
X155047618Y-95985828D02*
X154857142Y-96081066D01*
X156761904Y-95700114D02*
X156857142Y-95604876D01*
X156857142Y-95604876D02*
X157047618Y-95509638D01*
X157047618Y-95509638D02*
X157523809Y-95509638D01*
X157523809Y-95509638D02*
X157714285Y-95604876D01*
X157714285Y-95604876D02*
X157809523Y-95700114D01*
X157809523Y-95700114D02*
X157904761Y-95890590D01*
X157904761Y-95890590D02*
X157904761Y-96081066D01*
X157904761Y-96081066D02*
X157809523Y-96366780D01*
X157809523Y-96366780D02*
X156666666Y-97509638D01*
X156666666Y-97509638D02*
X157904761Y-97509638D01*
X158476190Y-95509638D02*
X159142856Y-97509638D01*
X159142856Y-97509638D02*
X159809523Y-95509638D01*
X120876190Y-96747733D02*
X122400000Y-96747733D01*
X121638095Y-97509638D02*
X121638095Y-95985828D01*
X124399999Y-97509638D02*
X123257142Y-97509638D01*
X123828570Y-97509638D02*
X123828570Y-95509638D01*
X123828570Y-95509638D02*
X123638094Y-95795352D01*
X123638094Y-95795352D02*
X123447618Y-95985828D01*
X123447618Y-95985828D02*
X123257142Y-96081066D01*
X125161904Y-95700114D02*
X125257142Y-95604876D01*
X125257142Y-95604876D02*
X125447618Y-95509638D01*
X125447618Y-95509638D02*
X125923809Y-95509638D01*
X125923809Y-95509638D02*
X126114285Y-95604876D01*
X126114285Y-95604876D02*
X126209523Y-95700114D01*
X126209523Y-95700114D02*
X126304761Y-95890590D01*
X126304761Y-95890590D02*
X126304761Y-96081066D01*
X126304761Y-96081066D02*
X126209523Y-96366780D01*
X126209523Y-96366780D02*
X125066666Y-97509638D01*
X125066666Y-97509638D02*
X126304761Y-97509638D01*
X126876190Y-95509638D02*
X127542856Y-97509638D01*
X127542856Y-97509638D02*
X128209523Y-95509638D01*
X122876190Y-103604876D02*
X122685714Y-103509638D01*
X122685714Y-103509638D02*
X122400000Y-103509638D01*
X122400000Y-103509638D02*
X122114285Y-103604876D01*
X122114285Y-103604876D02*
X121923809Y-103795352D01*
X121923809Y-103795352D02*
X121828571Y-103985828D01*
X121828571Y-103985828D02*
X121733333Y-104366780D01*
X121733333Y-104366780D02*
X121733333Y-104652495D01*
X121733333Y-104652495D02*
X121828571Y-105033447D01*
X121828571Y-105033447D02*
X121923809Y-105223923D01*
X121923809Y-105223923D02*
X122114285Y-105414400D01*
X122114285Y-105414400D02*
X122400000Y-105509638D01*
X122400000Y-105509638D02*
X122590476Y-105509638D01*
X122590476Y-105509638D02*
X122876190Y-105414400D01*
X122876190Y-105414400D02*
X122971428Y-105319161D01*
X122971428Y-105319161D02*
X122971428Y-104652495D01*
X122971428Y-104652495D02*
X122590476Y-104652495D01*
X123828571Y-105509638D02*
X123828571Y-103509638D01*
X123828571Y-103509638D02*
X124971428Y-105509638D01*
X124971428Y-105509638D02*
X124971428Y-103509638D01*
X125923809Y-105509638D02*
X125923809Y-103509638D01*
X125923809Y-103509638D02*
X126399999Y-103509638D01*
X126399999Y-103509638D02*
X126685714Y-103604876D01*
X126685714Y-103604876D02*
X126876190Y-103795352D01*
X126876190Y-103795352D02*
X126971428Y-103985828D01*
X126971428Y-103985828D02*
X127066666Y-104366780D01*
X127066666Y-104366780D02*
X127066666Y-104652495D01*
X127066666Y-104652495D02*
X126971428Y-105033447D01*
X126971428Y-105033447D02*
X126876190Y-105223923D01*
X126876190Y-105223923D02*
X126685714Y-105414400D01*
X126685714Y-105414400D02*
X126399999Y-105509638D01*
X126399999Y-105509638D02*
X125923809Y-105509638D01*
X89476190Y-108747733D02*
X91000000Y-108747733D01*
X92999999Y-109509638D02*
X91857142Y-109509638D01*
X92428570Y-109509638D02*
X92428570Y-107509638D01*
X92428570Y-107509638D02*
X92238094Y-107795352D01*
X92238094Y-107795352D02*
X92047618Y-107985828D01*
X92047618Y-107985828D02*
X91857142Y-108081066D01*
X93761904Y-107700114D02*
X93857142Y-107604876D01*
X93857142Y-107604876D02*
X94047618Y-107509638D01*
X94047618Y-107509638D02*
X94523809Y-107509638D01*
X94523809Y-107509638D02*
X94714285Y-107604876D01*
X94714285Y-107604876D02*
X94809523Y-107700114D01*
X94809523Y-107700114D02*
X94904761Y-107890590D01*
X94904761Y-107890590D02*
X94904761Y-108081066D01*
X94904761Y-108081066D02*
X94809523Y-108366780D01*
X94809523Y-108366780D02*
X93666666Y-109509638D01*
X93666666Y-109509638D02*
X94904761Y-109509638D01*
X95476190Y-107509638D02*
X96142856Y-109509638D01*
X96142856Y-109509638D02*
X96809523Y-107509638D01*
X154476190Y-103604876D02*
X154285714Y-103509638D01*
X154285714Y-103509638D02*
X154000000Y-103509638D01*
X154000000Y-103509638D02*
X153714285Y-103604876D01*
X153714285Y-103604876D02*
X153523809Y-103795352D01*
X153523809Y-103795352D02*
X153428571Y-103985828D01*
X153428571Y-103985828D02*
X153333333Y-104366780D01*
X153333333Y-104366780D02*
X153333333Y-104652495D01*
X153333333Y-104652495D02*
X153428571Y-105033447D01*
X153428571Y-105033447D02*
X153523809Y-105223923D01*
X153523809Y-105223923D02*
X153714285Y-105414400D01*
X153714285Y-105414400D02*
X154000000Y-105509638D01*
X154000000Y-105509638D02*
X154190476Y-105509638D01*
X154190476Y-105509638D02*
X154476190Y-105414400D01*
X154476190Y-105414400D02*
X154571428Y-105319161D01*
X154571428Y-105319161D02*
X154571428Y-104652495D01*
X154571428Y-104652495D02*
X154190476Y-104652495D01*
X155428571Y-105509638D02*
X155428571Y-103509638D01*
X155428571Y-103509638D02*
X156571428Y-105509638D01*
X156571428Y-105509638D02*
X156571428Y-103509638D01*
X157523809Y-105509638D02*
X157523809Y-103509638D01*
X157523809Y-103509638D02*
X157999999Y-103509638D01*
X157999999Y-103509638D02*
X158285714Y-103604876D01*
X158285714Y-103604876D02*
X158476190Y-103795352D01*
X158476190Y-103795352D02*
X158571428Y-103985828D01*
X158571428Y-103985828D02*
X158666666Y-104366780D01*
X158666666Y-104366780D02*
X158666666Y-104652495D01*
X158666666Y-104652495D02*
X158571428Y-105033447D01*
X158571428Y-105033447D02*
X158476190Y-105223923D01*
X158476190Y-105223923D02*
X158285714Y-105414400D01*
X158285714Y-105414400D02*
X157999999Y-105509638D01*
X157999999Y-105509638D02*
X157523809Y-105509638D01*
X152476190Y-108747733D02*
X154000000Y-108747733D01*
X155999999Y-109509638D02*
X154857142Y-109509638D01*
X155428570Y-109509638D02*
X155428570Y-107509638D01*
X155428570Y-107509638D02*
X155238094Y-107795352D01*
X155238094Y-107795352D02*
X155047618Y-107985828D01*
X155047618Y-107985828D02*
X154857142Y-108081066D01*
X156761904Y-107700114D02*
X156857142Y-107604876D01*
X156857142Y-107604876D02*
X157047618Y-107509638D01*
X157047618Y-107509638D02*
X157523809Y-107509638D01*
X157523809Y-107509638D02*
X157714285Y-107604876D01*
X157714285Y-107604876D02*
X157809523Y-107700114D01*
X157809523Y-107700114D02*
X157904761Y-107890590D01*
X157904761Y-107890590D02*
X157904761Y-108081066D01*
X157904761Y-108081066D02*
X157809523Y-108366780D01*
X157809523Y-108366780D02*
X156666666Y-109509638D01*
X156666666Y-109509638D02*
X157904761Y-109509638D01*
X158476190Y-107509638D02*
X159142856Y-109509638D01*
X159142856Y-109509638D02*
X159809523Y-107509638D01*
X185876190Y-103604876D02*
X185685714Y-103509638D01*
X185685714Y-103509638D02*
X185400000Y-103509638D01*
X185400000Y-103509638D02*
X185114285Y-103604876D01*
X185114285Y-103604876D02*
X184923809Y-103795352D01*
X184923809Y-103795352D02*
X184828571Y-103985828D01*
X184828571Y-103985828D02*
X184733333Y-104366780D01*
X184733333Y-104366780D02*
X184733333Y-104652495D01*
X184733333Y-104652495D02*
X184828571Y-105033447D01*
X184828571Y-105033447D02*
X184923809Y-105223923D01*
X184923809Y-105223923D02*
X185114285Y-105414400D01*
X185114285Y-105414400D02*
X185400000Y-105509638D01*
X185400000Y-105509638D02*
X185590476Y-105509638D01*
X185590476Y-105509638D02*
X185876190Y-105414400D01*
X185876190Y-105414400D02*
X185971428Y-105319161D01*
X185971428Y-105319161D02*
X185971428Y-104652495D01*
X185971428Y-104652495D02*
X185590476Y-104652495D01*
X186828571Y-105509638D02*
X186828571Y-103509638D01*
X186828571Y-103509638D02*
X187971428Y-105509638D01*
X187971428Y-105509638D02*
X187971428Y-103509638D01*
X188923809Y-105509638D02*
X188923809Y-103509638D01*
X188923809Y-103509638D02*
X189399999Y-103509638D01*
X189399999Y-103509638D02*
X189685714Y-103604876D01*
X189685714Y-103604876D02*
X189876190Y-103795352D01*
X189876190Y-103795352D02*
X189971428Y-103985828D01*
X189971428Y-103985828D02*
X190066666Y-104366780D01*
X190066666Y-104366780D02*
X190066666Y-104652495D01*
X190066666Y-104652495D02*
X189971428Y-105033447D01*
X189971428Y-105033447D02*
X189876190Y-105223923D01*
X189876190Y-105223923D02*
X189685714Y-105414400D01*
X189685714Y-105414400D02*
X189399999Y-105509638D01*
X189399999Y-105509638D02*
X188923809Y-105509638D01*
X91476190Y-99604876D02*
X91285714Y-99509638D01*
X91285714Y-99509638D02*
X91000000Y-99509638D01*
X91000000Y-99509638D02*
X90714285Y-99604876D01*
X90714285Y-99604876D02*
X90523809Y-99795352D01*
X90523809Y-99795352D02*
X90428571Y-99985828D01*
X90428571Y-99985828D02*
X90333333Y-100366780D01*
X90333333Y-100366780D02*
X90333333Y-100652495D01*
X90333333Y-100652495D02*
X90428571Y-101033447D01*
X90428571Y-101033447D02*
X90523809Y-101223923D01*
X90523809Y-101223923D02*
X90714285Y-101414400D01*
X90714285Y-101414400D02*
X91000000Y-101509638D01*
X91000000Y-101509638D02*
X91190476Y-101509638D01*
X91190476Y-101509638D02*
X91476190Y-101414400D01*
X91476190Y-101414400D02*
X91571428Y-101319161D01*
X91571428Y-101319161D02*
X91571428Y-100652495D01*
X91571428Y-100652495D02*
X91190476Y-100652495D01*
X92428571Y-101509638D02*
X92428571Y-99509638D01*
X92428571Y-99509638D02*
X93571428Y-101509638D01*
X93571428Y-101509638D02*
X93571428Y-99509638D01*
X94523809Y-101509638D02*
X94523809Y-99509638D01*
X94523809Y-99509638D02*
X94999999Y-99509638D01*
X94999999Y-99509638D02*
X95285714Y-99604876D01*
X95285714Y-99604876D02*
X95476190Y-99795352D01*
X95476190Y-99795352D02*
X95571428Y-99985828D01*
X95571428Y-99985828D02*
X95666666Y-100366780D01*
X95666666Y-100366780D02*
X95666666Y-100652495D01*
X95666666Y-100652495D02*
X95571428Y-101033447D01*
X95571428Y-101033447D02*
X95476190Y-101223923D01*
X95476190Y-101223923D02*
X95285714Y-101414400D01*
X95285714Y-101414400D02*
X94999999Y-101509638D01*
X94999999Y-101509638D02*
X94523809Y-101509638D01*
D10*
X71774874Y-92059875D02*
X72441541Y-92059875D01*
X72727255Y-93107494D02*
X71774874Y-93107494D01*
X71774874Y-93107494D02*
X71774874Y-91107494D01*
X71774874Y-91107494D02*
X72727255Y-91107494D01*
X74441541Y-91774160D02*
X74441541Y-93107494D01*
X73584398Y-91774160D02*
X73584398Y-92821779D01*
X73584398Y-92821779D02*
X73679636Y-93012256D01*
X73679636Y-93012256D02*
X73870112Y-93107494D01*
X73870112Y-93107494D02*
X74155827Y-93107494D01*
X74155827Y-93107494D02*
X74346303Y-93012256D01*
X74346303Y-93012256D02*
X74441541Y-92917017D01*
X75393922Y-93107494D02*
X75393922Y-91774160D01*
X75393922Y-92155113D02*
X75489160Y-91964636D01*
X75489160Y-91964636D02*
X75584398Y-91869398D01*
X75584398Y-91869398D02*
X75774874Y-91774160D01*
X75774874Y-91774160D02*
X75965351Y-91774160D01*
X76917731Y-93107494D02*
X76727255Y-93012256D01*
X76727255Y-93012256D02*
X76632017Y-92917017D01*
X76632017Y-92917017D02*
X76536779Y-92726541D01*
X76536779Y-92726541D02*
X76536779Y-92155113D01*
X76536779Y-92155113D02*
X76632017Y-91964636D01*
X76632017Y-91964636D02*
X76727255Y-91869398D01*
X76727255Y-91869398D02*
X76917731Y-91774160D01*
X76917731Y-91774160D02*
X77203446Y-91774160D01*
X77203446Y-91774160D02*
X77393922Y-91869398D01*
X77393922Y-91869398D02*
X77489160Y-91964636D01*
X77489160Y-91964636D02*
X77584398Y-92155113D01*
X77584398Y-92155113D02*
X77584398Y-92726541D01*
X77584398Y-92726541D02*
X77489160Y-92917017D01*
X77489160Y-92917017D02*
X77393922Y-93012256D01*
X77393922Y-93012256D02*
X77203446Y-93107494D01*
X77203446Y-93107494D02*
X76917731Y-93107494D01*
X79965351Y-93107494D02*
X79965351Y-91107494D01*
X79965351Y-91107494D02*
X80727256Y-91107494D01*
X80727256Y-91107494D02*
X80917732Y-91202732D01*
X80917732Y-91202732D02*
X81012970Y-91297970D01*
X81012970Y-91297970D02*
X81108208Y-91488446D01*
X81108208Y-91488446D02*
X81108208Y-91774160D01*
X81108208Y-91774160D02*
X81012970Y-91964636D01*
X81012970Y-91964636D02*
X80917732Y-92059875D01*
X80917732Y-92059875D02*
X80727256Y-92155113D01*
X80727256Y-92155113D02*
X79965351Y-92155113D01*
X82251065Y-93107494D02*
X82060589Y-93012256D01*
X82060589Y-93012256D02*
X81965351Y-92917017D01*
X81965351Y-92917017D02*
X81870113Y-92726541D01*
X81870113Y-92726541D02*
X81870113Y-92155113D01*
X81870113Y-92155113D02*
X81965351Y-91964636D01*
X81965351Y-91964636D02*
X82060589Y-91869398D01*
X82060589Y-91869398D02*
X82251065Y-91774160D01*
X82251065Y-91774160D02*
X82536780Y-91774160D01*
X82536780Y-91774160D02*
X82727256Y-91869398D01*
X82727256Y-91869398D02*
X82822494Y-91964636D01*
X82822494Y-91964636D02*
X82917732Y-92155113D01*
X82917732Y-92155113D02*
X82917732Y-92726541D01*
X82917732Y-92726541D02*
X82822494Y-92917017D01*
X82822494Y-92917017D02*
X82727256Y-93012256D01*
X82727256Y-93012256D02*
X82536780Y-93107494D01*
X82536780Y-93107494D02*
X82251065Y-93107494D01*
X83584399Y-91774160D02*
X83965351Y-93107494D01*
X83965351Y-93107494D02*
X84346304Y-92155113D01*
X84346304Y-92155113D02*
X84727256Y-93107494D01*
X84727256Y-93107494D02*
X85108208Y-91774160D01*
X86632018Y-93012256D02*
X86441542Y-93107494D01*
X86441542Y-93107494D02*
X86060589Y-93107494D01*
X86060589Y-93107494D02*
X85870113Y-93012256D01*
X85870113Y-93012256D02*
X85774875Y-92821779D01*
X85774875Y-92821779D02*
X85774875Y-92059875D01*
X85774875Y-92059875D02*
X85870113Y-91869398D01*
X85870113Y-91869398D02*
X86060589Y-91774160D01*
X86060589Y-91774160D02*
X86441542Y-91774160D01*
X86441542Y-91774160D02*
X86632018Y-91869398D01*
X86632018Y-91869398D02*
X86727256Y-92059875D01*
X86727256Y-92059875D02*
X86727256Y-92250351D01*
X86727256Y-92250351D02*
X85774875Y-92440827D01*
X87584399Y-93107494D02*
X87584399Y-91774160D01*
X87584399Y-92155113D02*
X87679637Y-91964636D01*
X87679637Y-91964636D02*
X87774875Y-91869398D01*
X87774875Y-91869398D02*
X87965351Y-91774160D01*
X87965351Y-91774160D02*
X88155828Y-91774160D01*
X71774874Y-96327382D02*
X71774874Y-94327382D01*
X71774874Y-94327382D02*
X72441541Y-95755953D01*
X72441541Y-95755953D02*
X73108207Y-94327382D01*
X73108207Y-94327382D02*
X73108207Y-96327382D01*
X74060588Y-96327382D02*
X74060588Y-94327382D01*
X75203445Y-96327382D02*
X74346302Y-95184524D01*
X75203445Y-94327382D02*
X74060588Y-95470239D01*
X77108207Y-96327382D02*
X75965350Y-96327382D01*
X76536778Y-96327382D02*
X76536778Y-94327382D01*
X76536778Y-94327382D02*
X76346302Y-94613096D01*
X76346302Y-94613096D02*
X76155826Y-94803572D01*
X76155826Y-94803572D02*
X75965350Y-94898810D01*
D12*
%TO.C,REF\u002A\u002A*%
X203280000Y-108060000D02*
X203280000Y-107060000D01*
X203280000Y-107060000D02*
X202280000Y-107560000D01*
X202280000Y-107560000D02*
X203280000Y-108060000D01*
X201890000Y-112770000D02*
X192770000Y-112770000D01*
X201890000Y-104530000D02*
X200580000Y-104530000D01*
X201890000Y-92190000D02*
X201890000Y-112770000D01*
X200580000Y-111470000D02*
X194080000Y-111470000D01*
X200580000Y-104530000D02*
X200580000Y-111470000D01*
X200580000Y-100430000D02*
X201890000Y-100430000D01*
X200580000Y-100430000D02*
X200580000Y-100430000D01*
X200580000Y-93490000D02*
X200580000Y-100430000D01*
X194080000Y-111470000D02*
X194080000Y-93490000D01*
X194080000Y-93490000D02*
X200580000Y-93490000D01*
X192770000Y-112770000D02*
X192770000Y-92190000D01*
X192770000Y-92190000D02*
X201890000Y-92190000D01*
X184280000Y-108060000D02*
X184280000Y-107060000D01*
X184280000Y-107060000D02*
X183280000Y-107560000D01*
X183280000Y-107560000D02*
X184280000Y-108060000D01*
X182890000Y-112770000D02*
X173770000Y-112770000D01*
X182890000Y-104530000D02*
X181580000Y-104530000D01*
X182890000Y-92190000D02*
X182890000Y-112770000D01*
X181580000Y-111470000D02*
X175080000Y-111470000D01*
X181580000Y-104530000D02*
X181580000Y-111470000D01*
X181580000Y-100430000D02*
X182890000Y-100430000D01*
X181580000Y-100430000D02*
X181580000Y-100430000D01*
X181580000Y-93490000D02*
X181580000Y-100430000D01*
X175080000Y-111470000D02*
X175080000Y-93490000D01*
X175080000Y-93490000D02*
X181580000Y-93490000D01*
X173770000Y-112770000D02*
X173770000Y-92190000D01*
X173770000Y-92190000D02*
X182890000Y-92190000D01*
X171280000Y-108060000D02*
X171280000Y-107060000D01*
X171280000Y-107060000D02*
X170280000Y-107560000D01*
X170280000Y-107560000D02*
X171280000Y-108060000D01*
X169890000Y-112770000D02*
X160770000Y-112770000D01*
X169890000Y-104530000D02*
X168580000Y-104530000D01*
X169890000Y-92190000D02*
X169890000Y-112770000D01*
X168580000Y-111470000D02*
X162080000Y-111470000D01*
X168580000Y-104530000D02*
X168580000Y-111470000D01*
X168580000Y-100430000D02*
X169890000Y-100430000D01*
X168580000Y-100430000D02*
X168580000Y-100430000D01*
X168580000Y-93490000D02*
X168580000Y-100430000D01*
X162080000Y-111470000D02*
X162080000Y-93490000D01*
X162080000Y-93490000D02*
X168580000Y-93490000D01*
X160770000Y-112770000D02*
X160770000Y-92190000D01*
X160770000Y-92190000D02*
X169890000Y-92190000D01*
X153080000Y-108060000D02*
X153080000Y-107060000D01*
X153080000Y-107060000D02*
X152080000Y-107560000D01*
X152080000Y-107560000D02*
X153080000Y-108060000D01*
X151690000Y-112770000D02*
X142570000Y-112770000D01*
X151690000Y-104530000D02*
X150380000Y-104530000D01*
X151690000Y-92190000D02*
X151690000Y-112770000D01*
X150380000Y-111470000D02*
X143880000Y-111470000D01*
X150380000Y-104530000D02*
X150380000Y-111470000D01*
X150380000Y-100430000D02*
X151690000Y-100430000D01*
X150380000Y-100430000D02*
X150380000Y-100430000D01*
X150380000Y-93490000D02*
X150380000Y-100430000D01*
X143880000Y-111470000D02*
X143880000Y-93490000D01*
X143880000Y-93490000D02*
X150380000Y-93490000D01*
X142570000Y-112770000D02*
X142570000Y-92190000D01*
X142570000Y-92190000D02*
X151690000Y-92190000D01*
X140080000Y-108060000D02*
X140080000Y-107060000D01*
X140080000Y-107060000D02*
X139080000Y-107560000D01*
X139080000Y-107560000D02*
X140080000Y-108060000D01*
X138690000Y-112770000D02*
X129570000Y-112770000D01*
X138690000Y-104530000D02*
X137380000Y-104530000D01*
X138690000Y-92190000D02*
X138690000Y-112770000D01*
X137380000Y-111470000D02*
X130880000Y-111470000D01*
X137380000Y-104530000D02*
X137380000Y-111470000D01*
X137380000Y-100430000D02*
X138690000Y-100430000D01*
X137380000Y-100430000D02*
X137380000Y-100430000D01*
X137380000Y-93490000D02*
X137380000Y-100430000D01*
X130880000Y-111470000D02*
X130880000Y-93490000D01*
X130880000Y-93490000D02*
X137380000Y-93490000D01*
X129570000Y-112770000D02*
X129570000Y-92190000D01*
X129570000Y-92190000D02*
X138690000Y-92190000D01*
X110770000Y-92190000D02*
X119890000Y-92190000D01*
X110770000Y-112770000D02*
X110770000Y-92190000D01*
X112080000Y-93490000D02*
X118580000Y-93490000D01*
X112080000Y-111470000D02*
X112080000Y-93490000D01*
X118580000Y-93490000D02*
X118580000Y-100430000D01*
X118580000Y-100430000D02*
X118580000Y-100430000D01*
X118580000Y-100430000D02*
X119890000Y-100430000D01*
X118580000Y-104530000D02*
X118580000Y-111470000D01*
X118580000Y-111470000D02*
X112080000Y-111470000D01*
X119890000Y-92190000D02*
X119890000Y-112770000D01*
X119890000Y-104530000D02*
X118580000Y-104530000D01*
X119890000Y-112770000D02*
X110770000Y-112770000D01*
X120280000Y-107560000D02*
X121280000Y-108060000D01*
X121280000Y-107060000D02*
X120280000Y-107560000D01*
X121280000Y-108060000D02*
X121280000Y-107060000D01*
X108280000Y-108100000D02*
X108280000Y-107100000D01*
X108280000Y-107100000D02*
X107280000Y-107600000D01*
X107280000Y-107600000D02*
X108280000Y-108100000D01*
X106890000Y-112810000D02*
X97770000Y-112810000D01*
X106890000Y-104570000D02*
X105580000Y-104570000D01*
X106890000Y-92230000D02*
X106890000Y-112810000D01*
X105580000Y-111510000D02*
X99080000Y-111510000D01*
X105580000Y-104570000D02*
X105580000Y-111510000D01*
X105580000Y-100470000D02*
X106890000Y-100470000D01*
X105580000Y-100470000D02*
X105580000Y-100470000D01*
X105580000Y-93530000D02*
X105580000Y-100470000D01*
X99080000Y-111510000D02*
X99080000Y-93530000D01*
X99080000Y-93530000D02*
X105580000Y-93530000D01*
X97770000Y-112810000D02*
X97770000Y-92230000D01*
X97770000Y-92230000D02*
X106890000Y-92230000D01*
X88620000Y-107600000D02*
X88020000Y-107600000D01*
X88620000Y-103640000D02*
X88020000Y-103640000D01*
X88020000Y-101280000D02*
X88620000Y-101280000D01*
X79395000Y-110420000D02*
X79395000Y-108515000D01*
X78390000Y-108515000D02*
X78390000Y-96405000D01*
X88020000Y-99680000D02*
X88020000Y-101280000D01*
X79390000Y-96520000D02*
X81060000Y-96520000D01*
X88020000Y-95720000D02*
X88020000Y-97320000D01*
X88020000Y-107600000D02*
X88020000Y-109200000D01*
X78390000Y-96520000D02*
X79390000Y-96520000D01*
X78390000Y-96405000D02*
X79395000Y-96405000D01*
X79395000Y-96405000D02*
X79395000Y-94500000D01*
X88620000Y-110420000D02*
X79395000Y-110420000D01*
X79390000Y-96520000D02*
X79390000Y-108400000D01*
X88020000Y-97320000D02*
X88620000Y-97320000D01*
X88020000Y-103640000D02*
X88020000Y-105240000D01*
X79395000Y-94500000D02*
X88620000Y-94500000D01*
X79395000Y-108515000D02*
X78390000Y-108515000D01*
X88620000Y-95720000D02*
X88020000Y-95720000D01*
X85400000Y-94210000D02*
X81400000Y-94210000D01*
X81060000Y-96520000D02*
X81060000Y-108400000D01*
X88620000Y-99680000D02*
X88020000Y-99680000D01*
X88020000Y-105240000D02*
X88620000Y-105240000D01*
X88020000Y-109200000D02*
X88620000Y-109200000D01*
X79390000Y-108400000D02*
X78390000Y-108400000D01*
X88620000Y-94500000D02*
X88620000Y-110420000D01*
X81060000Y-108400000D02*
X79390000Y-108400000D01*
%TD*%
M02*
