M48
; DRILL file {KiCad 8.0.4} date 2024-08-26T11:17:33-0600
; FORMAT={-:-/ absolute / inch / decimal}
; #@! TF.CreationDate,2024-08-26T11:17:33-06:00
; #@! TF.GenerationSoftware,Kicad,Pcbnew,8.0.4
; #@! TF.FileFunction,Plated,1,2,PTH
FMAT,2
INCH
; #@! TA.AperFunction,Plated,PTH,ComponentDrill
T1C0.0394
; #@! TA.AperFunction,Plated,PTH,ComponentDrill
T2C0.0669
; #@! TA.AperFunction,Plated,PTH,ViaDrill
T3C0.1575
%
G90
G05
T1
X3.9787Y-3.8362
X3.9787Y-3.9362
X3.9787Y-4.0362
X3.9787Y-4.1362
X3.9787Y-4.2362
X4.0787Y-3.8362
X4.0787Y-3.9362
X4.0787Y-4.0362
X4.0787Y-4.1362
X4.0787Y-4.2362
X4.4906Y-3.8346
X4.4906Y-3.9346
X4.4906Y-4.0346
X4.4906Y-4.1346
X4.4906Y-4.2346
X4.5906Y-3.8346
X4.5906Y-3.9346
X4.5906Y-4.0346
X4.5906Y-4.1346
X4.5906Y-4.2346
X5.2307Y-3.8346
X5.2307Y-3.9346
X5.2307Y-4.0346
X5.2307Y-4.1346
X5.2307Y-4.2346
X5.3307Y-3.8346
X5.3307Y-3.9346
X5.3307Y-4.0346
X5.3307Y-4.1346
X5.3307Y-4.2346
X5.7425Y-3.8346
X5.7425Y-3.9346
X5.7425Y-4.0346
X5.7425Y-4.1346
X5.7425Y-4.2346
X5.8425Y-3.8346
X5.8425Y-3.9346
X5.8425Y-4.0346
X5.8425Y-4.1346
X5.8425Y-4.2346
X6.4591Y-3.8346
X6.4591Y-3.9346
X6.4591Y-4.0346
X6.4591Y-4.1346
X6.4591Y-4.2346
X6.5591Y-3.8346
X6.5591Y-3.9346
X6.5591Y-4.0346
X6.5591Y-4.1346
X6.5591Y-4.2346
X6.9709Y-3.8346
X6.9709Y-3.9346
X6.9709Y-4.0346
X6.9709Y-4.1346
X6.9709Y-4.2346
X7.0709Y-3.8346
X7.0709Y-3.9346
X7.0709Y-4.0346
X7.0709Y-4.1346
X7.0709Y-4.2346
X7.7189Y-3.8346
X7.7189Y-3.9346
X7.7189Y-4.0346
X7.7189Y-4.1346
X7.7189Y-4.2346
X7.8189Y-3.8346
X7.8189Y-3.9346
X7.8189Y-4.0346
X7.8189Y-4.1346
X7.8189Y-4.2346
T2
X3.2835Y-3.8
X3.2835Y-3.9559
X3.2835Y-4.1118
X3.2835Y-4.2677
T3
X2.952Y-4.0362
X8.1488Y-4.0362
M30
