%TF.GenerationSoftware,KiCad,Pcbnew,8.0.4*%
%TF.CreationDate,2024-08-26T11:17:31-06:00*%
%TF.ProjectId,modular-power-board,6d6f6475-6c61-4722-9d70-6f7765722d62,Mk One*%
%TF.SameCoordinates,Original*%
%TF.FileFunction,Copper,L1,Top*%
%TF.FilePolarity,Positive*%
%FSLAX46Y46*%
G04 Gerber Fmt 4.6, Leading zero omitted, Abs format (unit mm)*
G04 Created by KiCad (PCBNEW 8.0.4) date 2024-08-26 11:17:31*
%MOMM*%
%LPD*%
G01*
G04 APERTURE LIST*
G04 Aperture macros list*
%AMRoundRect*
0 Rectangle with rounded corners*
0 $1 Rounding radius*
0 $2 $3 $4 $5 $6 $7 $8 $9 X,Y pos of 4 corners*
0 Add a 4 corners polygon primitive as box body*
4,1,4,$2,$3,$4,$5,$6,$7,$8,$9,$2,$3,0*
0 Add four circle primitives for the rounded corners*
1,1,$1+$1,$2,$3*
1,1,$1+$1,$4,$5*
1,1,$1+$1,$6,$7*
1,1,$1+$1,$8,$9*
0 Add four rect primitives between the rounded corners*
20,1,$1+$1,$2,$3,$4,$5,0*
20,1,$1+$1,$4,$5,$6,$7,0*
20,1,$1+$1,$6,$7,$8,$9,0*
20,1,$1+$1,$8,$9,$2,$3,0*%
G04 Aperture macros list end*
%ADD10C,0.150000*%
%TA.AperFunction,NonConductor*%
%ADD11C,0.150000*%
%TD*%
%TA.AperFunction,ComponentPad*%
%ADD12RoundRect,0.250000X0.600000X0.600000X-0.600000X0.600000X-0.600000X-0.600000X0.600000X-0.600000X0*%
%TD*%
%TA.AperFunction,ComponentPad*%
%ADD13C,1.700000*%
%TD*%
%TA.AperFunction,ComponentPad*%
%ADD14RoundRect,0.250000X-1.800000X1.330000X-1.800000X-1.330000X1.800000X-1.330000X1.800000X1.330000X0*%
%TD*%
%TA.AperFunction,ComponentPad*%
%ADD15O,4.100000X3.160000*%
%TD*%
%TA.AperFunction,ViaPad*%
%ADD16C,5.000000*%
%TD*%
G04 APERTURE END LIST*
D10*
D11*
X71774874Y-109507494D02*
X71774874Y-107507494D01*
X71774874Y-107507494D02*
X72441541Y-108936065D01*
X72441541Y-108936065D02*
X73108207Y-107507494D01*
X73108207Y-107507494D02*
X73108207Y-109507494D01*
X74917731Y-108174160D02*
X74917731Y-109507494D01*
X74060588Y-108174160D02*
X74060588Y-109221779D01*
X74060588Y-109221779D02*
X74155826Y-109412256D01*
X74155826Y-109412256D02*
X74346302Y-109507494D01*
X74346302Y-109507494D02*
X74632017Y-109507494D01*
X74632017Y-109507494D02*
X74822493Y-109412256D01*
X74822493Y-109412256D02*
X74917731Y-109317017D01*
X76155826Y-109507494D02*
X75965350Y-109412256D01*
X75965350Y-109412256D02*
X75870112Y-109221779D01*
X75870112Y-109221779D02*
X75870112Y-107507494D01*
X76632017Y-108174160D02*
X77393921Y-108174160D01*
X76917731Y-107507494D02*
X76917731Y-109221779D01*
X76917731Y-109221779D02*
X77012969Y-109412256D01*
X77012969Y-109412256D02*
X77203445Y-109507494D01*
X77203445Y-109507494D02*
X77393921Y-109507494D01*
X78060588Y-109507494D02*
X78060588Y-108174160D01*
X78060588Y-107507494D02*
X77965350Y-107602732D01*
X77965350Y-107602732D02*
X78060588Y-107697970D01*
X78060588Y-107697970D02*
X78155826Y-107602732D01*
X78155826Y-107602732D02*
X78060588Y-107507494D01*
X78060588Y-107507494D02*
X78060588Y-107697970D01*
X71774874Y-112727382D02*
X71774874Y-110727382D01*
X71774874Y-110727382D02*
X72536779Y-110727382D01*
X72536779Y-110727382D02*
X72727255Y-110822620D01*
X72727255Y-110822620D02*
X72822493Y-110917858D01*
X72822493Y-110917858D02*
X72917731Y-111108334D01*
X72917731Y-111108334D02*
X72917731Y-111394048D01*
X72917731Y-111394048D02*
X72822493Y-111584524D01*
X72822493Y-111584524D02*
X72727255Y-111679763D01*
X72727255Y-111679763D02*
X72536779Y-111775001D01*
X72536779Y-111775001D02*
X71774874Y-111775001D01*
X73774874Y-112727382D02*
X73774874Y-110727382D01*
X74632017Y-112727382D02*
X74632017Y-111679763D01*
X74632017Y-111679763D02*
X74536779Y-111489286D01*
X74536779Y-111489286D02*
X74346303Y-111394048D01*
X74346303Y-111394048D02*
X74060588Y-111394048D01*
X74060588Y-111394048D02*
X73870112Y-111489286D01*
X73870112Y-111489286D02*
X73774874Y-111584524D01*
X76441541Y-112727382D02*
X76441541Y-111679763D01*
X76441541Y-111679763D02*
X76346303Y-111489286D01*
X76346303Y-111489286D02*
X76155827Y-111394048D01*
X76155827Y-111394048D02*
X75774874Y-111394048D01*
X75774874Y-111394048D02*
X75584398Y-111489286D01*
X76441541Y-112632144D02*
X76251065Y-112727382D01*
X76251065Y-112727382D02*
X75774874Y-112727382D01*
X75774874Y-112727382D02*
X75584398Y-112632144D01*
X75584398Y-112632144D02*
X75489160Y-112441667D01*
X75489160Y-112441667D02*
X75489160Y-112251191D01*
X75489160Y-112251191D02*
X75584398Y-112060715D01*
X75584398Y-112060715D02*
X75774874Y-111965477D01*
X75774874Y-111965477D02*
X76251065Y-111965477D01*
X76251065Y-111965477D02*
X76441541Y-111870239D01*
X77298684Y-112632144D02*
X77489160Y-112727382D01*
X77489160Y-112727382D02*
X77870112Y-112727382D01*
X77870112Y-112727382D02*
X78060589Y-112632144D01*
X78060589Y-112632144D02*
X78155827Y-112441667D01*
X78155827Y-112441667D02*
X78155827Y-112346429D01*
X78155827Y-112346429D02*
X78060589Y-112155953D01*
X78060589Y-112155953D02*
X77870112Y-112060715D01*
X77870112Y-112060715D02*
X77584398Y-112060715D01*
X77584398Y-112060715D02*
X77393922Y-111965477D01*
X77393922Y-111965477D02*
X77298684Y-111775001D01*
X77298684Y-111775001D02*
X77298684Y-111679763D01*
X77298684Y-111679763D02*
X77393922Y-111489286D01*
X77393922Y-111489286D02*
X77584398Y-111394048D01*
X77584398Y-111394048D02*
X77870112Y-111394048D01*
X77870112Y-111394048D02*
X78060589Y-111489286D01*
X79774875Y-112632144D02*
X79584399Y-112727382D01*
X79584399Y-112727382D02*
X79203446Y-112727382D01*
X79203446Y-112727382D02*
X79012970Y-112632144D01*
X79012970Y-112632144D02*
X78917732Y-112441667D01*
X78917732Y-112441667D02*
X78917732Y-111679763D01*
X78917732Y-111679763D02*
X79012970Y-111489286D01*
X79012970Y-111489286D02*
X79203446Y-111394048D01*
X79203446Y-111394048D02*
X79584399Y-111394048D01*
X79584399Y-111394048D02*
X79774875Y-111489286D01*
X79774875Y-111489286D02*
X79870113Y-111679763D01*
X79870113Y-111679763D02*
X79870113Y-111870239D01*
X79870113Y-111870239D02*
X78917732Y-112060715D01*
X82917733Y-111679763D02*
X83203447Y-111775001D01*
X83203447Y-111775001D02*
X83298685Y-111870239D01*
X83298685Y-111870239D02*
X83393923Y-112060715D01*
X83393923Y-112060715D02*
X83393923Y-112346429D01*
X83393923Y-112346429D02*
X83298685Y-112536905D01*
X83298685Y-112536905D02*
X83203447Y-112632144D01*
X83203447Y-112632144D02*
X83012971Y-112727382D01*
X83012971Y-112727382D02*
X82251066Y-112727382D01*
X82251066Y-112727382D02*
X82251066Y-110727382D01*
X82251066Y-110727382D02*
X82917733Y-110727382D01*
X82917733Y-110727382D02*
X83108209Y-110822620D01*
X83108209Y-110822620D02*
X83203447Y-110917858D01*
X83203447Y-110917858D02*
X83298685Y-111108334D01*
X83298685Y-111108334D02*
X83298685Y-111298810D01*
X83298685Y-111298810D02*
X83203447Y-111489286D01*
X83203447Y-111489286D02*
X83108209Y-111584524D01*
X83108209Y-111584524D02*
X82917733Y-111679763D01*
X82917733Y-111679763D02*
X82251066Y-111679763D01*
X84251066Y-112727382D02*
X84251066Y-111394048D01*
X84251066Y-111775001D02*
X84346304Y-111584524D01*
X84346304Y-111584524D02*
X84441542Y-111489286D01*
X84441542Y-111489286D02*
X84632018Y-111394048D01*
X84632018Y-111394048D02*
X84822495Y-111394048D01*
X85774875Y-112727382D02*
X85584399Y-112632144D01*
X85584399Y-112632144D02*
X85489161Y-112536905D01*
X85489161Y-112536905D02*
X85393923Y-112346429D01*
X85393923Y-112346429D02*
X85393923Y-111775001D01*
X85393923Y-111775001D02*
X85489161Y-111584524D01*
X85489161Y-111584524D02*
X85584399Y-111489286D01*
X85584399Y-111489286D02*
X85774875Y-111394048D01*
X85774875Y-111394048D02*
X86060590Y-111394048D01*
X86060590Y-111394048D02*
X86251066Y-111489286D01*
X86251066Y-111489286D02*
X86346304Y-111584524D01*
X86346304Y-111584524D02*
X86441542Y-111775001D01*
X86441542Y-111775001D02*
X86441542Y-112346429D01*
X86441542Y-112346429D02*
X86346304Y-112536905D01*
X86346304Y-112536905D02*
X86251066Y-112632144D01*
X86251066Y-112632144D02*
X86060590Y-112727382D01*
X86060590Y-112727382D02*
X85774875Y-112727382D01*
X87012971Y-111394048D02*
X87774875Y-111394048D01*
X87298685Y-110727382D02*
X87298685Y-112441667D01*
X87298685Y-112441667D02*
X87393923Y-112632144D01*
X87393923Y-112632144D02*
X87584399Y-112727382D01*
X87584399Y-112727382D02*
X87774875Y-112727382D01*
X88441542Y-112727382D02*
X88441542Y-110727382D01*
X89298685Y-112727382D02*
X89298685Y-111679763D01*
X89298685Y-111679763D02*
X89203447Y-111489286D01*
X89203447Y-111489286D02*
X89012971Y-111394048D01*
X89012971Y-111394048D02*
X88727256Y-111394048D01*
X88727256Y-111394048D02*
X88536780Y-111489286D01*
X88536780Y-111489286D02*
X88441542Y-111584524D01*
X91012971Y-112632144D02*
X90822495Y-112727382D01*
X90822495Y-112727382D02*
X90441542Y-112727382D01*
X90441542Y-112727382D02*
X90251066Y-112632144D01*
X90251066Y-112632144D02*
X90155828Y-112441667D01*
X90155828Y-112441667D02*
X90155828Y-111679763D01*
X90155828Y-111679763D02*
X90251066Y-111489286D01*
X90251066Y-111489286D02*
X90441542Y-111394048D01*
X90441542Y-111394048D02*
X90822495Y-111394048D01*
X90822495Y-111394048D02*
X91012971Y-111489286D01*
X91012971Y-111489286D02*
X91108209Y-111679763D01*
X91108209Y-111679763D02*
X91108209Y-111870239D01*
X91108209Y-111870239D02*
X90155828Y-112060715D01*
X92251066Y-112727382D02*
X92060590Y-112632144D01*
X92060590Y-112632144D02*
X91965352Y-112441667D01*
X91965352Y-112441667D02*
X91965352Y-110727382D01*
D10*
D11*
X203600000Y-107774160D02*
X204361904Y-107774160D01*
X203885714Y-109107494D02*
X203885714Y-107393208D01*
X203885714Y-107393208D02*
X203980952Y-107202732D01*
X203980952Y-107202732D02*
X204171428Y-107107494D01*
X204171428Y-107107494D02*
X204361904Y-107107494D01*
X205028571Y-109107494D02*
X205028571Y-107107494D01*
X205028571Y-107869398D02*
X205219047Y-107774160D01*
X205219047Y-107774160D02*
X205600000Y-107774160D01*
X205600000Y-107774160D02*
X205790476Y-107869398D01*
X205790476Y-107869398D02*
X205885714Y-107964636D01*
X205885714Y-107964636D02*
X205980952Y-108155113D01*
X205980952Y-108155113D02*
X205980952Y-108726541D01*
X205980952Y-108726541D02*
X205885714Y-108917017D01*
X205885714Y-108917017D02*
X205790476Y-109012256D01*
X205790476Y-109012256D02*
X205600000Y-109107494D01*
X205600000Y-109107494D02*
X205219047Y-109107494D01*
X205219047Y-109107494D02*
X205028571Y-109012256D01*
X207695238Y-107774160D02*
X207695238Y-109107494D01*
X206838095Y-107774160D02*
X206838095Y-108821779D01*
X206838095Y-108821779D02*
X206933333Y-109012256D01*
X206933333Y-109012256D02*
X207123809Y-109107494D01*
X207123809Y-109107494D02*
X207409524Y-109107494D01*
X207409524Y-109107494D02*
X207600000Y-109012256D01*
X207600000Y-109012256D02*
X207695238Y-108917017D01*
X208552381Y-109012256D02*
X208742857Y-109107494D01*
X208742857Y-109107494D02*
X209123809Y-109107494D01*
X209123809Y-109107494D02*
X209314286Y-109012256D01*
X209314286Y-109012256D02*
X209409524Y-108821779D01*
X209409524Y-108821779D02*
X209409524Y-108726541D01*
X209409524Y-108726541D02*
X209314286Y-108536065D01*
X209314286Y-108536065D02*
X209123809Y-108440827D01*
X209123809Y-108440827D02*
X208838095Y-108440827D01*
X208838095Y-108440827D02*
X208647619Y-108345589D01*
X208647619Y-108345589D02*
X208552381Y-108155113D01*
X208552381Y-108155113D02*
X208552381Y-108059875D01*
X208552381Y-108059875D02*
X208647619Y-107869398D01*
X208647619Y-107869398D02*
X208838095Y-107774160D01*
X208838095Y-107774160D02*
X209123809Y-107774160D01*
X209123809Y-107774160D02*
X209314286Y-107869398D01*
X203171428Y-110517858D02*
X203266666Y-110422620D01*
X203266666Y-110422620D02*
X203457142Y-110327382D01*
X203457142Y-110327382D02*
X203933333Y-110327382D01*
X203933333Y-110327382D02*
X204123809Y-110422620D01*
X204123809Y-110422620D02*
X204219047Y-110517858D01*
X204219047Y-110517858D02*
X204314285Y-110708334D01*
X204314285Y-110708334D02*
X204314285Y-110898810D01*
X204314285Y-110898810D02*
X204219047Y-111184524D01*
X204219047Y-111184524D02*
X203076190Y-112327382D01*
X203076190Y-112327382D02*
X204314285Y-112327382D01*
X205552380Y-110327382D02*
X205742857Y-110327382D01*
X205742857Y-110327382D02*
X205933333Y-110422620D01*
X205933333Y-110422620D02*
X206028571Y-110517858D01*
X206028571Y-110517858D02*
X206123809Y-110708334D01*
X206123809Y-110708334D02*
X206219047Y-111089286D01*
X206219047Y-111089286D02*
X206219047Y-111565477D01*
X206219047Y-111565477D02*
X206123809Y-111946429D01*
X206123809Y-111946429D02*
X206028571Y-112136905D01*
X206028571Y-112136905D02*
X205933333Y-112232144D01*
X205933333Y-112232144D02*
X205742857Y-112327382D01*
X205742857Y-112327382D02*
X205552380Y-112327382D01*
X205552380Y-112327382D02*
X205361904Y-112232144D01*
X205361904Y-112232144D02*
X205266666Y-112136905D01*
X205266666Y-112136905D02*
X205171428Y-111946429D01*
X205171428Y-111946429D02*
X205076190Y-111565477D01*
X205076190Y-111565477D02*
X205076190Y-111089286D01*
X205076190Y-111089286D02*
X205171428Y-110708334D01*
X205171428Y-110708334D02*
X205266666Y-110517858D01*
X205266666Y-110517858D02*
X205361904Y-110422620D01*
X205361904Y-110422620D02*
X205552380Y-110327382D01*
X206980952Y-110517858D02*
X207076190Y-110422620D01*
X207076190Y-110422620D02*
X207266666Y-110327382D01*
X207266666Y-110327382D02*
X207742857Y-110327382D01*
X207742857Y-110327382D02*
X207933333Y-110422620D01*
X207933333Y-110422620D02*
X208028571Y-110517858D01*
X208028571Y-110517858D02*
X208123809Y-110708334D01*
X208123809Y-110708334D02*
X208123809Y-110898810D01*
X208123809Y-110898810D02*
X208028571Y-111184524D01*
X208028571Y-111184524D02*
X206885714Y-112327382D01*
X206885714Y-112327382D02*
X208123809Y-112327382D01*
X209838095Y-110994048D02*
X209838095Y-112327382D01*
X209361904Y-110232144D02*
X208885714Y-111660715D01*
X208885714Y-111660715D02*
X210123809Y-111660715D01*
D10*
D11*
X71774874Y-92059875D02*
X72441541Y-92059875D01*
X72727255Y-93107494D02*
X71774874Y-93107494D01*
X71774874Y-93107494D02*
X71774874Y-91107494D01*
X71774874Y-91107494D02*
X72727255Y-91107494D01*
X74441541Y-91774160D02*
X74441541Y-93107494D01*
X73584398Y-91774160D02*
X73584398Y-92821779D01*
X73584398Y-92821779D02*
X73679636Y-93012256D01*
X73679636Y-93012256D02*
X73870112Y-93107494D01*
X73870112Y-93107494D02*
X74155827Y-93107494D01*
X74155827Y-93107494D02*
X74346303Y-93012256D01*
X74346303Y-93012256D02*
X74441541Y-92917017D01*
X75393922Y-93107494D02*
X75393922Y-91774160D01*
X75393922Y-92155113D02*
X75489160Y-91964636D01*
X75489160Y-91964636D02*
X75584398Y-91869398D01*
X75584398Y-91869398D02*
X75774874Y-91774160D01*
X75774874Y-91774160D02*
X75965351Y-91774160D01*
X76917731Y-93107494D02*
X76727255Y-93012256D01*
X76727255Y-93012256D02*
X76632017Y-92917017D01*
X76632017Y-92917017D02*
X76536779Y-92726541D01*
X76536779Y-92726541D02*
X76536779Y-92155113D01*
X76536779Y-92155113D02*
X76632017Y-91964636D01*
X76632017Y-91964636D02*
X76727255Y-91869398D01*
X76727255Y-91869398D02*
X76917731Y-91774160D01*
X76917731Y-91774160D02*
X77203446Y-91774160D01*
X77203446Y-91774160D02*
X77393922Y-91869398D01*
X77393922Y-91869398D02*
X77489160Y-91964636D01*
X77489160Y-91964636D02*
X77584398Y-92155113D01*
X77584398Y-92155113D02*
X77584398Y-92726541D01*
X77584398Y-92726541D02*
X77489160Y-92917017D01*
X77489160Y-92917017D02*
X77393922Y-93012256D01*
X77393922Y-93012256D02*
X77203446Y-93107494D01*
X77203446Y-93107494D02*
X76917731Y-93107494D01*
X79965351Y-93107494D02*
X79965351Y-91107494D01*
X79965351Y-91107494D02*
X80727256Y-91107494D01*
X80727256Y-91107494D02*
X80917732Y-91202732D01*
X80917732Y-91202732D02*
X81012970Y-91297970D01*
X81012970Y-91297970D02*
X81108208Y-91488446D01*
X81108208Y-91488446D02*
X81108208Y-91774160D01*
X81108208Y-91774160D02*
X81012970Y-91964636D01*
X81012970Y-91964636D02*
X80917732Y-92059875D01*
X80917732Y-92059875D02*
X80727256Y-92155113D01*
X80727256Y-92155113D02*
X79965351Y-92155113D01*
X82251065Y-93107494D02*
X82060589Y-93012256D01*
X82060589Y-93012256D02*
X81965351Y-92917017D01*
X81965351Y-92917017D02*
X81870113Y-92726541D01*
X81870113Y-92726541D02*
X81870113Y-92155113D01*
X81870113Y-92155113D02*
X81965351Y-91964636D01*
X81965351Y-91964636D02*
X82060589Y-91869398D01*
X82060589Y-91869398D02*
X82251065Y-91774160D01*
X82251065Y-91774160D02*
X82536780Y-91774160D01*
X82536780Y-91774160D02*
X82727256Y-91869398D01*
X82727256Y-91869398D02*
X82822494Y-91964636D01*
X82822494Y-91964636D02*
X82917732Y-92155113D01*
X82917732Y-92155113D02*
X82917732Y-92726541D01*
X82917732Y-92726541D02*
X82822494Y-92917017D01*
X82822494Y-92917017D02*
X82727256Y-93012256D01*
X82727256Y-93012256D02*
X82536780Y-93107494D01*
X82536780Y-93107494D02*
X82251065Y-93107494D01*
X83584399Y-91774160D02*
X83965351Y-93107494D01*
X83965351Y-93107494D02*
X84346304Y-92155113D01*
X84346304Y-92155113D02*
X84727256Y-93107494D01*
X84727256Y-93107494D02*
X85108208Y-91774160D01*
X86632018Y-93012256D02*
X86441542Y-93107494D01*
X86441542Y-93107494D02*
X86060589Y-93107494D01*
X86060589Y-93107494D02*
X85870113Y-93012256D01*
X85870113Y-93012256D02*
X85774875Y-92821779D01*
X85774875Y-92821779D02*
X85774875Y-92059875D01*
X85774875Y-92059875D02*
X85870113Y-91869398D01*
X85870113Y-91869398D02*
X86060589Y-91774160D01*
X86060589Y-91774160D02*
X86441542Y-91774160D01*
X86441542Y-91774160D02*
X86632018Y-91869398D01*
X86632018Y-91869398D02*
X86727256Y-92059875D01*
X86727256Y-92059875D02*
X86727256Y-92250351D01*
X86727256Y-92250351D02*
X85774875Y-92440827D01*
X87584399Y-93107494D02*
X87584399Y-91774160D01*
X87584399Y-92155113D02*
X87679637Y-91964636D01*
X87679637Y-91964636D02*
X87774875Y-91869398D01*
X87774875Y-91869398D02*
X87965351Y-91774160D01*
X87965351Y-91774160D02*
X88155828Y-91774160D01*
X71774874Y-96327382D02*
X71774874Y-94327382D01*
X71774874Y-94327382D02*
X72441541Y-95755953D01*
X72441541Y-95755953D02*
X73108207Y-94327382D01*
X73108207Y-94327382D02*
X73108207Y-96327382D01*
X74060588Y-96327382D02*
X74060588Y-94327382D01*
X75203445Y-96327382D02*
X74346302Y-95184524D01*
X75203445Y-94327382D02*
X74060588Y-95470239D01*
X77108207Y-96327382D02*
X75965350Y-96327382D01*
X76536778Y-96327382D02*
X76536778Y-94327382D01*
X76536778Y-94327382D02*
X76346302Y-94613096D01*
X76346302Y-94613096D02*
X76155826Y-94803572D01*
X76155826Y-94803572D02*
X75965350Y-94898810D01*
D12*
%TO.P,REF\u002A\u002A,1*%
%TO.N,-12V*%
X198600000Y-107560000D03*
D13*
%TO.P,REF\u002A\u002A,2*%
X196060000Y-107560000D03*
%TO.P,REF\u002A\u002A,3*%
%TO.N,GND*%
X198600000Y-105020000D03*
%TO.P,REF\u002A\u002A,4*%
X196060000Y-105020000D03*
%TO.P,REF\u002A\u002A,5*%
X198600000Y-102480000D03*
%TO.P,REF\u002A\u002A,6*%
X196060000Y-102480000D03*
%TO.P,REF\u002A\u002A,7*%
X198600000Y-99940000D03*
%TO.P,REF\u002A\u002A,8*%
X196060000Y-99940000D03*
%TO.P,REF\u002A\u002A,9*%
%TO.N,+12V*%
X198600000Y-97400000D03*
%TO.P,REF\u002A\u002A,10*%
X196060000Y-97400000D03*
%TD*%
D12*
%TO.P,REF\u002A\u002A,1*%
%TO.N,-12V*%
X179600000Y-107560000D03*
D13*
%TO.P,REF\u002A\u002A,2*%
X177060000Y-107560000D03*
%TO.P,REF\u002A\u002A,3*%
%TO.N,GND*%
X179600000Y-105020000D03*
%TO.P,REF\u002A\u002A,4*%
X177060000Y-105020000D03*
%TO.P,REF\u002A\u002A,5*%
X179600000Y-102480000D03*
%TO.P,REF\u002A\u002A,6*%
X177060000Y-102480000D03*
%TO.P,REF\u002A\u002A,7*%
X179600000Y-99940000D03*
%TO.P,REF\u002A\u002A,8*%
X177060000Y-99940000D03*
%TO.P,REF\u002A\u002A,9*%
%TO.N,+12V*%
X179600000Y-97400000D03*
%TO.P,REF\u002A\u002A,10*%
X177060000Y-97400000D03*
%TD*%
D12*
%TO.P,REF\u002A\u002A,1*%
%TO.N,-12V*%
X166600000Y-107560000D03*
D13*
%TO.P,REF\u002A\u002A,2*%
X164060000Y-107560000D03*
%TO.P,REF\u002A\u002A,3*%
%TO.N,GND*%
X166600000Y-105020000D03*
%TO.P,REF\u002A\u002A,4*%
X164060000Y-105020000D03*
%TO.P,REF\u002A\u002A,5*%
X166600000Y-102480000D03*
%TO.P,REF\u002A\u002A,6*%
X164060000Y-102480000D03*
%TO.P,REF\u002A\u002A,7*%
X166600000Y-99940000D03*
%TO.P,REF\u002A\u002A,8*%
X164060000Y-99940000D03*
%TO.P,REF\u002A\u002A,9*%
%TO.N,+12V*%
X166600000Y-97400000D03*
%TO.P,REF\u002A\u002A,10*%
X164060000Y-97400000D03*
%TD*%
D12*
%TO.P,REF\u002A\u002A,1*%
%TO.N,-12V*%
X148400000Y-107560000D03*
D13*
%TO.P,REF\u002A\u002A,2*%
X145860000Y-107560000D03*
%TO.P,REF\u002A\u002A,3*%
%TO.N,GND*%
X148400000Y-105020000D03*
%TO.P,REF\u002A\u002A,4*%
X145860000Y-105020000D03*
%TO.P,REF\u002A\u002A,5*%
X148400000Y-102480000D03*
%TO.P,REF\u002A\u002A,6*%
X145860000Y-102480000D03*
%TO.P,REF\u002A\u002A,7*%
X148400000Y-99940000D03*
%TO.P,REF\u002A\u002A,8*%
X145860000Y-99940000D03*
%TO.P,REF\u002A\u002A,9*%
%TO.N,+12V*%
X148400000Y-97400000D03*
%TO.P,REF\u002A\u002A,10*%
X145860000Y-97400000D03*
%TD*%
D12*
%TO.P,REF\u002A\u002A,1*%
%TO.N,-12V*%
X135400000Y-107560000D03*
D13*
%TO.P,REF\u002A\u002A,2*%
X132860000Y-107560000D03*
%TO.P,REF\u002A\u002A,3*%
%TO.N,GND*%
X135400000Y-105020000D03*
%TO.P,REF\u002A\u002A,4*%
X132860000Y-105020000D03*
%TO.P,REF\u002A\u002A,5*%
X135400000Y-102480000D03*
%TO.P,REF\u002A\u002A,6*%
X132860000Y-102480000D03*
%TO.P,REF\u002A\u002A,7*%
X135400000Y-99940000D03*
%TO.P,REF\u002A\u002A,8*%
X132860000Y-99940000D03*
%TO.P,REF\u002A\u002A,9*%
%TO.N,+12V*%
X135400000Y-97400000D03*
%TO.P,REF\u002A\u002A,10*%
X132860000Y-97400000D03*
%TD*%
%TO.P,REF\u002A\u002A,10*%
%TO.N,+12V*%
X114060000Y-97400000D03*
%TO.P,REF\u002A\u002A,9*%
X116600000Y-97400000D03*
%TO.P,REF\u002A\u002A,8*%
%TO.N,GND*%
X114060000Y-99940000D03*
%TO.P,REF\u002A\u002A,7*%
X116600000Y-99940000D03*
%TO.P,REF\u002A\u002A,6*%
X114060000Y-102480000D03*
%TO.P,REF\u002A\u002A,5*%
X116600000Y-102480000D03*
%TO.P,REF\u002A\u002A,4*%
X114060000Y-105020000D03*
%TO.P,REF\u002A\u002A,3*%
X116600000Y-105020000D03*
%TO.P,REF\u002A\u002A,2*%
%TO.N,-12V*%
X114060000Y-107560000D03*
D12*
%TO.P,REF\u002A\u002A,1*%
X116600000Y-107560000D03*
%TD*%
%TO.P,REF\u002A\u002A,1*%
%TO.N,-12V*%
X103600000Y-107600000D03*
D13*
%TO.P,REF\u002A\u002A,2*%
X101060000Y-107600000D03*
%TO.P,REF\u002A\u002A,3*%
%TO.N,GND*%
X103600000Y-105060000D03*
%TO.P,REF\u002A\u002A,4*%
X101060000Y-105060000D03*
%TO.P,REF\u002A\u002A,5*%
X103600000Y-102520000D03*
%TO.P,REF\u002A\u002A,6*%
X101060000Y-102520000D03*
%TO.P,REF\u002A\u002A,7*%
X103600000Y-99980000D03*
%TO.P,REF\u002A\u002A,8*%
X101060000Y-99980000D03*
%TO.P,REF\u002A\u002A,9*%
%TO.N,+12V*%
X103600000Y-97440000D03*
%TO.P,REF\u002A\u002A,10*%
X101060000Y-97440000D03*
%TD*%
D14*
%TO.P,REF\u002A\u002A,1*%
%TO.N,+12V*%
X83400000Y-96520000D03*
D15*
%TO.P,REF\u002A\u002A,2*%
%TO.N,GND*%
X83400000Y-100480000D03*
%TO.P,REF\u002A\u002A,3*%
X83400000Y-104440000D03*
%TO.P,REF\u002A\u002A,4*%
%TO.N,-12V*%
X83400000Y-108400000D03*
%TD*%
D16*
%TO.N,GND*%
X74980000Y-102520000D03*
X206980000Y-102520000D03*
%TD*%
%TA.AperFunction,Conductor*%
%TO.N,+12V*%
G36*
X201672121Y-94790002D02*
G01*
X201718614Y-94843658D01*
X201730000Y-94896000D01*
X201730000Y-97894000D01*
X201709998Y-97962121D01*
X201656342Y-98008614D01*
X201604000Y-98020000D01*
X78106000Y-98020000D01*
X78037879Y-97999998D01*
X77991386Y-97946342D01*
X77980000Y-97894000D01*
X77980000Y-96735188D01*
X78000002Y-96667067D01*
X78053658Y-96620574D01*
X78106000Y-96609188D01*
X88436328Y-96609188D01*
X88436328Y-94896000D01*
X88456330Y-94827879D01*
X88509986Y-94781386D01*
X88562328Y-94770000D01*
X201604000Y-94770000D01*
X201672121Y-94790002D01*
G37*
%TD.AperFunction*%
%TD*%
%TA.AperFunction,Conductor*%
%TO.N,GND*%
G36*
X210422121Y-99040002D02*
G01*
X210468614Y-99093658D01*
X210480000Y-99146000D01*
X210480000Y-105894000D01*
X210459998Y-105962121D01*
X210406342Y-106008614D01*
X210354000Y-106020000D01*
X71606000Y-106020000D01*
X71537879Y-105999998D01*
X71491386Y-105946342D01*
X71480000Y-105894000D01*
X71480000Y-99146000D01*
X71500002Y-99077879D01*
X71553658Y-99031386D01*
X71606000Y-99020000D01*
X210354000Y-99020000D01*
X210422121Y-99040002D01*
G37*
%TD.AperFunction*%
%TD*%
%TA.AperFunction,Conductor*%
%TO.N,-12V*%
G36*
X201672121Y-107040002D02*
G01*
X201718614Y-107093658D01*
X201730000Y-107146000D01*
X201730000Y-110144000D01*
X201709998Y-110212121D01*
X201656342Y-110258614D01*
X201604000Y-110270000D01*
X92966422Y-110270000D01*
X92898301Y-110249998D01*
X92851808Y-110196342D01*
X92840422Y-110144000D01*
X92840422Y-107146000D01*
X92860424Y-107077879D01*
X92914080Y-107031386D01*
X92966422Y-107020000D01*
X201604000Y-107020000D01*
X201672121Y-107040002D01*
G37*
%TD.AperFunction*%
%TD*%
M02*
